<svg width="15" height="7" viewBox="0 0 15 7" fill="none" xmlns="http://www.w3.org/2000/svg">
<path d="M14.6605 0.360526C14.5764 0.259428 14.4732 0.175907 14.3567 0.114745C14.2403 0.0535839 14.113 0.0159826 13.982 0.00409467C13.851 -0.00779323 13.719 0.00626581 13.5935 0.0454666C13.468 0.0846673 13.3514 0.14824 13.2505 0.232544L7.89147 4.69988L2.53247 0.232544C2.43161 0.14838 2.31516 0.0849009 2.18977 0.0457326C2.06438 0.0065643 1.9325 -0.00752642 1.80166 0.00426487C1.67083 0.0160562 1.54359 0.0534989 1.42723 0.114455C1.31086 0.17541 1.20764 0.258686 1.12347 0.359526C1.03929 0.460366 0.9758 0.576796 0.936626 0.702169C0.897452 0.827542 0.883359 0.959402 0.895152 1.09022C0.906945 1.22104 0.944393 1.34825 1.00536 1.4646C1.06632 1.58095 1.14961 1.68415 1.25047 1.76832L7.25047 6.76758C7.4303 6.91774 7.65716 7 7.89147 7C8.12577 7 8.35263 6.91774 8.53247 6.76758L14.5325 1.76832C14.7361 1.59856 14.864 1.35491 14.888 1.09092C14.912 0.826928 14.8301 0.564213 14.6605 0.360526Z" fill="#38474B"/>
</svg>
