<svg width="46" height="40" viewBox="0 0 46 40" fill="none" xmlns="http://www.w3.org/2000/svg">
<path d="M21.326 22C20.6449 20.564 19.4954 19.4026 18.0665 18.7067C16.6376 18.0108 15.0144 17.8219 13.4639 18.171C11.9134 18.5201 10.5278 19.3864 9.53507 20.6275C8.54231 21.8687 8.00146 23.4107 8.00146 25C8.00146 26.5893 8.54231 28.1314 9.53507 29.3725C10.5278 30.6136 11.9134 31.48 13.4639 31.8291C15.0144 32.1782 16.6376 31.9892 18.0665 31.2933C19.4954 30.5974 20.6449 29.436 21.326 28H27.026L30.026 30L33.026 28H38.026L39.026 22H21.326Z" stroke="#FBF8ED" stroke-width="2" stroke-miterlimit="10" stroke-linecap="square"/>
<path d="M14.026 27C15.1306 27 16.026 26.1046 16.026 25C16.026 23.8954 15.1306 23 14.026 23C12.9214 23 12.026 23.8954 12.026 25C12.026 26.1046 12.9214 27 14.026 27Z" fill="#FBF8ED"/>
<path d="M1 12H45" stroke="#FBF8ED" stroke-width="2" stroke-miterlimit="10"/>
<path d="M45 1H1V39H45V1Z" stroke="#FBF8ED" stroke-width="2" stroke-miterlimit="10" stroke-linecap="square"/>
<path d="M6.5 8C7.32843 8 8 7.32843 8 6.5C8 5.67157 7.32843 5 6.5 5C5.67157 5 5 5.67157 5 6.5C5 7.32843 5.67157 8 6.5 8Z" fill="#FBF8ED"/>
<path d="M12.5 8C13.3284 8 14 7.32843 14 6.5C14 5.67157 13.3284 5 12.5 5C11.6716 5 11 5.67157 11 6.5C11 7.32843 11.6716 8 12.5 8Z" fill="#FBF8ED"/>
</svg>
