<svg width="120" height="50" viewBox="0 0 120 50" fill="none" xmlns="http://www.w3.org/2000/svg">
<path d="M26.4253 24.5441C26.4253 22.26 25.4256 20.4592 23.7272 19.6081C22.9442 19.2247 21.8446 19.0411 20.5127 19.0411H15.5149C15.2652 19.0411 15.2146 19.141 15.2146 19.3252V19.625C15.2146 19.7754 15.2652 19.9084 15.5149 19.9084H15.681C16.2143 19.9084 16.3972 20.1919 16.3972 21.0087V28.1956C16.3972 29.0136 16.2143 29.2958 15.681 29.2958H15.5149C15.2652 29.2958 15.2146 29.4301 15.2146 29.5799V29.9808C15.2146 30.0969 15.2983 30.1638 15.4481 30.1638H20.4621C22.0781 30.1638 23.0766 29.9302 23.927 29.3964C25.5093 28.4797 26.4253 26.7613 26.4253 24.5441ZM23.8933 24.5272C23.8933 28.9968 21.3282 29.2465 19.9957 29.2465H19.4456C18.996 29.2465 18.7463 29.0467 18.7463 28.6458V20.142C18.7463 19.9921 18.8468 19.9584 18.9136 19.9584H19.6791C20.8618 19.9584 21.4618 20.0252 22.1774 20.3755C23.3938 21.0255 23.8933 22.4429 23.8933 24.5272ZM37.4567 29.9808V29.5968C37.4567 29.4638 37.4237 29.3127 37.207 29.2958L37.0565 29.2803C36.773 29.2303 36.4908 28.9799 36.3066 28.4292L33.7752 19.9753C33.5092 19.0081 33.3587 18.8582 32.9422 18.8582H31.3269C30.8267 18.8582 30.7106 18.9244 30.394 19.9253L27.6454 28.3961C27.4624 28.93 27.2126 29.2303 26.8961 29.2803L26.7462 29.2958C26.5295 29.3127 26.4964 29.4638 26.4964 29.5968V29.9808C26.4964 30.097 26.5801 30.1638 26.7294 30.1638H29.4443C29.5948 30.1638 29.6778 30.097 29.6778 29.9808V29.58C29.6778 29.3964 29.528 29.3127 29.4112 29.2958L29.2445 29.2803C28.961 29.2303 28.8786 29.0792 28.8786 28.8794C28.8786 28.7295 28.961 28.4292 29.0447 28.1626L29.6441 26.1451C29.6609 26.0614 29.6941 25.9784 29.7609 25.9116C29.8283 25.8947 29.8939 25.8779 30.0281 25.8779H32.8261C32.976 25.8779 33.0428 25.8947 33.109 25.9116C33.1758 25.9784 33.2089 26.0452 33.2257 26.1282L33.7914 28.1626C33.8582 28.4292 33.9588 28.7295 33.9588 28.8794C33.9588 29.0792 33.8751 29.2303 33.5916 29.2803L33.4255 29.2958C33.3419 29.3127 33.1589 29.3964 33.1589 29.58V29.9808C33.1589 30.097 33.2426 30.1638 33.3924 30.1638H37.2238C37.3731 30.1638 37.4567 30.097 37.4567 29.9808ZM32.8754 24.9106C32.8754 24.9943 32.793 25.028 32.6425 25.028H30.261C30.1105 25.028 30.0281 24.9943 30.0281 24.9106L30.0768 24.6939L31.36 20.4086C31.3768 20.3418 31.4106 20.2088 31.493 20.2088C31.5766 20.2088 31.6104 20.3249 31.6266 20.4086L32.8261 24.6939L32.8754 24.9106H32.8754ZM47.0046 29.8803V29.58C47.0046 29.447 46.9215 29.2958 46.7048 29.2958C46.4551 29.2958 46.1722 28.8962 45.9886 28.629L43.5903 25.1441L43.5066 24.9606C43.5066 24.8781 43.5734 24.8107 43.6565 24.727L45.0889 23.2934C45.5553 22.8263 45.8057 22.6259 46.1391 22.5759L46.4057 22.5266C46.6218 22.4767 46.7048 22.3593 46.7048 22.2432V21.9428C46.7048 21.8098 46.6218 21.6587 46.4057 21.6587H43.973C43.7233 21.6587 43.6733 21.8098 43.6733 21.9428V22.2263C43.6733 22.4093 43.7732 22.4929 43.9562 22.5098L44.1897 22.5267L44.3065 22.6765C44.3065 22.7939 44.2066 22.8932 44.1229 22.9769L42.2078 24.9444C42.0911 25.0611 41.9912 25.1442 41.8407 25.1442H41.5085C41.4417 25.1442 41.358 25.0949 41.358 24.9444V18.6247C41.358 18.5073 41.2581 18.4742 41.1751 18.4742H41.092C40.9078 18.4742 40.8753 18.5242 40.5419 18.5242H38.3103C38.0936 18.5242 38.0099 18.6741 38.0099 18.8083V19.1074C38.0099 19.2248 38.0936 19.3915 38.3103 19.3915H38.5432C39.0265 19.3915 39.1932 19.7587 39.1932 20.5417V28.1957C39.1932 29.0299 39.0096 29.2959 38.4764 29.2959H38.3103C38.0936 29.2959 38.0099 29.4301 38.0099 29.58V29.9809C38.0099 30.097 38.0936 30.1638 38.2435 30.1638H42.2247C42.3739 30.1638 42.4576 30.097 42.4576 29.9809V29.58C42.4576 29.4301 42.4076 29.2959 42.1579 29.2959H42.0742C41.5416 29.2959 41.358 29.0137 41.358 28.1957V25.9784C41.358 25.8279 41.4579 25.7786 41.5085 25.7786H41.5753C41.7914 25.7786 41.7583 25.861 41.9912 26.1951L44.4064 29.8972C44.54 30.147 44.6561 30.1638 44.9896 30.1638H46.7048C46.9215 30.1638 47.0046 29.9965 47.0046 29.8803V29.8803ZM56.7191 29.8803V29.58C56.7191 29.447 56.6355 29.2959 56.4188 29.2959C56.169 29.2959 55.8868 28.8963 55.7026 28.629L53.3049 25.1442L53.2212 24.9606C53.2212 24.8782 53.288 24.8108 53.3717 24.7271L54.8034 23.2934C55.2699 22.8264 55.5196 22.6259 55.8531 22.576L56.1197 22.5267C56.3364 22.4767 56.4188 22.3593 56.4188 22.2432V21.9429C56.4188 21.8099 56.3364 21.6588 56.1197 21.6588H53.6876C53.4379 21.6588 53.3873 21.8099 53.3873 21.9429V22.2263C53.3873 22.4093 53.4878 22.493 53.6708 22.5098L53.9043 22.5267L54.0211 22.6766C54.0211 22.794 53.9205 22.8932 53.8381 22.9769L51.9224 24.9444C51.805 25.0612 51.7057 25.1442 51.5553 25.1442H51.2224C51.1556 25.1442 51.072 25.0949 51.072 24.9444V18.6248C51.072 18.5074 50.9727 18.4743 50.889 18.4743H50.8066C50.6224 18.4743 50.5899 18.5242 50.2565 18.5242H48.0248C47.8082 18.5242 47.7245 18.6741 47.7245 18.8084V19.1074C47.7245 19.2248 47.8082 19.3916 48.0248 19.3916H48.2577C48.741 19.3916 48.9071 19.7587 48.9071 20.5417V28.1957C48.9071 29.0299 48.7242 29.2959 48.1909 29.2959H48.0248C47.8082 29.2959 47.7245 29.4302 47.7245 29.5801V29.9809C47.7245 30.0971 47.8082 30.1639 47.9574 30.1639H51.9386C52.0885 30.1639 52.1722 30.0971 52.1722 29.9809V29.5801C52.1722 29.4302 52.1222 29.2959 51.8718 29.2959H51.7882C51.2562 29.2959 51.072 29.0137 51.072 28.1957V25.9785C51.072 25.828 51.1725 25.7786 51.2224 25.7786H51.2893C51.5059 25.7786 51.4722 25.8611 51.7057 26.1951L54.1203 29.8973C54.254 30.147 54.3701 30.1639 54.7042 30.1639H56.4188C56.6355 30.1639 56.7191 29.9965 56.7191 29.8804V29.8803ZM64.6679 27.1292C64.6679 25.0281 63.5851 24.4774 62.5692 23.8942L60.937 22.9769C60.1702 22.5267 59.8043 22.1927 59.8043 21.276C59.8043 20.4256 60.3039 19.7924 61.5864 19.7924C63.1855 19.7924 63.4016 20.8758 63.4678 21.3091C63.519 21.4927 63.5346 21.6095 63.7188 21.6095H64.1527C64.2676 21.6095 64.435 21.5258 64.435 21.3091V19.8418C64.435 19.3578 63.3853 18.9076 61.6532 18.9076C58.9708 18.9076 57.805 20.0584 57.805 22.0097C57.805 23.6606 58.6885 24.3775 59.7375 25.0112L61.5695 26.1283C62.4019 26.6622 62.6029 27.1455 62.6029 27.8461C62.6029 28.8457 61.9367 29.4302 60.6873 29.4302C59.1381 29.4302 58.8047 28.6628 58.5711 27.896C58.5043 27.6787 58.4219 27.5794 58.3045 27.5794H57.8887C57.7713 27.5794 57.6052 27.6631 57.6052 27.8798V29.3796C57.6052 29.8635 58.6717 30.3137 60.6367 30.3137C63.1019 30.3137 64.6679 29.3796 64.6679 27.1292Z" fill="#FBF8ED"/>
<path d="M79.6132 37.6167C79.6132 37.3776 79.582 37.1515 79.5214 36.9405C79.4596 36.7294 79.3634 36.5465 79.2336 36.3891C79.103 36.2336 78.9351 36.1081 78.7328 36.0151C78.5298 35.9233 78.2845 35.8765 77.996 35.8765C77.7269 35.8765 77.4833 35.9239 77.2654 36.017C77.0487 36.1113 76.8633 36.2461 76.7084 36.4216C76.5555 36.5977 76.4368 36.8106 76.3556 37.0629C76.2751 37.3164 76.2339 37.5992 76.2339 37.9146C76.2339 38.2474 76.2732 38.5396 76.3525 38.7887C76.4299 39.0404 76.548 39.2483 76.7034 39.4144C76.8577 39.5817 77.0494 39.706 77.276 39.7915C77.5033 39.8752 77.7687 39.917 78.0696 39.917C78.2439 39.917 78.4087 39.9045 78.5617 39.8783C78.7165 39.8527 78.8508 39.824 78.9688 39.7915C79.0843 39.7591 79.1792 39.7253 79.2529 39.691L79.3865 39.6173L79.4227 39.5699L79.4433 39.5155L79.4546 39.4456L79.4571 39.3532L79.4521 39.2289L79.4327 39.149L79.3978 39.1059L79.3472 39.0928L79.2017 39.1346C79.1374 39.164 79.0556 39.1958 78.9557 39.2314C78.8558 39.267 78.7365 39.2988 78.6004 39.3263C78.4637 39.3556 78.3076 39.3707 78.1327 39.3707C77.9123 39.3707 77.7244 39.3388 77.5714 39.2751C77.4184 39.2133 77.2935 39.124 77.1973 39.006C77.1012 38.8893 77.0344 38.75 76.9925 38.5852C76.9507 38.4216 76.932 38.2374 76.932 38.0332H79.3509L79.532 37.9658C79.5863 37.9214 79.6132 37.8452 79.6132 37.7391V37.6167ZM76.932 37.5387C76.9376 37.39 76.9626 37.2471 77.0094 37.1091C77.0556 36.9717 77.1224 36.8499 77.2061 36.7463C77.2923 36.6426 77.3972 36.5596 77.5227 36.4971C77.6482 36.4341 77.7943 36.4041 77.9616 36.4041C78.2882 36.4041 78.5342 36.504 78.6991 36.7057C78.8645 36.9074 78.9426 37.1852 78.9345 37.5387H76.932ZM75.2617 37.498C75.2617 37.2345 75.2392 37.0085 75.1942 36.8218C75.1486 36.6364 75.0744 36.4721 74.9707 36.3335C74.8683 36.1943 74.7334 36.085 74.5655 36.0001C74.3981 35.9177 74.1927 35.8765 73.9479 35.8765C73.7481 35.8765 73.5514 35.9258 73.356 36.0251C73.1587 36.125 72.9657 36.2761 72.7715 36.4803V34.278L72.7559 34.2211L72.7022 34.1799L72.5992 34.1562L72.4325 34.1475L72.2701 34.1562L72.1659 34.1799L72.1122 34.2211L72.099 34.278V39.7378L72.1122 39.7928L72.1659 39.8309L72.2701 39.8552L72.4325 39.8633L72.5992 39.8552L72.7022 39.8309L72.7559 39.7928L72.7715 39.7378V37.1665C72.957 36.9355 73.1337 36.76 73.3017 36.6414C73.4702 36.5196 73.6401 36.4615 73.8087 36.4615C73.9392 36.4615 74.0541 36.4846 74.1533 36.5352C74.2526 36.5827 74.3338 36.6538 74.3969 36.7475C74.4593 36.8387 74.5068 36.9498 74.5392 37.0772C74.5723 37.2052 74.5873 37.375 74.5873 37.5848V39.7378L74.6048 39.7928L74.6566 39.8309L74.7584 39.8552L74.9276 39.8633L75.0906 39.8552L75.1923 39.8309L75.2442 39.7928L75.2617 39.7378V37.498H75.2617ZM71.2055 39.0372L71.1861 38.9392L71.1512 38.883L71.1019 38.8674L70.9645 38.9392C70.9071 38.986 70.8346 39.0397 70.7485 39.0972C70.6629 39.1571 70.5611 39.2115 70.4444 39.2595C70.327 39.3095 70.1915 39.3332 70.036 39.3332C69.873 39.3332 69.7269 39.3032 69.6014 39.2458C69.4759 39.1871 69.3685 39.0966 69.2811 38.9779C69.1956 38.858 69.1287 38.7082 69.0832 38.5308C69.0382 38.3516 69.0157 38.1443 69.0157 37.9071C69.0157 37.4331 69.1025 37.071 69.2749 36.8231C69.4478 36.5739 69.6957 36.4484 70.0204 36.4484C70.1784 36.4484 70.3151 36.4715 70.43 36.5153C70.5462 36.5615 70.6448 36.6108 70.7266 36.6651C70.8078 36.7194 70.8746 36.7694 70.9283 36.815L71.0682 36.8818L71.1587 36.8187C71.1837 36.7763 71.1955 36.7019 71.1955 36.5958L71.191 36.4734L71.1742 36.3854L71.1442 36.3179L71.0768 36.2405L70.9194 36.1219C70.8476 36.0757 70.7658 36.0351 70.6728 35.9995C70.5804 35.9639 70.4798 35.9352 70.3687 35.9133C70.2582 35.8921 70.1445 35.8808 70.0278 35.8808C69.7861 35.8808 69.5607 35.9202 69.3522 36.0014C69.1442 36.0819 68.9638 36.2037 68.8095 36.3704C68.6559 36.5377 68.5354 36.75 68.4461 37.0104C68.3575 37.2708 68.3144 37.5824 68.3144 37.9433C68.3144 38.263 68.35 38.5446 68.4218 38.7881C68.4948 39.0316 68.5991 39.2364 68.7365 39.4038C68.8732 39.573 69.0449 39.6997 69.2485 39.7872C69.4527 39.874 69.6868 39.9177 69.951 39.9177C70.0777 39.9177 70.2026 39.9058 70.3219 39.8808C70.4411 39.8565 70.5535 39.824 70.6547 39.7853C70.7571 39.7453 70.8482 39.701 70.9294 39.6492C71.0125 39.5999 71.0693 39.558 71.1036 39.5237L71.1686 39.445L71.1929 39.3844L71.2073 39.2983L71.2108 39.1778L71.2052 39.0373L71.2055 39.0372ZM64.4048 39.3451L64.3867 39.2671L64.3573 39.2289L64.318 39.2196L64.245 39.2371L64.1463 39.2758L64.0164 39.3139L63.8497 39.3326C63.6561 39.3326 63.5213 39.2683 63.447 39.1384C63.3714 39.0104 63.3358 38.8181 63.3358 38.5646V36.5134H64.278L64.3755 36.4485C64.3998 36.4048 64.4129 36.3336 64.4129 36.2356L64.4048 36.1051L64.3773 36.017L64.3348 35.9677L64.278 35.954H63.3358V35.0792L63.3183 35.0267L63.2652 34.9837L63.1641 34.9568L62.9955 34.9487L62.8325 34.9568L62.7289 34.9837L62.6764 35.0267L62.6614 35.0792V35.954H62.1513L62.092 35.9677L62.0495 36.017L62.0227 36.1051L62.0127 36.2356C62.0127 36.3336 62.0245 36.4048 62.0495 36.4485L62.1469 36.5134H62.6614V38.6639C62.6614 38.8749 62.6814 39.0598 62.7207 39.2171C62.7601 39.3726 62.8231 39.5025 62.9112 39.6055C62.9974 39.7073 63.1085 39.7828 63.2446 39.834C63.3807 39.8846 63.545 39.909 63.7342 39.909L63.9234 39.8965L64.0994 39.8665L64.2487 39.8191L64.348 39.7579L64.3954 39.6555C64.4067 39.6093 64.4129 39.5468 64.4129 39.4681L64.4048 39.3451L64.4048 39.3451ZM67.5281 38.3273C67.4756 38.2131 67.4057 38.115 67.3183 38.0345C67.2327 37.9521 67.1316 37.8828 67.0185 37.8266C66.9055 37.7679 66.7913 37.7167 66.6757 37.6698C66.5596 37.6236 66.4459 37.5793 66.3348 37.535C66.2237 37.4919 66.1244 37.4432 66.037 37.3876C65.9495 37.3345 65.879 37.2708 65.8247 37.199C65.7716 37.1266 65.7435 37.0367 65.7435 36.9299C65.7435 36.8537 65.7572 36.7838 65.7854 36.7176L65.9134 36.5484C65.9677 36.5016 66.0395 36.4647 66.1275 36.4379C66.2137 36.4123 66.3148 36.3998 66.4291 36.3998C66.5565 36.3998 66.6708 36.4141 66.7694 36.4442C66.8687 36.4741 66.9549 36.506 67.0286 36.5403L67.2084 36.6371L67.3145 36.6808L67.3595 36.6664L67.3939 36.6196L67.4157 36.5372L67.4207 36.4154L67.4157 36.3049L67.402 36.23L67.382 36.1744L67.3245 36.1188L67.1984 36.0427C67.1422 36.0139 67.0748 35.9865 66.9961 35.9621C66.9174 35.9384 66.8287 35.9172 66.7307 35.9009C66.6333 35.8841 66.5353 35.876 66.4379 35.876C66.2137 35.876 66.0195 35.9065 65.8509 35.9665C65.6836 36.0264 65.5443 36.1057 65.4326 36.2056C65.3208 36.3043 65.2371 36.4204 65.1822 36.5528C65.126 36.6852 65.0985 36.8232 65.0985 36.9668C65.0985 37.131 65.1247 37.2709 65.1791 37.3876C65.2309 37.505 65.3008 37.6062 65.3876 37.6899C65.4744 37.7748 65.5731 37.8466 65.6836 37.9053C65.7941 37.9646 65.9071 38.0164 66.0232 38.0626C66.1381 38.1082 66.2512 38.1526 66.3592 38.1944C66.4685 38.2374 66.5665 38.2856 66.6533 38.3405C66.7407 38.3948 66.8113 38.4573 66.8631 38.5278C66.9174 38.599 66.943 38.6858 66.943 38.7895C66.943 38.89 66.9255 38.9786 66.8881 39.0505L66.7307 39.2328C66.6626 39.2808 66.5821 39.3165 66.4903 39.3408C66.3985 39.3652 66.2936 39.3777 66.1793 39.3777C66.027 39.3777 65.8927 39.3602 65.7766 39.3233C65.6586 39.2865 65.5574 39.2459 65.4713 39.2022C65.3864 39.1585 65.3139 39.1185 65.2559 39.0823L65.1229 39.0261L65.0729 39.0417L65.0367 39.0873L65.0167 39.1735L65.0092 39.304C65.0092 39.3895 65.0148 39.4557 65.0292 39.5044L65.0941 39.6187L65.2371 39.7117C65.3027 39.746 65.3826 39.7785 65.4756 39.8098C65.5693 39.8403 65.6761 39.8666 65.7941 39.8866C65.9134 39.9065 66.037 39.9184 66.1675 39.9184C66.3798 39.9184 66.5746 39.8916 66.7513 39.8398C66.9293 39.7879 67.0804 39.7118 67.2084 39.6106C67.337 39.5101 67.435 39.3864 67.505 39.2391C67.5737 39.0917 67.608 38.9244 67.608 38.7358C67.608 38.5785 67.5818 38.4423 67.5281 38.3274L67.5281 38.3273ZM61.2696 36.0602L61.2515 36.0059L61.1959 35.964L61.0941 35.9396L60.9312 35.9346L60.7657 35.9396L60.6608 35.964L60.6065 36.0059L60.5915 36.0602V38.6297C60.4048 38.8626 60.2262 39.038 60.0595 39.1573C59.8921 39.2778 59.7242 39.3371 59.555 39.3371C59.4251 39.3371 59.3102 39.3127 59.2128 39.2616C59.1147 39.2123 59.0336 39.141 58.9699 39.0493C58.9056 38.9581 58.8581 38.8476 58.8275 38.7177C58.7957 38.5891 58.7795 38.4167 58.7795 38.2026V36.0602L58.7639 36.0059L58.7083 35.964L58.6047 35.9396L58.4411 35.9346L58.2781 35.9396L58.1719 35.964L58.117 36.0059L58.1026 36.0602V38.2912C58.1026 38.5578 58.1251 38.7845 58.17 38.9712C58.2144 39.1579 58.2887 39.3209 58.3923 39.462C58.4954 39.6025 58.6309 39.713 58.7982 39.7948C58.9662 39.8779 59.1716 39.9172 59.4164 39.9172C59.6262 39.9172 59.8328 39.8641 60.037 39.758C60.2418 39.6518 60.4479 39.4826 60.6577 39.2509V39.7386L60.6696 39.7923L60.7164 39.8317L60.8107 39.856L60.9637 39.8641L61.1085 39.856L61.2047 39.8317L61.2553 39.7923L61.2696 39.7386V36.0602H61.2696ZM57.1111 37.6169C57.1111 37.3777 57.0798 37.1517 57.0193 36.9406C56.9581 36.7296 56.8619 36.5466 56.7314 36.3893C56.6009 36.2338 56.4342 36.1083 56.2319 36.0152C56.0283 35.9235 55.7829 35.8766 55.4945 35.8766C55.2253 35.8766 54.9825 35.9241 54.7639 36.0171C54.5466 36.1114 54.3612 36.2463 54.2076 36.4217C54.0533 36.5978 53.9359 36.8107 53.8535 37.063C53.773 37.3165 53.7318 37.5994 53.7318 37.9147C53.7318 38.2475 53.7711 38.5397 53.8504 38.7889C53.9291 39.0405 54.0458 39.2484 54.2013 39.4145C54.3562 39.5819 54.5472 39.7061 54.7751 39.7917C55.0012 39.8753 55.2666 39.9172 55.5681 39.9172C55.743 39.9172 55.9066 39.9047 56.0602 39.8785C56.2144 39.8528 56.3487 39.8241 56.4667 39.7917C56.5828 39.7592 56.6784 39.7255 56.7514 39.6911L56.8844 39.6175L56.9212 39.57L56.9412 39.5157L56.9524 39.4458L56.9554 39.3533L56.9498 39.2291L56.9311 39.1492L56.8961 39.1061L56.8449 39.0929L56.6994 39.1348C56.6351 39.1641 56.5533 39.196 56.4534 39.2316C56.3535 39.2672 56.2348 39.299 56.0987 39.3265C55.9614 39.3558 55.8059 39.3708 55.6317 39.3708C55.41 39.3708 55.2227 39.339 55.0691 39.2753C54.9161 39.2135 54.7912 39.1242 54.6963 39.0062C54.6001 38.8894 54.5321 38.7502 54.4915 38.5853C54.4497 38.4217 54.4297 38.2375 54.4297 38.0333H56.8486L57.031 37.9659C57.084 37.9215 57.1109 37.8454 57.1109 37.7392V37.6169H57.1111ZM54.4297 37.5388C54.4353 37.3902 54.4615 37.2472 54.5071 37.1092C54.5539 36.9718 54.6201 36.8501 54.7044 36.7464C54.79 36.6428 54.8949 36.5597 55.0204 36.4973C55.1465 36.4342 55.2932 36.4043 55.46 36.4043C55.7859 36.4043 56.0319 36.5042 56.1974 36.7058C56.3628 36.9075 56.4415 37.1854 56.4328 37.5388H54.4297ZM52.8174 36.0477C52.7069 35.7311 52.5452 35.4639 52.3317 35.241C52.1181 35.0193 51.854 34.8488 51.538 34.7308C51.2227 34.6116 50.8356 34.5523 50.3791 34.5523H49.1834L49.0054 34.6159C48.9498 34.6578 48.9218 34.7333 48.9218 34.8395V39.5532C48.9218 39.6593 48.9498 39.7336 49.0054 39.7761L49.1834 39.8391H50.3017C50.7531 39.8391 51.1422 39.7842 51.4681 39.6718C51.7953 39.5606 52.07 39.3921 52.2948 39.1679C52.5196 38.9419 52.6907 38.659 52.8075 38.3168C52.9242 37.9765 52.9829 37.5756 52.9829 37.118C52.9829 36.7215 52.928 36.3643 52.8174 36.0477ZM52.1281 38.0808C52.05 38.343 51.9339 38.5622 51.7784 38.7364C51.6236 38.9106 51.4306 39.0399 51.199 39.1254C50.9679 39.2091 50.6832 39.2509 50.346 39.2509H49.6236V35.1367H50.3385C50.7026 35.1367 51.0004 35.1873 51.2321 35.2891C51.4631 35.3883 51.6542 35.5288 51.8053 35.7099C51.9564 35.8897 52.0669 36.1014 52.1381 36.3481C52.2086 36.5947 52.2442 36.8619 52.2442 37.1467C52.2442 37.5063 52.2055 37.8173 52.1281 38.0808Z" fill="#FBF8ED"/>
<path d="M98.0101 44.69L97.9065 44.622H96.7957C96.7114 44.6014 96.6208 44.5839 96.5247 44.5714C96.4279 44.5602 96.3242 44.5527 96.2125 44.5527C96.0064 44.5527 95.8141 44.5839 95.6386 44.6451C95.4632 44.7075 95.3127 44.7937 95.1884 44.9092C95.0629 45.0228 94.9649 45.164 94.8943 45.33C94.8232 45.4961 94.7888 45.6841 94.7888 45.8933C94.7888 46.0731 94.8119 46.2261 94.8612 46.3528C94.9106 46.4808 94.9768 46.5939 95.0611 46.695C94.9618 46.7987 94.8762 46.9148 94.8082 47.0453C94.7401 47.1771 94.7058 47.325 94.7058 47.4918C94.7058 47.6104 94.7388 47.7228 94.8019 47.8264C94.8662 47.9295 94.9649 48.0163 95.0979 48.0837C95.0111 48.1524 94.9343 48.2211 94.8675 48.2904C94.8007 48.3603 94.7451 48.4327 94.7001 48.5083C94.6552 48.5845 94.6215 48.665 94.5996 48.7499C94.579 48.8336 94.5671 48.9217 94.5671 49.0109C94.5671 49.1527 94.5971 49.2838 94.6577 49.4062C94.7176 49.5267 94.8138 49.6304 94.9468 49.7184C95.0804 49.8046 95.2509 49.8739 95.4588 49.9238C95.6674 49.9744 95.9196 50 96.2162 50C96.5241 50 96.7907 49.9669 97.0173 49.9007C97.2421 49.8327 97.4276 49.7415 97.5749 49.6254C97.7192 49.5105 97.8272 49.3769 97.8984 49.2226C97.9683 49.0703 98.0045 48.9098 98.0045 48.7418C98.0045 48.5801 97.9727 48.4396 97.9096 48.3185C97.8472 48.1967 97.7604 48.0949 97.6492 48.0131C97.5381 47.9282 97.4057 47.8645 97.2527 47.8196C97.101 47.7759 96.9337 47.749 96.7513 47.744L95.7916 47.7041C95.6449 47.6991 95.5275 47.6647 95.4388 47.601C95.3502 47.5386 95.3065 47.4605 95.3065 47.3644C95.3065 47.2832 95.322 47.2114 95.3527 47.1483L95.4732 46.9804C95.5468 47.0403 95.6511 47.0896 95.786 47.129C95.9202 47.1683 96.0626 47.1889 96.2125 47.1889C96.4254 47.1889 96.6177 47.1583 96.7913 47.0984C96.9661 47.0397 97.1166 46.9516 97.2428 46.8386C97.3689 46.7269 97.4669 46.5889 97.5343 46.4246C97.6024 46.2604 97.6367 46.0731 97.6367 45.8608C97.6367 45.7328 97.6174 45.6104 97.5799 45.4911C97.5412 45.3719 97.475 45.2651 97.3801 45.1665H97.9065L98.0058 45.1028C98.032 45.061 98.0451 44.9922 98.0451 44.8967C98.0451 44.8049 98.0332 44.7362 98.0101 44.69H98.0101ZM96.9461 46.1718C96.9137 46.2698 96.8656 46.356 96.8025 46.4303C96.7388 46.5058 96.657 46.5645 96.559 46.6063C96.4616 46.6501 96.3461 46.67 96.2124 46.67C95.9646 46.67 95.7722 46.6001 95.6349 46.4615C95.4975 46.3229 95.4288 46.1324 95.4288 45.8901C95.4288 45.7809 95.4438 45.6766 95.4756 45.5779C95.5068 45.4774 95.5543 45.3894 95.6186 45.3132C95.6823 45.237 95.7635 45.1771 95.8596 45.1334C95.9558 45.0909 96.0694 45.0684 96.2006 45.0684C96.4528 45.0684 96.6483 45.1384 96.7856 45.2782C96.9224 45.4187 96.9923 45.6135 96.9923 45.8652C96.9923 45.9713 96.9761 46.0731 96.9461 46.1718H96.9461ZM97.2752 49.044C97.2383 49.1283 97.1784 49.2039 97.0941 49.2688C97.0098 49.3344 96.8987 49.3862 96.7613 49.4256C96.6233 49.4649 96.4528 49.4849 96.2499 49.4849C95.9277 49.4849 95.6773 49.4393 95.4981 49.3475C95.3189 49.2563 95.2283 49.1233 95.2283 48.9448L95.2464 48.7787L95.3145 48.6126L95.4481 48.4377C95.5024 48.3753 95.5742 48.311 95.661 48.2429L96.6126 48.2754C96.8324 48.2804 97.0073 48.3272 97.1365 48.4121C97.2664 48.4989 97.3307 48.6194 97.3307 48.7787C97.3307 48.8705 97.312 48.9604 97.2751 49.044H97.2752ZM101.138 46.9972C101.086 46.8823 101.016 46.7837 100.929 46.7025C100.841 46.6213 100.742 46.552 100.629 46.494C100.516 46.4365 100.402 46.3853 100.286 46.3391C100.17 46.2923 100.056 46.2473 99.9451 46.2048C99.8334 46.1611 99.7347 46.1112 99.6467 46.0575C99.5599 46.0019 99.4906 45.9395 99.435 45.8664C99.38 45.7946 99.3532 45.7053 99.3532 45.5985C99.3532 45.5224 99.3676 45.4524 99.3956 45.3869L99.5236 45.217C99.578 45.1696 99.6498 45.1327 99.7372 45.1065C99.824 45.0815 99.9251 45.0684 100.039 45.0684C100.167 45.0684 100.28 45.084 100.38 45.1128C100.479 45.1428 100.565 45.1746 100.639 45.209L100.819 45.3051L100.925 45.3501L100.969 45.3351L101.004 45.2895L101.024 45.2046L101.031 45.0854L101.024 44.9748L101.012 44.8987L100.992 44.8443L100.935 44.7863L100.809 44.7101C100.752 44.682 100.685 44.6551 100.606 44.6314C100.527 44.6064 100.439 44.5865 100.341 44.5696C100.242 44.5528 100.145 44.5453 100.048 44.5453C99.824 44.5453 99.6291 44.5752 99.4612 44.6358C99.2938 44.6957 99.1546 44.7757 99.0434 44.875C98.9323 44.9749 98.8474 45.0904 98.7931 45.2221C98.7362 45.3539 98.7081 45.4919 98.7081 45.6355C98.7081 45.7997 98.735 45.9396 98.7881 46.0576C98.8411 46.1737 98.9111 46.2761 98.9979 46.3598C99.0847 46.4447 99.1833 46.5159 99.2938 46.574C99.4044 46.632 99.5174 46.6857 99.6323 46.7313C99.7484 46.7769 99.8608 46.8225 99.9694 46.865C100.078 46.9062 100.177 46.9542 100.264 47.0086C100.35 47.0635 100.421 47.126 100.473 47.1971C100.527 47.2677 100.553 47.3551 100.553 47.4588C100.553 47.5605 100.535 47.6467 100.499 47.7204L100.341 47.9015C100.273 47.9502 100.192 47.9851 100.1 48.0107C100.008 48.0345 99.9039 48.0476 99.7896 48.0476C99.6373 48.0476 99.503 48.0282 99.3856 47.9914C99.2689 47.9545 99.1677 47.9152 99.0815 47.8715C98.9966 47.8272 98.9236 47.7872 98.8649 47.7504L98.7331 47.6961L98.6819 47.7092L98.6469 47.7567L98.627 47.8435L98.6195 47.974C98.6195 48.0576 98.6251 48.1244 98.6388 48.1738L98.7044 48.288L98.8467 48.3798C98.9129 48.4135 98.9922 48.4466 99.0859 48.4772C99.1795 48.509 99.2857 48.5359 99.4043 48.5553C99.5236 48.5771 99.6466 48.5865 99.7777 48.5865C99.99 48.5865 100.185 48.5603 100.362 48.5084C100.538 48.4566 100.691 48.3804 100.819 48.2799C100.947 48.1788 101.045 48.0551 101.115 47.9084C101.184 47.7604 101.218 47.5937 101.218 47.4057C101.218 47.2484 101.192 47.1116 101.138 46.9974L101.138 46.9972ZM104.407 46.9974C104.354 46.8825 104.284 46.7838 104.197 46.7027C104.11 46.6215 104.01 46.5522 103.897 46.4941C103.784 46.4367 103.67 46.3855 103.554 46.3392C103.438 46.2924 103.324 46.2475 103.213 46.205C103.101 46.1613 103.003 46.1113 102.915 46.0576C102.828 46.0021 102.757 45.9396 102.703 45.8666C102.648 45.7948 102.621 45.7055 102.621 45.5987C102.621 45.5225 102.636 45.4526 102.664 45.387L102.791 45.2172C102.846 45.1697 102.918 45.1329 103.006 45.1067C103.092 45.0817 103.193 45.0686 103.307 45.0686C103.435 45.0686 103.549 45.0842 103.648 45.113C103.747 45.1429 103.833 45.1748 103.907 45.2091L104.087 45.3053L104.193 45.3502L104.238 45.3352L104.272 45.2897L104.292 45.2048L104.299 45.0855L104.292 44.975L104.28 44.8988L104.26 44.8445L104.203 44.7864L104.077 44.7102C104.021 44.6822 103.953 44.6553 103.875 44.6316C103.796 44.6066 103.707 44.5866 103.609 44.5697C103.511 44.5529 103.413 44.5454 103.315 44.5454C103.092 44.5454 102.897 44.5754 102.729 44.636C102.562 44.6959 102.423 44.7758 102.312 44.8751C102.199 44.975 102.116 45.0905 102.061 45.2223C102.004 45.354 101.976 45.492 101.976 45.6356C101.976 45.7999 102.003 45.9397 102.056 46.0577C102.109 46.1739 102.179 46.2763 102.266 46.3599C102.353 46.4449 102.451 46.5161 102.562 46.5741C102.673 46.6322 102.786 46.6859 102.902 46.7315C103.017 46.777 103.129 46.8226 103.238 46.8651C103.346 46.9063 103.445 46.9544 103.532 47.0087C103.619 47.0637 103.689 47.1261 103.742 47.1973C103.795 47.2678 103.821 47.3553 103.821 47.4589C103.821 47.5607 103.803 47.6469 103.766 47.7205L103.609 47.9016C103.541 47.9503 103.461 47.9853 103.369 48.0109C103.276 48.0346 103.172 48.0478 103.058 48.0478C102.905 48.0478 102.771 48.0284 102.654 47.9916C102.537 47.9547 102.436 47.9154 102.35 47.8717C102.265 47.8273 102.192 47.7874 102.133 47.7505L102.001 47.6962L101.95 47.7094L101.915 47.7568L101.895 47.8436L101.887 47.9741C101.887 48.0578 101.893 48.1246 101.907 48.1739L101.973 48.2882L102.115 48.38C102.181 48.4137 102.26 48.4468 102.354 48.4774C102.448 48.5092 102.554 48.5361 102.672 48.5554C102.791 48.5773 102.915 48.5866 103.046 48.5866C103.258 48.5866 103.452 48.5604 103.63 48.5086C103.808 48.4568 103.959 48.3806 104.087 48.2801C104.215 48.1789 104.313 48.0553 104.383 47.9085C104.452 47.7606 104.486 47.5938 104.486 47.4059C104.486 47.2485 104.46 47.1118 104.407 46.9975V46.9974ZM107.259 48.0147L107.241 47.936L107.212 47.8979L107.173 47.8879L107.1 47.9066L107.002 47.9454L106.872 47.9847L106.704 48.0022C106.511 48.0022 106.377 47.9373 106.302 47.8093C106.227 47.6788 106.19 47.4877 106.19 47.2342V45.1824H107.133L107.23 45.1181C107.256 45.0737 107.267 45.0032 107.267 44.9051L107.259 44.7746L107.232 44.686L107.189 44.6379L107.133 44.6223H106.19V43.7487L106.173 43.6963L106.121 43.6538L106.018 43.6269L105.851 43.6182L105.688 43.6269L105.585 43.6538L105.53 43.6963L105.516 43.7487V44.6223H105.006L104.947 44.6379L104.904 44.686L104.877 44.7746L104.867 44.9051C104.867 45.0032 104.879 45.0737 104.904 45.1181L105.002 45.1824H105.516V47.3322C105.516 47.5445 105.536 47.7293 105.575 47.8854C105.615 48.0434 105.678 48.1714 105.765 48.2732C105.852 48.3756 105.964 48.4518 106.099 48.5036C106.235 48.5529 106.399 48.5779 106.589 48.5779L106.777 48.566L106.955 48.536L107.104 48.4886L107.202 48.4274L107.251 48.325C107.261 48.2782 107.267 48.2157 107.267 48.137L107.259 48.0147L107.259 48.0147ZM111.2 46.2863C111.2 46.0459 111.169 45.8217 111.108 45.6107C111.047 45.399 110.951 45.2148 110.82 45.0575C110.689 44.9014 110.523 44.7771 110.321 44.6847C110.117 44.5923 109.872 44.5454 109.583 44.5454C109.314 44.5454 109.071 44.5935 108.853 44.6859C108.636 44.7796 108.45 44.9163 108.296 45.0912C108.142 45.266 108.024 45.4802 107.942 45.7318C107.861 45.9841 107.821 46.2694 107.821 46.5848C107.821 46.9163 107.859 47.2092 107.938 47.4589C108.017 47.7093 108.135 47.9179 108.289 48.084C108.445 48.2501 108.636 48.3756 108.863 48.4592C109.09 48.5435 109.355 48.5866 109.658 48.5866C109.831 48.5866 109.994 48.5735 110.149 48.5473C110.302 48.521 110.438 48.4917 110.554 48.4592C110.672 48.4274 110.767 48.3949 110.84 48.3606L110.973 48.2869L111.01 48.2388L111.03 48.1845L111.04 48.1151L111.045 48.0221L111.038 47.8978L111.02 47.8179L110.985 47.7761L110.934 47.7605L110.788 47.8048C110.724 47.8323 110.643 47.8642 110.542 47.8991C110.443 47.9353 110.324 47.9672 110.188 47.9953C110.051 48.024 109.895 48.0383 109.72 48.0383C109.498 48.0383 109.312 48.0084 109.158 47.9453C109.005 47.8816 108.881 47.7923 108.785 47.6749C108.689 47.5588 108.621 47.4183 108.58 47.2541C108.538 47.0911 108.518 46.9069 108.518 46.7027H110.937L111.12 46.6347C111.173 46.5903 111.2 46.5154 111.2 46.4093V46.2862L111.2 46.2863ZM108.518 46.2082C108.523 46.059 108.55 45.9147 108.596 45.778C108.643 45.6406 108.708 45.5188 108.794 45.4158C108.878 45.3122 108.984 45.2297 109.11 45.1667C109.236 45.1036 109.382 45.0724 109.549 45.0724C109.875 45.0724 110.121 45.1729 110.287 45.3746C110.452 45.5775 110.53 45.8548 110.522 46.2082H108.518ZM112.901 42.9475L112.885 42.8913L112.832 42.8501L112.729 42.8251L112.563 42.8176L112.4 42.8251L112.295 42.8501L112.242 42.8913L112.228 42.9475V48.4061L112.242 48.4623L112.295 48.501L112.4 48.5254L112.563 48.5335L112.729 48.5254L112.832 48.501L112.885 48.4623L112.901 48.4061V42.9475ZM114.815 42.9475L114.799 42.8913L114.746 42.8501L114.644 42.8251L114.477 42.8176L114.314 42.8251L114.209 42.8501L114.156 42.8913L114.142 42.9475V48.4061L114.156 48.4623L114.209 48.501L114.314 48.5254L114.477 48.5335L114.644 48.5254L114.746 48.501L114.799 48.4623L114.815 48.4061V42.9475ZM119.191 46.2862C119.191 46.0458 119.16 45.8217 119.099 45.6106C119.038 45.399 118.942 45.2148 118.811 45.0574C118.68 44.9013 118.514 44.777 118.312 44.6846C118.108 44.5922 117.863 44.5454 117.574 44.5454C117.305 44.5454 117.062 44.5934 116.844 44.6859C116.626 44.7795 116.441 44.9163 116.287 45.0911C116.133 45.266 116.015 45.4801 115.933 45.7318C115.852 45.984 115.811 46.2694 115.811 46.5847C115.811 46.9163 115.851 47.2091 115.93 47.4589C116.009 47.7093 116.126 47.9178 116.28 48.0839C116.436 48.25 116.627 48.3755 116.854 48.4592C117.081 48.5435 117.346 48.5866 117.648 48.5866C117.821 48.5866 117.986 48.5734 118.14 48.5472C118.293 48.521 118.428 48.4916 118.546 48.4592C118.663 48.4273 118.758 48.3949 118.831 48.3605L118.964 48.2868L119.001 48.2387L119.021 48.1844L119.031 48.1151L119.035 48.0221L119.03 47.8978L119.011 47.8179L118.976 47.776L118.925 47.7604L118.779 47.8048C118.715 47.8323 118.633 47.8641 118.533 47.8991C118.434 47.9353 118.315 47.9671 118.179 47.9952C118.041 48.024 117.886 48.0383 117.71 48.0383C117.489 48.0383 117.302 48.0083 117.149 47.9453C116.996 47.8816 116.871 47.7923 116.776 47.6749C116.68 47.5587 116.611 47.4183 116.57 47.254C116.53 47.0911 116.51 46.9069 116.51 46.7027H118.929L119.11 46.6346C119.164 46.5903 119.191 46.5154 119.191 46.4092V46.2862L119.191 46.2862ZM116.51 46.2081C116.515 46.0589 116.54 45.9147 116.587 45.7779C116.634 45.6406 116.699 45.5188 116.784 45.4158C116.87 45.3121 116.975 45.2297 117.1 45.1666C117.227 45.1036 117.373 45.0723 117.54 45.0723C117.866 45.0723 118.112 45.1729 118.277 45.3746C118.443 45.5775 118.522 45.8547 118.513 46.2081H116.51ZM93.7593 46.1638C93.7593 45.9022 93.7368 45.6786 93.6919 45.4919C93.6475 45.3052 93.572 45.1423 93.4696 45.003C93.3666 44.8644 93.2311 44.7532 93.0631 44.6702C92.8958 44.5871 92.6903 44.5453 92.4456 44.5453C92.2358 44.5453 92.0285 44.5996 91.8224 44.707C91.617 44.8151 91.4103 44.9849 91.203 45.2159V44.7295L91.1898 44.6746L91.143 44.6334L91.0512 44.609L90.9026 44.6033L90.7503 44.609L90.6572 44.6334L90.6073 44.6746L90.5967 44.7295V48.4073L90.6098 48.4622L90.6635 48.501L90.7678 48.5253L90.9307 48.5335L91.0968 48.5253L91.1992 48.501L91.2536 48.4622L91.2691 48.4073V45.8366C91.4546 45.6056 91.6313 45.4301 91.7999 45.3096C91.9678 45.1897 92.1377 45.1304 92.3063 45.1304C92.4368 45.1304 92.5517 45.1548 92.651 45.2041C92.7502 45.2528 92.8314 45.324 92.8945 45.4151C92.9569 45.5088 93.0044 45.6193 93.0368 45.7473C93.0699 45.8753 93.0849 46.0433 93.0849 46.2525V48.4073L93.1024 48.4622L93.1542 48.501L93.256 48.5253L93.4252 48.5335L93.5882 48.5253L93.69 48.501L93.7418 48.4622L93.7593 48.4073V46.1638H93.7593ZM89.3628 44.7295L89.3453 44.6746L89.2891 44.6334L89.1873 44.6084L89.0244 44.6034L88.8589 44.6084L88.754 44.6334L88.6997 44.6746L88.6847 44.7295V47.299C88.498 47.5312 88.3194 47.7067 88.1527 47.8266C87.986 47.9459 87.8174 48.0064 87.6482 48.0064C87.5183 48.0064 87.4034 47.9814 87.306 47.9309C87.208 47.8809 87.1268 47.8097 87.0631 47.7186C86.9988 47.6274 86.9513 47.5169 86.9207 47.387C86.8889 47.2571 86.8727 47.0848 86.8727 46.8706V44.7295L86.8571 44.6746L86.8028 44.6334L86.6979 44.6084L86.5343 44.6034L86.3713 44.6084L86.2651 44.6334L86.2108 44.6746L86.1958 44.7295V46.9605C86.1958 47.2272 86.2183 47.4538 86.2626 47.6405C86.3076 47.8272 86.3832 47.9896 86.4856 48.1301C86.5886 48.2705 86.7241 48.3823 86.8914 48.4641C87.0594 48.5459 87.2648 48.5865 87.5096 48.5865C87.7194 48.5865 87.9261 48.5334 88.1303 48.4273C88.3357 48.3211 88.5417 48.1519 88.7515 47.9203V48.4073L88.7628 48.4616L88.8096 48.5009L88.9039 48.5253L89.0569 48.5334L89.2017 48.5253L89.2979 48.5009L89.3484 48.4616L89.3628 48.4073V44.7295H89.3628ZM85.4515 44.8207L85.4434 44.737L85.4291 44.6908L85.3972 44.6508L85.3129 44.6109L85.1799 44.574L85.0394 44.5521L84.9189 44.5446C84.8403 44.5446 84.7622 44.5565 84.6842 44.5752C84.6067 44.5952 84.5287 44.632 84.4494 44.6857C84.3707 44.7388 84.287 44.8112 84.1984 44.9049C84.111 44.9973 84.0154 45.1166 83.9155 45.2639V44.7294L83.9018 44.6732L83.8537 44.632L83.7626 44.6083L83.6127 44.6021L83.4622 44.6083L83.3679 44.632L83.3192 44.6732L83.3073 44.7294V48.406L83.3211 48.4622L83.3741 48.4996L83.4784 48.5252L83.642 48.5334L83.8094 48.5252L83.9111 48.4996L83.9636 48.4622L83.9804 48.406V45.9876C84.076 45.8371 84.1628 45.711 84.2414 45.6074C84.3207 45.5037 84.3957 45.4213 84.4675 45.3588L84.6741 45.2234L84.8746 45.1828L85.0338 45.199L85.1656 45.2333L85.2717 45.2702L85.351 45.2889L85.4022 45.2702L85.434 45.2184L85.4496 45.121L85.4531 44.9705L85.4511 44.8206L85.4515 44.8207ZM82.2866 46.2861C82.2866 46.047 82.2566 45.8209 82.1954 45.6099C82.1336 45.3988 82.0375 45.2153 81.9082 45.0585C81.7777 44.9018 81.6097 44.7775 81.4074 44.6845C81.2045 44.5915 80.9585 44.5459 80.67 44.5459C80.4009 44.5459 80.158 44.5927 79.9394 44.6864C79.7234 44.7807 79.5367 44.9155 79.3831 45.091C79.2301 45.2671 79.1115 45.48 79.0303 45.7323C78.9491 45.9852 78.9073 46.2686 78.9073 46.5833C78.9073 46.9168 78.9472 47.2084 79.0272 47.4581C79.1046 47.7098 79.222 47.9177 79.3781 48.0826C79.5317 48.2499 79.724 48.3754 79.9507 48.4603C80.178 48.5446 80.4421 48.5865 80.7437 48.5865C80.9185 48.5865 81.0834 48.574 81.2363 48.5477C81.3906 48.5222 81.5254 48.4928 81.6422 48.4603C81.7583 48.4272 81.8539 48.3941 81.9269 48.3598L82.0599 48.2861L82.0968 48.2393L82.118 48.1837L82.1286 48.1144L82.1311 48.0226L82.1261 47.8978L82.1068 47.8184L82.0718 47.7753L82.0219 47.7616L81.8764 47.8034C81.8121 47.8328 81.729 47.864 81.6297 47.9002C81.5305 47.9352 81.4106 47.967 81.2745 47.9957C81.1377 48.0251 80.9822 48.0394 80.8074 48.0394C80.587 48.0394 80.3984 48.0076 80.2454 47.9445C80.0918 47.8827 79.9682 47.7922 79.872 47.6754C79.7759 47.558 79.7084 47.4182 79.6672 47.2546C79.6254 47.091 79.6054 46.9068 79.6054 46.7026H82.025L82.2067 46.6351C82.261 46.5908 82.2866 46.514 82.2866 46.4085V46.2861L82.2866 46.2861ZM79.6054 46.208C79.6123 46.0582 79.6372 45.9152 79.6841 45.7772C79.7297 45.6398 79.7965 45.5193 79.8801 45.4157C79.9663 45.312 80.0718 45.229 80.1961 45.1665C80.3222 45.1035 80.469 45.0729 80.6357 45.0729C80.9622 45.0729 81.2076 45.1734 81.3731 45.3751C81.5386 45.5768 81.6173 45.8546 81.6085 46.208H79.6054ZM73.2564 44.7294L73.2389 44.677L73.1871 44.6358L73.0853 44.6096L72.918 44.6033L72.7531 44.6096L72.6495 44.6358L72.597 44.677L72.582 44.7294V48.4072L72.597 48.4615L72.6495 48.5009L72.7531 48.5252L72.918 48.5334L73.0853 48.5252L73.1871 48.5009L73.2389 48.4615L73.2564 48.4072V44.7294ZM73.2458 43.1703C73.1877 43.1153 73.079 43.0866 72.9223 43.0866C72.7606 43.0866 72.6501 43.1153 72.5908 43.1728C72.5308 43.2302 72.5015 43.3376 72.5015 43.4944C72.5015 43.6511 72.5308 43.756 72.5883 43.8122C72.6469 43.8684 72.755 43.8959 72.9136 43.8959C73.0734 43.8959 73.1846 43.8678 73.2433 43.8097C73.3038 43.7529 73.3338 43.6448 73.3338 43.4875C73.3338 43.332 73.3051 43.2265 73.2458 43.1703ZM75.3282 44.6233V43.7485L75.3132 43.696L75.2601 43.6523L75.1571 43.6268L74.9897 43.618L74.828 43.6268L74.7231 43.6523L74.67 43.696L74.6563 43.7485V44.6233H74.1449L74.0875 44.6376L74.0432 44.6869L74.0175 44.7744L74.0063 44.9048C74.0063 45.0029 74.0194 45.0741 74.0432 45.1178L74.1424 45.1827H74.6563V47.3319C74.6563 47.5442 74.6751 47.7291 74.7156 47.8852C74.755 48.0425 74.8168 48.1718 74.9055 48.2742C74.9916 48.3753 75.1034 48.4521 75.2402 48.5027C75.3763 48.5527 75.538 48.5789 75.7297 48.5789L75.9176 48.5657L76.095 48.5352L76.243 48.4884L76.341 48.4247L76.3909 48.3223C76.4016 48.2779 76.4078 48.2161 76.4078 48.1368L76.399 48.0144L76.3797 47.937L76.3522 47.8983L76.3123 47.8865L76.2386 47.9058L76.1412 47.9452L76.0113 47.9839L75.844 48.0019C75.6504 48.0019 75.5168 47.9376 75.4412 47.8078C75.3663 47.6785 75.3282 47.4874 75.3282 47.2339V45.1827H77.2276V48.4072L77.2445 48.4615L77.2988 48.5008L77.4031 48.5252L77.5704 48.5334L77.7297 48.5252L77.8333 48.5008L77.8889 48.4615L77.9051 48.4072V44.8399L77.8602 44.6776C77.8302 44.6414 77.7734 44.6233 77.6928 44.6233H75.3282V44.6233ZM77.8945 43.1703C77.8358 43.1153 77.7284 43.0866 77.5704 43.0866C77.41 43.0866 77.2994 43.1153 77.2401 43.1728C77.1789 43.2302 77.1489 43.3376 77.1489 43.4943C77.1489 43.6511 77.1783 43.756 77.2376 43.8122C77.2963 43.8684 77.405 43.8958 77.5611 43.8958C77.7222 43.8958 77.8327 43.8678 77.8926 43.8097C77.9513 43.7528 77.9813 43.6448 77.9813 43.4875C77.9813 43.332 77.9532 43.2265 77.8945 43.1703ZM71.3582 42.9642L71.3407 42.9093L71.2845 42.8681L71.1827 42.8431L71.0154 42.8337L70.8543 42.8431L70.7487 42.8681L70.695 42.9093L70.6801 42.9642V45.1016C70.5058 44.9186 70.3298 44.78 70.1518 44.6863C69.9738 44.5927 69.7778 44.5458 69.563 44.5458C69.3039 44.5458 69.0766 44.5933 68.8793 44.6907C68.6826 44.7875 68.5165 44.9255 68.3816 45.1053C68.2499 45.2839 68.1487 45.5024 68.0806 45.7566C68.0132 46.012 67.9789 46.2961 67.9789 46.6126C67.9789 46.8793 68.0063 47.1328 68.0607 47.375C68.115 47.6161 68.2011 47.8259 68.3198 48.0032C68.4378 48.1824 68.592 48.3235 68.7831 48.429C68.9729 48.5339 69.2033 48.5864 69.4725 48.5864C69.7197 48.5864 69.947 48.5271 70.1562 48.4109C70.3641 48.2935 70.5652 48.1306 70.7581 47.9202V48.4066L70.7756 48.4634L70.8274 48.5028L70.923 48.5252L71.0641 48.5327L71.2027 48.5252L71.2945 48.5028L71.3438 48.4634L71.3582 48.4066V42.9642H71.3582ZM70.6801 47.2914C70.574 47.4244 70.4728 47.5374 70.3785 47.6286C70.2842 47.7197 70.1924 47.7934 70.105 47.8508C70.0176 47.9077 69.9333 47.9489 69.8503 47.9732C69.7666 47.9982 69.6804 48.0101 69.5918 48.0101C69.4138 48.0101 69.2671 47.9682 69.1491 47.8852C69.0335 47.8028 68.9386 47.691 68.8681 47.5549C68.7981 47.4169 68.7476 47.2602 68.7201 47.0828C68.6907 46.9055 68.677 46.7244 68.677 46.5384C68.677 46.3641 68.6932 46.1924 68.7288 46.0245C68.7631 45.8553 68.8162 45.7041 68.8918 45.5705C68.9667 45.4375 69.0629 45.3295 69.1815 45.2477C69.3026 45.1665 69.4481 45.1253 69.6198 45.1253C69.804 45.1253 69.9826 45.1853 70.1518 45.3033C70.3235 45.4219 70.4984 45.5943 70.6801 45.8203V47.2914L70.6801 47.2914ZM63.3938 44.8206L63.3845 44.7369L63.3714 44.6907L63.3389 44.6508L63.2552 44.6108L63.1222 44.5739L62.9817 44.5521L62.8606 44.5446C62.7819 44.5446 62.7045 44.5564 62.6258 44.5751C62.549 44.5951 62.471 44.632 62.3917 44.6857C62.313 44.7387 62.2293 44.8112 62.1406 44.9048C62.052 44.9972 61.9577 45.1165 61.8578 45.2639V44.7294L61.8434 44.6732L61.7959 44.632L61.7048 44.6082L61.5549 44.602L61.4044 44.6082L61.3102 44.632L61.2615 44.6732L61.249 44.7294V48.4059L61.2634 48.4621L61.3164 48.4996L61.4201 48.5251L61.5843 48.5333L61.7516 48.5251L61.8534 48.4996L61.9059 48.4621L61.9227 48.4059V45.9876C62.0182 45.8371 62.105 45.7109 62.1837 45.6073C62.263 45.5036 62.3379 45.4212 62.4097 45.3588L62.6158 45.2233L62.8162 45.1827L62.9761 45.1989L63.1072 45.2333L63.2134 45.2701L63.2933 45.2889L63.3439 45.2701L63.3757 45.2183L63.3913 45.1209L63.3958 44.9704L63.3938 44.8206L63.3938 44.8206ZM67.1833 46.286C67.1833 46.0456 67.1527 45.8202 67.0915 45.6086C67.0303 45.3981 66.9335 45.2146 66.803 45.0572C66.6738 44.9017 66.5064 44.7762 66.3035 44.6832C66.1012 44.592 65.8546 44.5446 65.5667 44.5446C65.2976 44.5446 65.0547 44.5927 64.8362 44.6857C64.6189 44.7793 64.4328 44.9142 64.2798 45.0897C64.1262 45.2658 64.0082 45.4799 63.927 45.7316C63.8452 45.9845 63.804 46.2673 63.804 46.5839C63.804 46.9161 63.8433 47.2077 63.9226 47.4581C64.0013 47.7085 64.1175 47.9164 64.2742 48.0831C64.4278 48.2504 64.6201 48.3741 64.8474 48.4596C65.0741 48.5433 65.3388 48.5857 65.6404 48.5857C65.8152 48.5857 65.9788 48.5726 66.1318 48.5464C66.2867 48.5208 66.4215 48.4921 66.5389 48.4596C66.6563 48.4271 66.7512 48.3934 66.8243 48.3591L66.9573 48.2866L66.9935 48.2379L67.0141 48.1842L67.0247 48.1149L67.0292 48.0219L67.0224 47.8982L67.0043 47.8177L66.9681 47.7746L66.9181 47.7609L66.7726 47.8028C66.7083 47.8327 66.6253 47.8646 66.526 47.9002C66.4267 47.9358 66.3087 47.9676 66.1713 47.9951C66.0346 48.0238 65.8791 48.0388 65.7043 48.0388C65.4826 48.0388 65.2946 48.0076 65.1417 47.9445C64.9881 47.8814 64.8644 47.7928 64.7689 47.6748C64.6727 47.5574 64.604 47.4181 64.5635 47.2539C64.5235 47.0897 64.5016 46.9067 64.5016 46.7026H66.9212L67.1036 46.6345C67.1573 46.5895 67.1835 46.514 67.1835 46.4078V46.2861L67.1833 46.286ZM64.5016 46.208C64.5079 46.0582 64.5341 45.9152 64.5803 45.7778C64.6265 45.6398 64.6927 45.5187 64.777 45.4144C64.8626 45.312 64.9681 45.2289 65.0942 45.1659C65.2197 45.1034 65.3646 45.0722 65.5332 45.0722C65.8579 45.0722 66.1045 45.1727 66.2693 45.3744C66.4354 45.5761 66.5141 45.854 66.5066 46.208H64.5016ZM60.448 48.3223L60.373 48.2099L58.8788 46.2686L60.2088 44.9373L60.2969 44.8231L60.3237 44.725L60.305 44.6657L60.2438 44.6289L60.132 44.6089L59.9609 44.6027L59.7929 44.6089L59.6724 44.6339L59.5844 44.6789L59.5151 44.7457L58.1276 46.2736V42.9474L58.1121 42.8906L58.0584 42.8487L57.9566 42.8256L57.7892 42.8162L57.6263 42.8256L57.5214 42.8487L57.4689 42.8906L57.4539 42.9474V48.4066L57.4689 48.4609L57.5214 48.4996L57.6263 48.5246L57.7892 48.5321L57.9566 48.5246L58.0584 48.4996L58.1121 48.4609L58.1276 48.4066V46.3679L59.6787 48.4028L59.733 48.4653L59.8135 48.5071L59.9341 48.5265L60.1151 48.5321L60.2906 48.5246L60.3986 48.4997L60.4536 48.4597L60.4704 48.4029L60.448 48.3223ZM56.6528 48.3223L56.5778 48.2099L55.0836 46.2686L56.4136 44.9374L56.5016 44.8231L56.5285 44.7251L56.5097 44.6658L56.4485 44.629L56.3368 44.609L56.1657 44.6027L55.9977 44.609L55.8772 44.634L55.7892 44.6789L55.7199 44.7457L54.3324 46.2737V42.9474L54.3168 42.8906L54.2631 42.8487L54.1614 42.8257L53.994 42.8163L53.831 42.8257L53.7261 42.8487L53.6737 42.8906L53.6587 42.9474V48.4066L53.6737 48.461L53.7261 48.4997L53.831 48.5247L53.994 48.5321L54.1614 48.5247L54.2631 48.4997L54.3168 48.461L54.3324 48.4066V46.3679L55.8835 48.4029L55.939 48.4653L56.0183 48.5072L56.1388 48.5266L56.3199 48.5322L56.4954 48.5247L56.6034 48.4997L56.6584 48.4597L56.6752 48.4029L56.6528 48.3223ZM51.0886 43.3483L51.0436 43.2728L50.9625 43.2253L50.8238 43.2035C50.7658 43.199 50.694 43.1966 50.6072 43.1966C50.5254 43.1966 50.4586 43.1991 50.4049 43.2035L50.2744 43.2253L50.1969 43.2703L50.1538 43.3439L48.383 48.2549L48.348 48.401L48.3761 48.4847L48.4823 48.5228C48.5335 48.529 48.5978 48.5328 48.6765 48.5328C48.7527 48.5328 48.8145 48.5303 48.8619 48.5253L48.9725 48.4984L49.0318 48.4535L49.0642 48.3891L49.497 47.1197H51.693L52.1457 48.4066L52.18 48.4678L52.2381 48.5072L52.3517 48.5266C52.4017 48.5316 52.4691 48.5328 52.554 48.5328C52.6383 48.5328 52.7052 48.5303 52.7564 48.5253L52.8638 48.4884L52.895 48.4041L52.86 48.2593L51.0886 43.3483L51.0886 43.3483ZM51.5088 46.5596H49.6724L50.5828 43.924H50.5858L51.5087 46.5596" fill="#FBF8ED"/>
<path d="M31.1539 9.5301C26.9722 7.21167 22.1106 7.76364 20.1668 8.28253C18.2249 8.80391 13.5967 10.5342 10.8306 14.5835C10.6564 14.8376 10.489 15.1011 10.3342 15.3702C10.2499 15.4988 10.1706 15.6275 10.0919 15.7567L12.3523 17.0511C14.3179 13.5032 18.0937 11.1261 20.7394 10.3293C23.4574 9.51262 27.5873 9.42208 31.2519 10.9875C34.7955 12.4161 36.9784 15.078 37.1464 15.2253C36.9909 15.0543 35.1745 11.7592 31.1539 9.5301ZM6.42975 11.891C7.37948 10.5335 8.04947 9.73241 8.04947 9.73241C12.2274 4.97066 17.5074 2.99377 20.5676 2.45741C23.6285 1.92166 30.4571 1.25542 36.6593 4.98502C43.0851 8.85449 45.5103 13.6631 45.7576 14.1052C45.5547 13.6743 43.9262 9.27534 38.4414 4.82517C32.9503 0.376246 25.3257 -0.555374 20.2754 0.272594C15.2252 1.10244 7.5412 4.7109 3.5918 11.502C3.5425 11.5907 3.49565 11.6743 3.44507 11.7624L5.67671 13.0549C5.91211 12.664 6.16313 12.275 6.42975 11.891ZM34.3134 6.79706C29.2195 3.39714 23.0953 3.62131 20.2461 4.2582C17.4406 4.88324 12.873 6.35435 9.11596 10.5223C9.00232 10.6522 8.89492 10.7852 8.78065 10.9157L8.70135 11.0118L10.7038 12.6728C13.6436 9.18792 17.4568 7.10739 20.7575 6.30939C24.1149 5.49516 29.897 5.74493 34.4558 8.38805C38.9715 10.7677 41.3205 14.6746 41.4642 14.8001C41.2843 14.5298 39.4055 10.2001 34.3134 6.79706Z" fill="#D5E7F1"/>
<path d="M31.1539 39.2345C26.9722 41.553 22.1106 40.9991 20.1668 40.4821C18.2249 39.9595 13.5967 38.2274 10.8306 34.1831C10.6564 33.9283 10.489 33.6686 10.3342 33.3963C10.2499 33.2689 10.1706 33.1384 10.0919 33.0104L12.3523 31.7179C14.3179 35.2633 18.0937 37.6398 20.7394 38.4341C23.4574 39.252 27.5873 39.3419 31.2519 37.7747C34.7955 36.3485 36.9784 33.6885 37.1464 33.5412C36.9909 33.7116 35.1745 37.0048 31.1539 39.2345ZM6.42975 36.8724C7.37948 38.2305 8.04947 39.0329 8.04947 39.0329C12.2274 43.7934 17.5074 45.7709 20.5676 46.3054C23.6285 46.8399 30.4571 47.508 36.6593 43.7784C43.0851 39.9108 45.5103 35.1041 45.7576 34.6639C45.5547 35.0928 43.9262 39.4893 38.4414 43.9357C32.9503 48.3884 25.3257 49.3188 20.2754 48.4908C15.2252 47.6616 7.5412 44.05 3.5918 37.2633C3.5425 37.1734 3.49565 37.0884 3.44507 37.001L5.67671 35.7104C5.91211 36.1025 6.16313 36.489 6.42975 36.8724ZM34.3134 41.9657C29.2195 45.3663 23.0953 45.1421 20.2461 44.5064C17.4406 43.882 12.873 42.4109 9.11596 38.2399C9.00232 38.1131 8.89492 37.9776 8.78065 37.8471L8.70135 37.7541L10.7038 36.0906C13.6436 39.5761 17.4568 41.6554 20.7575 42.4546C24.1149 43.2695 29.897 43.0203 34.4558 40.3766C38.9715 37.9963 41.3205 34.0932 41.4642 33.9664C41.2843 34.2405 39.4055 38.5658 34.3134 41.9657Z" fill="#D5E7F1"/>
<path d="M9.74725 13.9409L7.61426 12.4529L7.52872 12.5803L7.52058 12.5928C5.20214 15.969 3.87527 20.0445 3.8915 24.3842C3.87527 28.7226 5.20214 32.7969 7.52058 36.1724L7.52872 36.1843L7.61426 36.3123L9.74725 34.8249C7.67108 31.8452 6.47347 28.2355 6.48408 24.3841C6.47344 20.5322 7.67108 16.9206 9.74725 13.9409" fill="#82A2AF"/>
<path d="M4.31242 33.0242C3.18348 30.3542 2.57718 27.4326 2.59279 24.3842C2.57721 21.3327 3.18348 18.4155 4.31242 15.7436L4.31806 15.7299C4.48728 15.3265 4.67585 14.9188 4.87941 14.5104L2.56534 13.3865C2.31558 13.8848 2.08392 14.3749 1.88036 14.867L1.86353 14.9057L1.77923 15.1049L1.77973 15.0986C0.61958 17.9796 -0.0116989 21.1204 0.000164904 24.3842C-0.0117239 27.6455 0.61958 30.7869 1.77973 33.6686L1.77923 33.6641L1.86353 33.8589L1.88036 33.9008C2.08392 34.3915 2.31558 34.8823 2.56534 35.3787L4.87941 34.2567C4.67585 33.8464 4.48728 33.4399 4.31806 33.0359L4.31242 33.0241" fill="#FBF8ED"/>
<path d="M11.3764 29.7011C10.7251 28.047 10.3673 26.2524 10.3786 24.3842C10.3673 22.5141 10.7251 20.7202 11.3764 19.0674L11.3719 19.0654C11.4824 18.7862 11.601 18.5059 11.7322 18.223L9.36253 17.1384C9.19394 17.5043 9.04345 17.8665 8.90796 18.2243L8.90296 18.2233L8.83428 18.4175L8.80495 18.4949H8.80595C8.13221 20.34 7.77255 22.3269 7.78691 24.3843C7.77253 26.4386 8.13221 28.4268 8.80595 30.2719H8.80495L8.83428 30.3499L8.90296 30.5429L8.90796 30.5409C9.04345 30.8999 9.19394 31.2652 9.36253 31.628L11.7322 30.5428C11.601 30.2618 11.4824 29.9814 11.3719 29.7036L11.3764 29.7011Z" fill="#82A2AF"/>
</svg>
