<svg width="90" height="50" viewBox="0 0 90 50" fill="none" xmlns="http://www.w3.org/2000/svg">
<path fill-rule="evenodd" clip-rule="evenodd" d="M8.97461 37.5563C8.97461 38.3865 8.59757 38.8383 7.91871 38.8383H6.25964V41.6285H24.2837V33.0318H21.7949C21.7949 38.1599 20.2867 38.8388 17.4208 38.8388H14.1027V32.2778H15.7618C16.7425 32.2778 17.1195 33.7107 17.1195 34.9175V35.6716H19.3065V26.0937H17.1195V26.7721C17.1195 28.733 16.5163 29.4871 14.9325 29.4871H14.1027V23.454H16.8177C20.2867 23.454 21.7954 24.1324 21.7954 28.6573H24.2842V20.6638H6.25964V23.4545H7.91871C8.59757 23.4545 8.97461 23.9067 8.97461 24.736V37.5563Z" fill="#D5E7F1"/>
<path fill-rule="evenodd" clip-rule="evenodd" d="M34.5401 20.6638H25.792V23.4545H27.4511C28.1294 23.4545 28.507 23.9067 28.507 24.736V37.5563C28.507 38.3865 28.1299 38.8383 27.4511 38.8383H25.792V41.6285H34.163V38.8383H32.5039C31.8251 38.8383 31.448 38.3865 31.448 37.5563V26.0181H31.5237L39.065 41.629H44.5701V24.736C44.5701 23.9067 44.9477 23.4545 45.6265 23.4545H47.2851V20.6638H38.9141V23.4545H40.5731C41.252 23.4545 41.629 23.9067 41.629 24.736V35.0684H41.5538L34.5401 20.6638ZM53.3939 20.6638L48.8685 36.5014C48.3415 38.387 47.964 38.8388 46.9838 38.8388H46.0783V41.629H54.0728V38.8388H53.2435C52.5646 38.8388 51.5839 38.7636 51.5839 38.2352C51.5839 37.7834 51.6591 37.3306 51.9614 36.1991L52.338 34.918H57.8431L58.4468 37.2554C58.522 37.7072 58.5972 38.0095 58.5972 38.387C58.5972 38.6884 57.9184 38.8388 57.0891 38.8388H56.2598V41.629H66.2142V38.8388H65.234C64.3285 38.8388 63.9519 38.387 63.3483 36.5014L58.8238 20.6638H53.3939ZM55.053 25.3392L57.0139 32.2021H53.0921L55.053 25.3392Z" fill="#FBF8ED"/>
<path fill-rule="evenodd" clip-rule="evenodd" d="M80.4669 22.172C79.2611 20.8143 76.32 20.0602 74.9627 20.0602C69.7585 20.0602 65.7615 24.4342 65.7615 31.1462C65.7615 38.537 69.7585 42.2322 75.3393 42.2322C80.3917 42.2322 83.3338 39.442 83.409 33.635H80.9197C80.9197 36.5761 79.3363 39.2911 76.5456 39.2911C72.6991 39.2911 71.6437 36.1234 71.6437 31.1462C71.6437 25.4901 73.3023 23.0018 76.3195 23.0018C79.3358 23.0018 80.9192 25.7167 80.9192 28.9596H83.4085V20.362H80.9949L80.4669 22.172Z" fill="#D5E7F1"/>
<path fill-rule="evenodd" clip-rule="evenodd" d="M0 49.8491H2.79066V48.8693H0.829771V47.285H2.63975V46.3048H0.829771V44.9471H2.71544V43.9673H0V49.8491ZM4.29881 45.7768H3.46904V49.8495H4.37403V47.3602C4.37403 46.7566 4.60016 46.4557 4.82629 46.4557C5.27854 46.4557 5.35424 46.9084 5.35424 47.3602V49.8495H6.18401V47.2098V46.5309C6.0331 45.9273 5.50515 45.6264 5.20333 45.6264C4.75107 45.6264 4.52447 45.8525 4.37403 46.2301H4.29834V45.7768H4.29881ZM6.56152 45.7768V46.5309H7.16517V48.567C7.16517 49.4715 7.3156 50 7.99446 50C8.07015 50 8.52241 49.9247 8.5981 49.8495V49.1707H8.3715C8.07015 49.1707 7.99446 49.0202 7.99446 48.4918V46.5309H8.67332V45.7768H7.99446V44.4948L7.16517 44.9476V45.7768H6.56152ZM9.12558 49.8491H10.0306V45.7012H9.12558V49.8491ZM9.12558 45.0228H10.0306V43.9673H9.12558V45.0228ZM11.4635 47.8129C11.4635 47.1341 11.5387 46.4552 12.0671 46.4552C12.5194 46.4552 12.6703 47.2093 12.6703 47.8129C12.6703 48.3409 12.5194 49.1707 12.0671 49.1707C11.5387 49.1707 11.4635 48.4166 11.4635 47.8129ZM12.6698 46.2296C12.5189 45.8521 12.2171 45.6259 11.9158 45.6259C11.0112 45.6259 10.5585 46.6814 10.5585 47.8129C10.5585 48.8693 11.0112 50 11.8405 50C12.2176 50 12.5194 49.7738 12.6703 49.2459C12.6703 49.472 12.6703 49.6986 12.7455 49.8495H13.5753V43.9678H12.6703V46.2296H12.6698ZM15.7618 47.8882C15.7618 48.4161 15.7618 49.1702 15.3096 49.1702C15.0835 49.1702 14.8573 48.9441 14.8573 48.5666C14.8569 47.8882 15.4605 47.8882 15.7618 47.8882ZM15.0078 46.9084C15.0078 46.6814 15.0835 46.3048 15.3848 46.3048C15.6866 46.3048 15.7618 46.6814 15.7618 46.8327V47.2093C15.4605 47.2093 15.0078 47.2093 14.6307 47.4354C14.1785 47.7377 14.0276 48.4166 14.0276 48.7175C14.0276 49.5468 14.4803 49.9995 15.0078 49.9995C15.3848 49.9995 15.6866 49.7734 15.8375 49.3206C15.8375 49.4711 15.9132 49.6981 15.9132 49.8486H16.6673C16.6673 49.7734 16.5921 49.6224 16.5921 49.3958V47.1336C16.5921 45.9268 15.9884 45.6255 15.3853 45.6255C15.0839 45.6255 14.7821 45.7007 14.556 45.8516C14.3294 46.0777 14.1789 46.3795 14.1789 46.908H15.0078V46.9084ZM18.0998 47.8129C18.0998 47.1341 18.175 46.4552 18.7029 46.4552C19.1557 46.4552 19.3066 47.2093 19.3066 47.8129C19.3066 48.3409 19.1557 49.1707 18.7029 49.1707C18.175 49.1707 18.0998 48.4166 18.0998 47.8129ZM19.3066 46.2296C19.1557 45.8521 18.8538 45.6259 18.5525 45.6259C17.6475 45.6259 17.1948 46.6814 17.1948 47.8129C17.1948 48.8693 17.5718 50 18.4016 50C18.7786 50 19.0804 49.7738 19.3066 49.2459V49.8495H20.2116C20.1363 49.6234 20.1363 49.3216 20.1363 49.0202V43.9678H19.3066V46.2296ZM26.0938 49.8491V43.9673H25.264V48.567L23.6806 43.9673H22.3981V49.8491H23.2279V44.9471L24.8117 49.8491H26.0938ZM28.356 47.8882C28.356 48.4161 28.356 49.1702 27.9032 49.1702C27.6766 49.1702 27.451 48.9441 27.451 48.5666C27.4515 47.8882 28.0546 47.8882 28.356 47.8882ZM27.6019 46.9084C27.6019 46.6814 27.6771 46.3048 27.9789 46.3048C28.2808 46.3048 28.356 46.6814 28.356 46.8327V47.2093C28.0542 47.2093 27.6019 47.2093 27.2249 47.4354C26.7726 47.7377 26.6217 48.4166 26.6217 48.7175C26.6217 49.5468 27.0744 49.9995 27.6019 49.9995C27.9789 49.9995 28.2808 49.7734 28.4317 49.3206H28.5074V49.8486H29.2614V47.1336C29.2614 45.9268 28.5826 45.6255 27.9794 45.6255C27.6776 45.6255 27.3763 45.7007 27.1501 45.8516C26.9235 46.0777 26.7731 46.3795 26.7731 46.908H27.6019V46.9084ZM32.2778 47.2093C32.2778 46.2291 31.7498 45.6259 30.9957 45.6259C30.166 45.6259 29.7889 46.6814 29.7889 47.8129C29.7889 48.8693 30.166 50 30.9957 50C31.825 50 32.2778 49.3963 32.2778 48.3414H31.448C31.448 48.7179 31.3728 49.1707 30.9957 49.1707C30.6939 49.1707 30.6939 48.1143 30.6187 47.7377C30.6187 47.4354 30.6944 46.4557 30.9957 46.4557C31.3728 46.4557 31.448 46.8332 31.448 47.2098H32.2778V47.2093ZM32.8057 49.8491H33.635V45.7012H32.8057V49.8491ZM32.73 45.0228H33.6345V43.9673H32.73V45.0228ZM37.1797 47.8129C37.1797 46.5309 36.6518 45.6259 35.7468 45.6259C34.7661 45.6259 34.2386 46.5304 34.2386 47.8129C34.2386 49.0955 34.7666 50 35.7468 50C36.6518 50 37.1797 49.095 37.1797 47.8129ZM35.1432 47.8129C35.1432 47.1341 35.2188 46.4552 35.7468 46.4552C36.2747 46.4552 36.35 47.1341 36.35 47.8129C36.35 48.4918 36.2747 49.1707 35.7468 49.1707C35.2188 49.1707 35.1432 48.4918 35.1432 47.8129ZM38.6879 45.7768H37.8581V49.8495H38.6879V47.3602C38.6879 46.7566 38.914 46.4557 39.2158 46.4557C39.5929 46.4557 39.6681 46.9084 39.6681 47.3602V49.8495H40.5731V47.2098C40.5731 47.0593 40.4979 46.757 40.4979 46.5309C40.4227 45.9273 39.819 45.6264 39.5177 45.6264C39.1406 45.6264 38.8388 45.8525 38.6879 46.2301V45.7768ZM42.8358 47.8882C42.8358 48.4161 42.8358 49.1702 42.3831 49.1702C42.1569 49.1702 41.9303 48.9441 41.9303 48.5666C41.9308 47.8882 42.534 47.8882 42.8358 47.8882ZM42.0812 46.9084C42.0812 46.6814 42.1569 46.3048 42.4583 46.3048C42.7596 46.3048 42.8353 46.6814 42.8353 46.8327V47.2093C42.5335 47.2093 42.0812 47.2093 41.7794 47.4354C41.2515 47.7377 41.1758 48.4166 41.1758 48.7175C41.1758 49.5468 41.5528 49.9995 42.0808 49.9995C42.4578 49.9995 42.7596 49.7734 42.9105 49.3206H42.9858V49.8486H43.7398V47.1336C43.7398 45.9268 43.061 45.6255 42.5335 45.6255C42.1565 45.6255 41.9299 45.7007 41.6285 45.8516C41.4024 46.0777 41.2515 46.3795 41.2515 46.908H42.0812V46.9084ZM44.4196 49.8491H45.2489V43.9673H44.4196V49.8491ZM48.3414 47.8129C48.3414 47.1341 48.4166 46.4552 48.9441 46.4552C49.3968 46.4552 49.5478 47.2093 49.5478 47.8129C49.5478 48.3409 49.3973 49.1707 48.9441 49.1707C48.4166 49.1707 48.3414 48.4166 48.3414 47.8129ZM49.5473 46.2296C49.3968 45.8521 49.0955 45.6259 48.7932 45.6259C47.8887 45.6259 47.4355 46.6814 47.4355 47.8129C47.4355 48.8693 47.813 50 48.6423 50C49.0189 50 49.3212 49.7738 49.5468 49.2459V49.8495H50.4523C50.3761 49.6234 50.3761 49.3216 50.3761 49.0202V43.9678H49.5468V46.2296H49.5473ZM53.6952 48.1143C53.6952 47.8882 53.6952 47.5873 53.62 47.3602C53.62 47.0589 53.5447 46.8332 53.4695 46.6061C53.2434 45.8521 52.7907 45.6259 52.2627 45.6259C51.4334 45.6259 50.905 46.5304 50.905 47.8129C50.905 49.1707 51.2825 50 52.2627 50C52.9416 50 53.4695 49.6234 53.5447 48.6422H52.7907C52.7155 49.0198 52.5645 49.1702 52.2627 49.1702C51.8109 49.1702 51.8109 48.6422 51.8109 48.1138H53.6952V48.1143ZM51.8105 47.285C51.8105 46.8332 51.8857 46.4557 52.2622 46.4557C52.715 46.4557 52.7902 46.8332 52.7902 47.285H51.8105ZM56.3349 49.8491L56.6363 48.6422H58.2206L58.5219 49.8491H59.4265L57.9935 43.9673H56.9381L55.5052 49.8491H56.3349ZM56.8629 47.5868L57.4665 45.0975L57.9935 47.5868H56.8629ZM62.2166 47.2093C62.2166 46.2291 61.6896 45.6259 60.9356 45.6259C60.1053 45.6259 59.6535 46.6814 59.6535 47.8129C59.6535 48.8693 60.1053 50 60.9356 50C61.7649 50 62.2166 49.3963 62.2166 48.3414H61.3873C61.3873 48.7179 61.3121 49.1707 60.9356 49.1707C60.558 49.1707 60.558 48.1143 60.558 47.7377C60.558 47.4354 60.558 46.4557 60.9356 46.4557C61.2369 46.4557 61.3873 46.8332 61.3873 47.2098H62.2166V47.2093ZM62.6698 45.7768V49.8495H63.4991V47.8134C63.4991 47.5111 63.4991 47.2855 63.6496 47.0593C63.7257 46.9089 63.8767 46.8332 64.0271 46.757H64.4046V45.7016C63.9519 45.7016 63.6496 45.8521 63.4234 46.4557V45.7768H62.6698ZM67.4961 48.1143V47.3602C67.4961 47.0589 67.4209 46.8332 67.3457 46.6061C67.1186 45.8521 66.6668 45.6259 66.1389 45.6259C65.3096 45.6259 64.7812 46.5304 64.7812 47.8129C64.7812 49.1707 65.1587 50 66.1389 50C66.8177 50 67.3457 49.6234 67.4209 48.6422H66.6668C66.5916 49.0198 66.4398 49.1702 66.1389 49.1702C65.6862 49.1702 65.6862 48.6422 65.6862 48.1138H67.4961V48.1143ZM65.6857 47.285C65.6857 46.8332 65.7609 46.4557 66.1384 46.4557C66.5911 46.4557 66.6664 46.8332 66.6664 47.285H65.6857ZM68.7786 47.8129C68.7786 47.1341 68.8539 46.4552 69.3823 46.4552C69.8341 46.4552 69.985 47.2093 69.985 47.8129C69.985 48.3409 69.8345 49.1707 69.3823 49.1707C68.8539 49.1707 68.7786 48.4166 68.7786 47.8129ZM69.9845 46.2296C69.8341 45.8521 69.5327 45.6259 69.2304 45.6259C68.4011 45.6259 67.9484 46.6814 67.9484 47.8129C67.9484 48.8693 68.3259 50 69.1552 50C69.5327 50 69.8341 49.7738 69.9845 49.2459H70.0607V49.8495H70.89V43.9678H69.9845V46.2296ZM71.4936 49.8491H72.3981V45.7012H71.4936V49.8491ZM71.4936 45.0228H72.3981V43.9673H71.4936V45.0228ZM72.6995 45.7768V46.5309H73.3031V48.567C73.3031 49.4715 73.4535 50 74.1324 50C74.2086 50 74.6603 49.9247 74.8113 49.8495V49.1707H74.5099C74.2086 49.1707 74.1324 49.0202 74.1324 48.4918V46.5309H74.8113V45.7768H74.1324V44.4948L73.3031 44.9476V45.7768H72.6995ZM76.8474 47.8882C76.8474 48.4161 76.8474 49.1702 76.3956 49.1702C76.1685 49.1702 76.0181 48.9441 76.0181 48.5666C76.0181 47.8882 76.6212 47.8882 76.8474 47.8882ZM76.0933 46.9084C76.0933 46.6814 76.1685 46.3048 76.4708 46.3048C76.7721 46.3048 76.8474 46.6814 76.8474 46.8327V47.2093C76.546 47.2093 76.0933 47.2093 75.7919 47.4354C75.264 47.7377 75.1883 48.4166 75.1883 48.7175C75.1883 49.5468 75.5649 49.9995 76.0928 49.9995C76.4703 49.9995 76.7717 49.7734 76.9973 49.3206V49.8486H77.7523V47.1336C77.7523 45.9268 77.0735 45.6255 76.5455 45.6255C76.2432 45.6255 75.9419 45.7007 75.7162 45.8516C75.4892 46.0777 75.2635 46.3795 75.2635 46.908H76.0933V46.9084ZM80.7691 47.2093C80.7691 46.2291 80.2412 45.6259 79.5623 45.6259C78.733 45.6259 78.2803 46.6814 78.2803 47.8129C78.2803 48.8693 78.733 50 79.5623 50C80.3164 50 80.7691 49.3963 80.7691 48.3414H79.9398C79.9398 48.7179 79.8646 49.1707 79.5623 49.1707C79.1858 49.1707 79.1858 48.1143 79.1858 47.7377C79.1858 47.4354 79.1858 46.4557 79.5623 46.4557C79.8646 46.4557 79.9398 46.8332 79.9398 47.2098H80.7691V47.2093ZM81.2971 49.8491H82.1264V45.7012H81.2971V49.8491ZM81.2219 45.0228H82.1264V43.9673H81.2219V45.0228ZM84.3891 43.9673L83.8611 45.098H84.3139L85.1432 43.9673H84.3891ZM85.7463 47.8129C85.7463 46.5309 85.1427 45.6259 84.2382 45.6259C83.3337 45.6259 82.73 46.5304 82.73 47.8129C82.73 49.0955 83.3337 50 84.2382 50C85.1427 50 85.7463 49.095 85.7463 47.8129ZM83.635 47.8129C83.635 47.1341 83.7102 46.4552 84.2387 46.4552C84.7671 46.4552 84.8423 47.1341 84.8423 47.8129C84.8423 48.4918 84.7671 49.1707 84.2387 49.1707C83.7102 49.1707 83.635 48.4918 83.635 47.8129ZM87.1793 45.7768H86.35V49.8495H87.1793V47.3602C87.1793 46.7566 87.4054 46.4557 87.7072 46.4557C88.0838 46.4557 88.159 46.9084 88.2352 47.3602V49.8495H89.0645V47.2098C89.0645 47.0593 89.0645 46.757 88.9893 46.5309C88.9131 45.9273 88.3104 45.6264 88.0838 45.6264C87.632 45.6264 87.3297 45.8525 87.1793 46.2301V45.7768Z" fill="#FBF8ED"/>
<path fill-rule="evenodd" clip-rule="evenodd" d="M42.7601 0H43.6651V0.980682H44.5701V1.81045H43.6651V2.71544H42.7601V1.81045H41.8551V0.980682H42.7601V0ZM32.8057 9.72874C32.8033 8.81695 32.9811 7.91368 33.329 7.07083C33.6768 6.22799 34.1877 5.46219 34.8325 4.81746C35.4772 4.17272 36.243 3.66175 37.0859 3.31393C37.9287 2.9661 38.832 2.78827 39.7438 2.79066C40.9506 2.79066 42.1569 3.09248 43.1371 3.69565C44.193 3.09248 45.3241 2.79066 46.6062 2.79066C50.4527 2.79066 53.5442 5.88266 53.5442 9.72874C53.5442 11.3878 52.9406 12.896 52.0361 14.1028H47.4355C49.4716 13.7257 51.0554 11.9158 51.0554 9.72874C51.0554 7.3156 49.0193 5.27902 46.6062 5.27902C45.7769 5.27902 45.0228 5.50562 44.3439 5.88266C46.0782 6.41061 47.3602 7.99446 47.3602 9.87965C47.3602 12.2176 45.4746 14.1028 43.2128 14.1028C42.658 14.1037 42.1084 13.9951 41.5956 13.7832C41.0828 13.5713 40.6169 13.2603 40.2245 12.8679C39.8322 12.4756 39.5211 12.0097 39.3092 11.4969C39.0973 10.9841 38.9888 10.4345 38.9897 9.87965C38.9897 7.99446 40.2717 6.41061 42.006 5.88266C41.3271 5.50562 40.5731 5.27902 39.7438 5.27902C37.2549 5.27902 35.294 7.31512 35.294 9.72874C35.294 11.9158 36.8779 13.7257 38.914 14.1028H34.3138C33.3336 12.896 32.8057 11.3878 32.8057 9.72874ZM41.4028 9.87965C41.4028 10.8599 42.2321 11.6896 43.2128 11.6896C44.193 11.6896 44.9476 10.8599 44.9476 9.87965C44.9476 8.89897 44.193 8.14489 43.2128 8.14489C42.2321 8.14489 41.4028 8.89897 41.4028 9.87965ZM34.2381 15.6866H52.0361V18.1755H34.2381V15.6866Z" fill="#FBF8ED"/>
</svg>
