<svg width="249" height="59" viewBox="0 0 249 59" fill="none" xmlns="http://www.w3.org/2000/svg">
<path d="M16.5039 23.4883L11.7432 38.2588L7.00684 23.4883H0L8.34961 48H14.2578L18.9941 34.0107L23.7549 48H29.6387L37.9883 23.4883H31.0059L26.2451 38.2588L21.5088 23.4883H16.5039ZM64.7217 37.9902L64.9658 35.2559C64.9658 31.7646 63.7939 28.8594 61.4746 26.5156C59.1309 24.1719 56.2256 23 52.7344 23C49.2188 23 46.2158 24.2695 43.7256 26.7598C41.2109 29.25 39.9658 32.2529 39.9658 35.7441C39.9658 39.2598 41.2354 42.2627 43.7744 44.7529C46.3135 47.2432 49.3652 48.4883 52.9785 48.4883C54.248 48.4883 55.4688 48.3418 56.665 48.0488C57.8613 47.7559 58.8379 47.4385 59.5947 47.0479C60.3271 46.6572 61.0352 46.2178 61.7188 45.7295C62.3779 45.2412 62.8174 44.8994 63.0127 44.7041L63.4766 44.2402L59.9854 39.748L59.2773 40.5049C58.8379 41.0176 58.0566 41.5303 56.9824 42.0186C55.9082 42.5068 54.7363 42.751 53.4668 42.751C51.709 42.751 50.2441 42.3115 49.0967 41.3838C47.9248 40.4561 47.2168 39.333 46.9727 37.9902H64.7217ZM52.7344 28.7617C54.1504 28.7617 55.3711 29.2012 56.3477 30.0312C57.3242 30.8857 57.959 31.96 58.2275 33.2539H46.9727C47.3633 31.9355 48.0713 30.8369 49.0723 30.0068C50.0732 29.1768 51.2939 28.7617 52.7344 28.7617ZM76.001 34.2549C73.7305 34.6455 71.9971 35.4512 70.8008 36.6719C69.5801 37.8926 68.9941 39.5039 68.9941 41.5059C68.9941 43.3369 69.7998 44.9482 71.4355 46.3643C73.0713 47.7803 75.0977 48.4883 77.4902 48.4883C78.4424 48.4883 79.3701 48.3662 80.2734 48.0977C81.1768 47.8535 81.9092 47.5605 82.4707 47.2188C83.0078 46.877 83.5205 46.5107 84.0088 46.0713C84.4971 45.6318 84.79 45.3389 84.9365 45.168C85.083 44.9971 85.1807 44.8506 85.2539 44.7529V48H88.7451V32.7412C88.7451 30.1289 87.8418 27.9316 86.0352 26.1494C84.2285 24.3916 81.9824 23.4883 79.248 23.4883C78.1738 23.4883 77.0996 23.6592 76.0742 23.9766C75.0488 24.2939 74.2188 24.6602 73.584 25.0508C72.9492 25.4658 72.3389 25.9297 71.7529 26.4424C71.167 26.9551 70.8008 27.3213 70.6299 27.5166C70.459 27.7119 70.3369 27.8828 70.2393 28.0049L72.4854 30.251L73.2422 29.3965C73.7305 28.8105 74.5361 28.2246 75.6592 27.6387C76.7822 27.0527 77.9785 26.7598 79.248 26.7598C81.0059 26.7598 82.4463 27.3213 83.5693 28.4199C84.6924 29.543 85.2539 30.9834 85.2539 32.7412L76.001 34.2549ZM77.4902 45.2412C75.9277 45.2412 74.6826 44.8994 73.8037 44.1914C72.9248 43.4834 72.4854 42.5801 72.4854 41.5059C72.4854 39.2598 73.999 37.8438 77.002 37.2578L85.2539 35.7441V37.2578C85.2539 39.626 84.5215 41.5547 83.0566 43.0195C81.5918 44.5088 79.7363 45.2412 77.4902 45.2412ZM94.9707 35.9883C94.9707 39.4551 96.1426 42.4092 98.5107 44.8506C100.854 47.292 103.687 48.4883 106.958 48.4883C108.13 48.4883 109.277 48.3174 110.4 47.9512C111.523 47.585 112.451 47.1943 113.159 46.7549C113.892 46.3154 114.575 45.8271 115.21 45.2656C115.869 44.7041 116.309 44.3135 116.504 44.0693C116.699 43.8252 116.846 43.6543 116.943 43.5078L114.453 41.2617L113.647 42.2383C113.086 42.9219 112.183 43.5811 110.938 44.2402C109.668 44.9238 108.35 45.2412 106.958 45.2412C104.663 45.2412 102.661 44.3623 100.977 42.5801C99.292 40.7979 98.4619 38.6006 98.4619 36.0127C98.4619 33.4248 99.292 31.2275 100.977 29.4453C102.661 27.6631 104.663 26.7598 106.958 26.7598C107.861 26.7598 108.74 26.9062 109.57 27.1748C110.4 27.4678 111.06 27.7852 111.597 28.127C112.109 28.4688 112.598 28.8838 113.037 29.3477C113.477 29.8359 113.77 30.1533 113.892 30.3242C114.038 30.5195 114.136 30.6416 114.185 30.7393L116.699 28.249L115.649 27.1016C114.966 26.3203 113.794 25.5146 112.183 24.709C110.571 23.9033 108.813 23.4883 106.934 23.4883C103.687 23.4883 100.879 24.709 98.5107 27.1504C96.1426 29.5918 94.9707 32.5215 94.9707 35.9883ZM120.703 35.9883C120.703 39.4551 121.875 42.4092 124.243 44.8506C126.587 47.292 129.419 48.4883 132.69 48.4883C133.862 48.4883 135.01 48.3174 136.133 47.9512C137.256 47.585 138.184 47.1943 138.892 46.7549C139.624 46.3154 140.308 45.8271 140.942 45.2656C141.602 44.7041 142.041 44.3135 142.236 44.0693C142.432 43.8252 142.578 43.6543 142.676 43.5078L140.186 41.2617L139.38 42.2383C138.818 42.9219 137.915 43.5811 136.67 44.2402C135.4 44.9238 134.082 45.2412 132.69 45.2412C130.396 45.2412 128.394 44.3623 126.709 42.5801C125.024 40.7979 124.194 38.6006 124.194 36.0127C124.194 33.4248 125.024 31.2275 126.709 29.4453C128.394 27.6631 130.396 26.7598 132.69 26.7598C133.594 26.7598 134.473 26.9062 135.303 27.1748C136.133 27.4678 136.792 27.7852 137.329 28.127C137.842 28.4688 138.33 28.8838 138.77 29.3477C139.209 29.8359 139.502 30.1533 139.624 30.3242C139.771 30.5195 139.868 30.6416 139.917 30.7393L142.432 28.249L141.382 27.1016C140.698 26.3203 139.526 25.5146 137.915 24.709C136.304 23.9033 134.546 23.4883 132.666 23.4883C129.419 23.4883 126.611 24.709 124.243 27.1504C121.875 29.5918 120.703 32.5215 120.703 35.9883ZM160.693 23.4883H159.692C158.643 23.4883 157.642 23.6348 156.714 23.9033C155.786 24.1719 155.029 24.4648 154.468 24.8066C153.906 25.1484 153.394 25.5146 152.905 25.9541C152.417 26.3936 152.1 26.6865 151.978 26.8574C151.831 27.0283 151.733 27.1748 151.685 27.2725V24.0254H148.193V48.0244H151.685V34.7676C151.685 32.4727 152.417 30.5928 153.882 29.1768C155.347 27.7363 157.104 27.0283 159.18 27.0283H160.693V23.4883ZM186.67 37.3066L186.914 35.5C186.914 32.0332 185.815 29.1768 183.618 26.9062C181.421 24.6357 178.687 23.4883 175.415 23.4883C172.241 23.4883 169.507 24.709 167.163 27.1504C164.819 29.5918 163.672 32.5215 163.672 35.9883C163.672 39.4551 164.844 42.4092 167.212 44.8506C169.556 47.292 172.388 48.4883 175.659 48.4883C176.855 48.4883 178.027 48.3174 179.175 47.9512C180.322 47.585 181.25 47.1943 181.982 46.7549C182.715 46.3154 183.374 45.8271 184.009 45.2656C184.644 44.7041 185.034 44.3135 185.229 44.0693C185.425 43.8252 185.571 43.6543 185.669 43.5078L183.423 41.2617L182.568 42.2383C182.031 42.9219 181.104 43.5811 179.834 44.2402C178.54 44.9238 177.148 45.2412 175.659 45.2412C173.413 45.2412 171.484 44.46 169.824 42.873C168.164 41.3105 167.285 39.4307 167.163 37.2578L186.67 37.3066ZM175.415 26.7598C177.515 26.7598 179.297 27.4678 180.786 28.8838C182.275 30.2998 183.154 32.1064 183.423 34.2549H167.163C167.432 32.2285 168.359 30.4707 169.922 28.9814C171.484 27.5166 173.315 26.7598 175.415 26.7598ZM211.401 36.0127C211.401 38.4785 210.522 40.627 208.765 42.4824C207.007 44.3379 205.054 45.2412 202.881 45.2412C200.83 45.2412 198.975 44.3623 197.339 42.5557C195.703 40.749 194.873 38.5762 194.873 36.0127C194.873 33.4492 195.703 31.2764 197.339 29.4697C198.975 27.6631 200.83 26.7598 202.881 26.7598C205.054 26.7598 207.007 27.6875 208.765 29.543C210.522 31.3984 211.401 33.5469 211.401 36.0127ZM211.401 27.7607L211.06 27.2969C210.815 27.0039 210.449 26.6621 209.961 26.2227C209.473 25.8076 208.911 25.3926 208.252 25.002C207.617 24.6113 206.812 24.2451 205.859 23.9521C204.907 23.6592 203.906 23.5127 202.881 23.5127C199.829 23.5127 197.144 24.7334 194.849 27.1992C192.554 29.6406 191.406 32.5947 191.406 36.0127C191.406 39.4307 192.554 42.3848 194.849 44.8262C197.144 47.2676 199.829 48.5127 202.881 48.5127C203.906 48.5127 204.907 48.3662 205.884 48.0732C206.86 47.7803 207.642 47.4385 208.252 47.0479C208.887 46.6572 209.448 46.2422 209.985 45.7539C210.522 45.2656 210.889 44.8994 211.035 44.7041C211.206 44.5088 211.328 44.3623 211.401 44.2646V48.0244H214.893V13.0146H211.401V27.7607ZM223.145 48H226.636V24.001H223.145V48ZM222.632 15.9932C222.632 16.6279 222.827 17.165 223.267 17.6045C223.706 18.0439 224.243 18.2393 224.878 18.2393C225.513 18.2393 226.025 18.0439 226.465 17.6045C226.904 17.165 227.124 16.6279 227.124 15.9932C227.124 15.3584 226.904 14.8457 226.465 14.4062C226.025 13.9668 225.513 13.7471 224.878 13.7471C224.243 13.7471 223.706 13.9668 223.267 14.4062C222.827 14.8457 222.632 15.3584 222.632 15.9932ZM236.914 21.5107C236.914 23.1709 236.23 24.001 234.912 24.001H232.153V27.248H236.67V41.5059C236.67 43.752 237.231 45.4609 238.403 46.6816C239.575 47.9023 241.187 48.4883 243.262 48.4883C244.531 48.5127 245.654 48.2686 246.655 47.7559V44.5088L246.216 44.7041C245.923 44.8018 245.532 44.9238 244.995 45.0459C244.458 45.1924 243.945 45.2412 243.408 45.2412C241.235 45.2656 240.161 44.0205 240.161 41.5059V27.248H245.41V24.001H240.161V15.9932H236.914V21.5107Z" fill="#38474B"/>
</svg>
