<svg width="166" height="40" viewBox="0 0 166 40" fill="none" xmlns="http://www.w3.org/2000/svg">
<path d="M122.247 32.7943L122.218 32.772L122.625 32.029L122.663 32.0513C123.401 32.5198 123.868 32.6074 124.619 32.6097C125.051 32.6097 125.416 32.5768 125.668 32.4749C125.918 32.3707 126.054 32.2106 126.055 31.9237C126.056 31.815 126.039 31.7006 125.984 31.6065C125.86 31.4049 125.441 31.3343 124.761 31.3366C123.406 31.3377 123.219 31.2751 122.949 31.1493C122.522 30.9477 122.295 30.495 122.296 30.0356C122.3 28.8969 123.444 28.562 124.366 28.5597C125.213 28.5597 125.946 28.7534 126.686 29.1593L126.722 29.1781L126.325 29.9457L126.287 29.9223C125.644 29.5414 125.131 29.4058 124.384 29.4058C124.02 29.4047 123.723 29.4485 123.523 29.5436C123.323 29.6399 123.221 29.7766 123.22 29.9827C123.219 30.0839 123.236 30.1892 123.29 30.2662C123.391 30.4244 123.676 30.5041 124.559 30.5018C125.177 30.5018 125.768 30.5264 126.213 30.7068C126.659 30.885 126.954 31.2335 126.952 31.8452C126.953 32.4998 126.672 32.9121 126.254 33.1507C125.836 33.3893 125.288 33.4611 124.742 33.4611C123.895 33.4611 123.054 33.3961 122.247 32.7943Z" fill="#38474B"/>
<path d="M107.236 33.321H103.049V28.6964H107.144V29.5527H103.943V30.5071H105.806V31.3634H103.943V32.464H107.236V33.321Z" fill="#38474B"/>
<path d="M61.3698 33.321H57.1809V28.6964H61.2788V29.5527H58.0765V30.5071H59.94V31.3634H58.0765V32.464H61.3698V33.321Z" fill="#38474B"/>
<path d="M74.1148 33.321H69.927V28.6964H74.023V29.5527H70.8214V30.5071H72.6861V31.3634H70.8214V32.464H74.1148V33.321Z" fill="#38474B"/>
<path d="M100.651 33.321H99.7555V30.2259L98.1207 32.6633L98.086 32.715L98.0512 32.6633L96.4274 30.227V33.321H95.5322V28.6964H96.4085L96.421 28.7145L98.086 31.2751L99.7725 28.7145L99.7849 28.6964H100.651V33.321Z" fill="#38474B"/>
<path d="M84.3414 29.4221C83.4383 29.4221 82.468 29.9231 82.468 31.0221C82.468 32.1091 83.3836 32.5965 84.2912 32.5965C85.2056 32.5965 86.1903 32.0959 86.1903 30.9964C86.1903 29.9084 85.2615 29.4221 84.3414 29.4221ZM84.2833 33.4705C82.9664 33.4705 81.634 32.6335 81.634 31.0312V30.9081C81.634 29.3583 83 28.5469 84.3494 28.5469C85.6783 28.5469 87.0243 29.3862 87.0243 30.9874C87.0243 32.618 85.6447 33.4705 84.2833 33.4705Z" fill="#38474B"/>
<path d="M51.3999 32.4733H53.0853C54.0008 32.4733 54.5924 31.8949 54.5924 30.9998C54.5924 30.0751 54.0435 29.5451 53.0853 29.5451H51.3999V32.4733ZM53.0853 33.3315H50.5428V28.688H53.0853C54.4996 28.688 55.451 29.6134 55.451 30.9918C55.451 32.4129 54.5218 33.3315 53.0853 33.3315Z" fill="#38474B"/>
<path d="M65.9185 33.3311H65.1117L65.0992 33.3077L62.7214 28.7481L62.6901 28.6873H63.6649L63.6762 28.7099L65.5239 32.2665L67.3875 28.7099L67.4 28.6873H68.3748L68.3423 28.7481L65.9294 33.3077L65.9185 33.3311Z" fill="#38474B"/>
<path d="M80.103 33.3311H76.4619V28.6873H77.3193V32.4737H80.103V33.3311Z" fill="#38474B"/>
<path d="M89.9591 30.8182H91.6883C92.5344 30.8182 92.7292 30.7038 92.7292 30.1982C92.7292 29.704 92.4974 29.5451 91.7755 29.5451H89.9591V30.8182ZM89.9591 33.3315H89.1006V28.6877H91.9337C92.5049 28.6877 92.6375 28.7292 92.9153 28.8961C93.3231 29.1369 93.5866 29.6481 93.5866 30.1982C93.5866 30.652 93.4194 31.0511 93.1158 31.3222C92.7292 31.6616 92.5008 31.6752 91.6883 31.6752H89.9591V33.3315Z" fill="#38474B"/>
<path d="M113.943 33.3311H113.108L113.095 33.3153L110.315 30.0132V33.3311H109.458V28.6873H110.302L110.314 28.702L113.086 31.9954V28.6873H113.943V33.3311Z" fill="#38474B"/>
<path d="M118.78 33.3311H117.914V29.5447H116.188V28.6873H120.542V29.5447H118.78V33.3311Z" fill="#38474B"/>
<path d="M133.572 30.8182H135.3C136.147 30.8182 136.342 30.7038 136.342 30.1982C136.342 29.704 136.11 29.5451 135.388 29.5451H133.572V30.8182ZM133.572 33.3315H132.715V28.6877H135.546C136.118 28.6877 136.25 28.7292 136.527 28.8961C136.936 29.1369 137.199 29.6481 137.199 30.1982C137.199 30.652 137.032 31.0511 136.727 31.3222C136.342 31.6616 136.113 31.6752 135.3 31.6752H133.572V33.3315Z" fill="#38474B"/>
<path d="M142.571 33.3312H138.931V28.6862H139.788V32.4726H142.571V33.3312Z" fill="#38474B"/>
<path d="M146.765 33.4757C145.375 33.4757 143.879 32.7082 143.879 31.0217C143.879 29.3937 145.273 28.5419 146.65 28.5419C147.509 28.5419 148.315 28.8323 149.044 29.405L149.074 29.4273L149.054 29.4598L148.641 30.1106L148.617 30.1476L148.581 30.1231C147.914 29.6591 147.41 29.408 146.659 29.408C145.704 29.408 144.737 29.963 144.737 31.0217C144.737 32.1188 145.747 32.6096 146.747 32.6096C147.459 32.6096 148.063 32.4137 148.705 31.9742L148.745 31.9463L148.766 31.9912L149.109 32.7036L149.125 32.7354L149.096 32.7565C148.375 33.2541 147.656 33.4757 146.765 33.4757Z" fill="#38474B"/>
<path d="M88.0936 13.6673H92.0953C93.2358 13.6673 93.7478 13.6348 94.2277 13.2984C94.723 12.9545 95.0413 12.2854 95.0413 11.5953C95.0413 9.73057 93.3702 9.4527 92.3743 9.4527H88.0936V13.6673ZM97.2858 20.9698H95.0971L95.0658 20.9196L91.555 15.5686H88.0936V20.9698H86.1919V7.55098H91.4655C93.5832 7.55098 94.2333 7.62498 95.2697 8.2974C96.286 8.96302 96.9426 10.2516 96.9426 11.5772C96.9426 12.7955 96.4084 13.9708 95.5151 14.724C94.8955 15.2405 94.3575 15.3961 93.6964 15.5195L97.1805 20.8029L97.2858 20.9698Z" fill="#38474B"/>
<path d="M106.45 13.6673H110.451C111.593 13.6673 112.105 13.6348 112.585 13.2984C113.078 12.9545 113.398 12.2854 113.398 11.5953C113.398 9.73057 111.727 9.4527 110.731 9.4527H106.45V13.6673ZM115.642 20.9698H113.454L113.423 20.9196L109.913 15.5686H106.45V20.9698H104.549V7.55098H109.822C111.939 7.55098 112.589 7.62498 113.627 8.2974C114.643 8.96302 115.3 10.2516 115.3 11.5772C115.3 12.7955 114.765 13.9708 113.871 14.724C113.251 15.2405 112.714 15.3961 112.053 15.5195L115.537 20.8029L115.642 20.9698Z" fill="#38474B"/>
<path d="M143.857 21.0907H141.955V9.57351H137.184V7.67293H148.645V9.57351H143.857V21.0907Z" fill="#38474B"/>
<path d="M160.441 21.0907H158.54V9.57351H153.768V7.67293H165.229V9.57351H160.441V21.0907Z" fill="#38474B"/>
<path d="M52.4759 13.2822H57.0778C58.1648 13.2822 59.4606 12.9473 59.4606 11.3495C59.4606 10.6144 59.0468 10.0047 58.3532 9.71661C58.2154 9.66413 57.876 9.57314 57.1654 9.57314H52.4759V13.2822ZM52.4759 19.1901H57.0778C58.6545 19.1901 59.0188 19.0353 59.4236 18.7061C59.8491 18.3731 60.0722 17.8834 60.0722 17.2906C60.0722 15.8922 59.0649 15.1828 57.0778 15.1828H52.4759V19.1901ZM57.0778 21.0907H50.5428V7.67256H57.0778C59.7316 7.67256 61.3789 9.11367 61.3789 11.4367C61.3789 12.5316 61.0402 13.3048 60.2191 14.069C61.3676 14.8524 61.9728 15.9696 61.9728 17.3087C61.9728 18.3968 61.5167 19.4019 60.6876 20.137C59.7124 21.0008 58.8384 21.0907 57.0778 21.0907Z" fill="#38474B"/>
<path d="M71.3854 15.0993H75.5731L73.5 10.1508L71.3854 15.0993ZM79.9882 21.091H78.0865L78.0597 21.0291L76.3396 16.9818H70.5404L68.8833 21.028L68.8562 21.091H66.9514L67.0175 20.9362L72.6807 7.73485L72.7064 7.67293H74.3291L74.3548 7.73485L79.9221 20.9362L79.9882 21.091Z" fill="#38474B"/>
<path d="M125.329 15.0993H129.517L127.446 10.1508L125.329 15.0993ZM133.933 21.0922H132.03L132.003 21.0291L130.284 16.9818H124.484L122.826 21.028L122.801 21.0922H120.894L120.961 20.9351L126.624 7.73374L126.651 7.67183H128.273L128.3 7.73488L133.867 20.9363L133.933 21.0922Z" fill="#38474B"/>
<path d="M33.555 19.3403L33.4768 19.3807L33.211 19.3426L33.1303 19.3694L33.1325 19.4041L33.2258 19.4963L33.3119 19.5903L33.3556 19.7821L33.3198 19.9267L33.2514 19.9803L33.1382 19.9871L33.0521 20.0195L32.9736 20.1853L32.9622 20.2763L33.0555 20.5508L33.0419 20.6527L32.9736 20.7006L32.9332 20.6954L32.7652 20.5542L32.6798 20.5315L32.6005 20.5696L32.4571 20.7905L32.3986 21.1526L32.3495 21.2847L32.2574 21.3081L31.9413 21.1983L31.7847 21.2005L31.6423 21.2979L31.2961 21.4931L31.184 21.623L31.09 21.7106L30.9397 21.7249L30.6698 21.6309L30.5754 21.5399L30.495 21.5154L30.2707 21.5951L30.1431 21.6139L30.1125 21.5894L30.08 21.4977L30.0309 21.4271L29.8663 21.3463L29.7652 21.3296L29.7263 21.3485L29.7104 21.3878L29.7183 21.4316L29.8663 21.5905L30.0476 21.7072L30.2462 21.9941L30.3156 22.1531L30.3009 22.3649L30.3156 22.4445L30.404 22.5374L30.5338 22.7088L30.572 22.8546L30.5384 23.0618L30.3806 23.4484L30.2571 23.5651L30.1831 23.6693L30.0914 23.7622L29.9962 23.7713L29.7697 23.6927L29.4046 23.6368L29.1177 23.6501L29.0403 23.695L29.0301 23.7309L29.0505 23.7667L29.206 23.8562L29.5043 23.9204L29.7576 23.9091L30.0094 23.9347L30.3896 23.9774L30.8668 24.0401L31.1995 24.1892L31.4181 24.3908L31.4977 24.6139L31.4755 24.9726L31.5381 25.0968L31.5615 25.2324L31.4909 25.4634L31.3924 25.722L31.2961 25.8666L31.0103 26.0641L30.8827 26.2959L30.8042 26.342L30.6192 26.3171L30.4893 26.4247L30.3277 26.5055L30.1318 26.5168L30.0072 26.6263L29.9165 26.6399L29.7361 26.5738L29.7059 26.584L29.6489 26.7071L29.5345 26.7731L29.5043 26.8641L29.3619 27.0824L29.2117 27.1722L29.1365 27.2787L29.0123 27.3953L28.9126 27.404L28.7446 27.3247L28.6729 27.3334L28.5955 27.4399L28.5 27.4678L28.3365 27.4546L28.2448 27.4678L27.8593 27.5071L27.262 27.6921L27.1083 27.7012L26.286 27.4996L26.0527 27.3716L25.8994 27.3493L25.6684 27.421L25.5162 27.4501L25.349 27.4312L25.2852 27.3761L25.2202 27.1409L25.1609 27.0793L24.4379 26.8392L24.1971 26.7207L23.8912 26.4843L23.667 26.3484L23.434 26.2789L23.3434 26.1872L23.2672 26.1468L23.2245 26.1581L23.0674 26.3039L22.83 26.6097L22.6518 26.9132L22.5713 27.1284L22.4603 27.6853L22.4211 28.0651L22.4029 28.5763L22.4535 28.8855L22.5332 29.0871L22.6944 29.3461L22.7918 29.4292L22.8851 29.4526L22.9848 29.4292L23.0697 29.4311L23.2445 29.6172L23.3646 29.6765L23.8958 29.809L24.6879 29.9189L25.1632 29.9872L25.2202 30.0363L25.21 30.0676L25.1183 30.162L24.8785 30.2236L24.4965 30.2424L24.1646 30.2572L22.2508 30.0699L21.9133 29.9816L21.8215 29.9918L21.6399 30.1126L21.066 30.2606L20.7142 30.3904L20.4374 30.4758L19.978 30.4542L19.7609 30.4803L19.3909 30.5732L19.0258 30.526L18.7422 30.5162L17.9913 30.5373L17.784 30.5014L17.7583 30.469L17.7606 30.4286L17.784 30.3927L17.8927 30.3164L18.1114 30.2338L18.6784 30.1394L19.1938 29.9918L19.8088 29.9634L20.0444 29.8996L20.3411 29.7169L20.5462 29.5006L20.6794 29.2744L20.7368 29.0279L20.6719 28.6201L20.6606 28.2256L20.7312 27.5754L20.7391 27.1866L20.6874 27.0008L20.5416 26.8449L20.4129 26.7981L20.2853 26.8305L20.1509 26.9393L19.9938 27.0208L19.5479 27.0578L19.3395 27.1511L19.1243 27.236L18.9216 27.2696L18.6478 27.2507L18.5863 27.2002L18.584 27.1586L18.6478 27.0401L18.8117 26.9627L18.9695 26.8203L19.1915 26.4964L19.187 26.4571L19.1141 26.4058L18.9563 26.382L18.6267 26.4156L18.5931 26.4439L18.5772 26.4843L18.5674 26.8181L18.4655 27.0174L18.1718 27.2674L17.9063 27.421L17.5858 27.5286L17.4937 27.5071L17.4208 27.3972L17.3313 27.3682L16.9749 27.4312L16.5683 27.5071L16.13 27.469L15.8578 27.5611L15.703 27.5902L15.6101 27.5634L15.5149 27.4188L15.3949 27.236L15.2775 27.1745L15.0185 27.1318L14.9928 27.1016L14.9905 27.059L15.0687 26.8921L15.1921 26.7093L15.2121 26.6353L15.1517 26.5761L15.0071 26.5481L14.9143 26.5761L14.8909 26.6097L14.8671 26.7686L14.818 26.8415L14.6889 27.0725L14.6194 27.2417L14.5545 27.2998L14.3283 27.3021L14.0436 27.29L13.8752 27.3606L13.5313 27.3784L13.2659 27.4758L13.0831 27.4524L13.0012 27.4905L12.7637 27.6136L12.4466 27.6585L12.3515 27.7427L12.228 27.8065L12.1261 27.8008L12.0645 27.7348L12.0611 27.6374L12.1487 27.3625L12.1317 27.3289L12.1015 27.3168L11.9558 27.3459L11.6352 27.3078L11.3876 27.253L11.2781 27.1813L11.1648 26.994L11.0727 26.9064L10.9708 26.883L10.7503 26.9087L10.5887 26.8875L10.5305 26.826L10.4799 26.6331L10.4343 26.5602L10.3939 26.5527L10.2515 26.584L10.0541 26.5761L9.96799 26.584L9.89965 26.6969L9.82339 26.7418L9.68219 26.7497L9.61724 26.695L9.54664 26.6501L9.50625 26.661L9.44018 26.7207L9.24951 26.8921L9.14984 26.9064L9.07244 26.8585L9.00071 26.8113L8.84629 26.8237L8.77116 26.7799L8.74209 26.6263L8.77003 26.3484L8.85988 26.1389L9.22384 25.6582L9.28538 25.5416L9.32805 25.4634L9.53418 25.4276L9.61838 25.3894V25.3524L9.58478 25.3275L9.53192 25.3188L9.42772 25.3422L9.2733 25.3592L9.1925 25.3154L9.16457 25.2214L9.18344 25.1191L9.28991 24.9243L9.29784 24.7325L9.37071 24.6219L9.54098 24.5524L9.75279 24.4637L9.79658 24.3863L9.80866 24.2194L9.85472 24.0019L9.91627 23.9472L10.1473 23.8789L10.1405 23.8664H10.0499L9.96459 23.843L9.90759 23.778L9.88606 23.6165L9.92079 23.4182L9.89965 23.3869L9.74486 23.297L9.71012 23.2087L9.71692 23.1056L9.82452 22.9116L9.951 22.7964L10.0039 22.6696L10.2202 22.3426L10.3006 22.0602L10.3342 22.0353L10.3837 22.0311L10.5102 22.0893L10.6381 22.1429L10.7265 22.1308L10.8903 22.1115L11.027 22.1587L11.1176 22.2448L11.2475 22.3581L11.3944 22.3962L11.4963 22.3762L11.5952 22.2931L11.8078 22.2629L11.8406 22.2384L11.8448 22.0455L11.8908 21.9669L12.0241 21.8605L12.228 21.7608L12.2473 21.7272L12.2416 21.6891L12.1408 21.6041L11.9996 21.4448L11.9762 21.3531L12.0166 21.2723L12.1967 21.1503L12.3851 20.9158L12.581 20.6931L12.7358 20.6066L13.0371 20.5462L13.2534 20.462L13.2961 20.3892L13.2836 20.2827L13.2893 20.117L13.3467 19.9939L13.5596 19.7843L13.7994 19.6631L14.2554 19.5778L14.3932 19.5367L14.542 19.5031L14.6443 19.5231L14.6711 19.5544L14.7179 19.6888L14.7874 19.7383L14.9422 19.7651L15.1306 19.7103L15.4409 19.6609L15.601 19.5801L15.7894 19.4064L15.8389 19.3392L15.8276 19.3022L15.7974 19.2777L15.5855 19.2833L14.7372 19.4007L14.6398 19.3875L14.5209 19.3237L14.3932 19.2777L14.2509 19.2924L13.8092 19.4536L13.5762 19.5208L13.406 19.5163L13.2836 19.4593L13.1292 19.2509L12.9925 19.0881L12.8691 19.0277L12.7739 19.0379L12.5365 19.2241L12.4375 19.2452L12.2775 19.2195L12.0804 19.2173L12.0075 19.1712L11.9558 19.0379L11.9626 18.9337L12.1921 18.4954L12.1967 18.4172L12.1095 18.3262L12.0747 18.2413L12.0993 18.1458L12.2416 17.9846L12.4545 17.8377L12.6663 17.8075L12.7637 17.7222L13.0899 17.4488L13.5426 17.1811L13.5113 16.884L13.4777 16.8572L13.426 16.8549L13.1862 16.9221L13.0046 16.9837L12.8121 17.1521L12.6931 17.2113L12.5342 17.1966L12.4432 17.2215L12.3651 17.3257L12.262 17.4028L11.9358 17.4409L11.7149 17.4175L11.5971 17.3491L11.5299 17.3344L11.4974 17.3593L11.3823 17.5462L11.2486 17.8354L11.1267 18.0114L10.9923 18.0608L10.8398 18.0306L10.5808 17.869L10.5407 17.7863V17.6908L10.5955 17.5632L10.9474 17.1921L11.1267 17.0097L11.2577 16.7821L11.2747 16.6163L11.2241 16.1837L11.2411 15.982L11.4068 15.5471L11.6062 15.2054L11.5658 15.0778L11.5703 14.9902L11.642 14.8781L11.7342 14.8513L12.0377 14.9139L12.1317 14.8894L12.1544 14.849L12.1744 14.6923L12.3224 14.476L12.5508 14.2249L12.7739 14.0837L12.8423 13.9705L12.9038 13.9146L13.1964 13.9055L13.4429 13.8508L13.6725 13.7198L13.816 13.5638L13.9942 13.2592L14.1365 13.0998L14.2218 13.0674L14.5443 13.1636L14.7606 13.1863L14.9029 13.1436L15.0207 13.0202L15.171 12.9779L15.1091 12.8771L15.1215 12.785L15.1876 12.7279L15.2839 12.7042L15.4632 12.7627L15.8834 12.8869L16.2108 12.9205L16.3474 13.0247L16.5592 13.1716L16.705 13.1648L16.9379 13.0919L17.1554 12.9507L17.2449 12.7951L17.2385 12.6977L17.1856 12.6283L16.9043 12.4882L16.8126 12.3983L16.7933 12.3077L16.8462 12.1775L16.9704 12.0589L17.0029 11.9861L16.9817 11.9525L16.9379 11.9343L16.6589 11.8528L16.586 11.8045L16.5525 11.7161L16.5592 11.4918L16.623 11.3729L16.9425 11.0312L17.0255 11.001L17.169 11.0312L17.2037 11.0146L17.3763 10.8251L17.6843 10.6492L17.801 10.5215L17.8221 10.443L17.7999 10.4139L17.7515 10.397L17.5824 10.4094L17.4167 10.4139L17.3359 10.3713L17.2573 10.2101L17.1463 10.0787L17.1105 9.99033L17.1286 9.89519L17.1879 9.83214L17.4208 9.76607L17.5375 9.64072L17.878 9.31792L18.0305 9.10951L18.1114 8.83163L18.1963 8.73536L18.4678 8.5851L18.843 8.47976L19.0594 8.3967L19.4524 8.06861L19.725 7.91494L19.8088 7.89909L19.9681 7.97762L20.1595 8.02934L20.4408 8.01235L21.026 7.87455L21.3409 7.82962L21.6199 7.85341L21.7992 7.91721L21.9537 7.92174L22.1553 7.93722L22.3146 8.02028L22.429 8.14563L22.5408 8.21396L22.7918 8.22303L22.9221 8.27815L23.0138 8.42464L23.052 8.88638L23.0935 8.97057L23.183 8.99285L23.323 8.94716L23.6413 8.84523L23.8701 8.8305L24.0155 8.86863L24.2118 8.9147L24.4704 8.87203L24.7385 8.97057L24.8393 8.96151L25.0734 8.8305L25.1609 8.82371L25.2999 8.92678L25.5687 9.0189L25.8386 9.17105L25.9957 9.19484L26.0886 9.16539L26.4261 8.8407L26.5515 8.78557L27.2688 8.60057L27.5588 8.59303L27.746 8.64437L27.9299 8.76443L28.2557 9.15897L28.386 9.39079L28.4339 9.7638L28.4788 9.84007L28.7088 9.91067L28.9138 10.1259L29.1365 10.3241L29.2219 10.6805L29.4201 11.0267L29.4348 11.1679L29.3921 11.2464L29.2498 11.345L29.1667 11.4447L29.1592 11.5322L29.1837 11.5624L29.2264 11.5772L29.4371 11.5511L29.8641 11.4371L30.2114 11.3676L30.3624 11.3854L30.4723 11.4582L30.4991 11.5322L30.6875 11.866L30.6977 12.0083L30.6169 12.2292L30.4285 12.5218L30.3066 12.7615L30.2616 13.056L30.2865 13.0866L30.33 13.101L30.5104 13.1032L30.6045 13.13L30.672 13.2433L30.7415 13.2984L30.823 13.3139L30.8993 13.2735L30.9899 13.2478L31.0651 13.2905L31.1311 13.5872L31.1987 13.6994L31.2905 13.7273L31.4362 13.6892L31.5929 13.7062L31.7073 13.7722L31.8183 13.901L31.8866 14.1377L31.8798 14.2933L31.8058 14.5243L31.3252 15.3051L31.0866 15.5471L30.9499 15.7121L30.9084 15.8533L30.9306 15.9552L30.9812 16.1176L30.9677 16.2475L30.8434 16.3585L30.8521 16.3875L30.9586 16.4683L31.0651 16.4728L31.2199 16.3811L31.3833 16.3845L32.5232 16.3909L32.67 16.4211L32.727 16.4853L32.772 16.6208L32.7742 16.7934L32.7225 16.9814L32.6005 17.2215L32.5556 17.3571L32.5768 17.4556L32.6564 17.6168L32.9143 17.6618L33.0925 17.7818L33.1639 17.8905L33.1865 18.0967L33.2224 18.2356L33.3681 18.39L33.5127 18.7276L33.5886 19.0134L33.6101 19.1553L33.555 19.3403ZM39.1907 12.3806C34.9818 2.17092 23.2962 -2.69456 13.0865 1.51436C2.87686 5.72327 -1.98748 17.4107 2.2203 27.6204C6.42922 37.83 18.1181 42.6944 28.324 38.4855C38.5337 34.2777 43.3985 22.5903 39.1907 12.3806Z" fill="#38474B"/>
</svg>
