<svg width="44" height="62" viewBox="0 0 44 62" fill="none" xmlns="http://www.w3.org/2000/svg">
<path d="M27.8772 36.6994L27.9509 36.6503L28.0245 36.6994L34.8711 40.8098V48.2822L27.9877 52.3068L20.9693 48.3926V40.6135L27.8772 36.6994ZM43.2024 59.0061H4.04901L17.4846 51.1779L27.9263 56.9816L27.9509 56.9325L28.0245 57.0552L38.957 50.6749L38.9202 50.6258H38.9938V38.6503L43.2024 36.1963V33.4724L36.822 37.1902L34.822 35.9877L43.2024 31.1043V28.3804L32.5153 34.6012L30.3312 33.2883L28.0858 31.9264L28.0613 31.8896L28.049 31.865L26.9325 32.5031L22.8097 34.8344L16.9447 38.1595H16.8466V41.7178V46.4908V48.8098L0.0367432 58.6012V59.6687V61.3497H43.2024V59.0061Z" fill="#D5E7F1"/>
<path d="M15.8527 46.9448L13.5337 45.6564L0.0367432 53.5215V56L0.147174 56.184L15.9263 46.9816L15.8772 46.8957L15.8527 46.9448Z" fill="#D5E7F1"/>
<path d="M30.3435 33.2761L43.2024 25.7914V23.0675L28.0613 31.8773L28.0858 31.9264L30.3435 33.2761Z" fill="#FBF8ED"/>
<path d="M4.09814 13.6564C4.39261 13.6564 4.68709 13.6073 4.98157 13.5951V10.6135H4.76071C3.92636 10.6135 3.50918 9.68096 3.50918 8.98158C3.50918 8.04906 4.01225 7.43557 4.98157 7.38649V4.53986C4.74844 4.52759 4.52759 4.50305 4.29446 4.50305C1.75458 4.50305 0.147217 6.63802 0.147217 9.0552C0.147217 11.3988 1.55826 13.6564 4.09814 13.6564Z" fill="#FBF8ED"/>
<path d="M10.3558 6.94477C11.1411 6.94477 11.2516 8.18404 11.2516 9.07974C11.2516 9.97545 11.1411 11.2147 10.3558 11.2147C9.57057 11.2147 9.46014 9.97545 9.46014 9.07974C9.44787 8.17177 9.57057 6.94477 10.3558 6.94477ZM10.3558 13.6564C13.1779 13.6564 14.454 11.5337 14.454 9.06747C14.454 6.60122 13.1657 4.47852 10.3558 4.47852C7.53376 4.47852 6.25769 6.60122 6.25769 9.06747C6.25769 11.5337 7.53376 13.6564 10.3558 13.6564Z" fill="#FBF8ED"/>
<path d="M16.4049 13.4724H19.6687V7.28834H20.8344V4.67485H19.6687V4.25767C19.6687 3.43558 19.681 2.95706 20.1718 2.95706C20.4172 2.95706 20.6381 3.1043 20.8344 3.2638V0.233129C20.319 0.0858897 19.7792 0 19.2516 0C17.3497 0 16.4049 1.33742 16.4049 3.65644V4.67485H15.4479V7.28834H16.3927V13.4724H16.4049Z" fill="#FBF8ED"/>
<path d="M25.4847 9.91412C25.4847 8.99388 25.6319 7.82823 26.8467 7.82823C27.0798 7.82823 27.4602 8.00001 27.7669 8.14725V4.49081C26.5522 4.44173 25.7178 5.31289 25.3497 6.39265L25.3129 6.35584L25.497 4.67486H22.2086V13.4847H25.4724V9.91412H25.4847Z" fill="#FBF8ED"/>
<path d="M32.3558 8.06134C32.454 7.58281 32.638 7.1779 33.0429 7.1779C33.4233 7.1779 33.5951 7.50919 33.681 7.88956C33.7669 8.29447 33.7423 8.72391 33.7423 8.95704C33.7423 9.20244 33.7423 9.70551 33.6442 10.1595C33.5583 10.5889 33.362 10.957 32.9448 10.957C32.6258 10.957 32.4662 10.6871 32.3804 10.3558C32.2945 10.0123 32.2822 9.60735 32.2822 9.34968C32.2699 9.07974 32.2699 8.5276 32.3558 8.06134ZM31.6074 13.6564C32.6748 13.6564 33.4478 12.9202 33.8527 11.9877L33.8896 12.0245L33.7423 13.4724H37.0061V4.66256H33.681L33.8159 6.01226L33.7791 6.04907C33.3619 5.1779 32.7116 4.47852 31.6564 4.47852C29.411 4.47852 28.8834 7.25152 28.8834 8.98158C28.908 10.7116 29.3374 13.6564 31.6074 13.6564Z" fill="#FBF8ED"/>
<path d="M42.3435 13.6564C42.638 13.6564 42.9202 13.6073 43.2269 13.5951V10.6135H43.0061C42.1717 10.6135 41.7545 9.68096 41.7545 8.98158C41.7545 8.04906 42.2576 7.43557 43.2269 7.38649V4.53986C42.9938 4.52759 42.7729 4.50305 42.5398 4.50305C39.9999 4.50305 38.3926 6.63802 38.3926 9.0552C38.3926 11.3988 39.8159 13.6564 42.3435 13.6564Z" fill="#FBF8ED"/>
<path d="M15.9264 42.2699L8.89571 38.3558V30.5767L15.8159 26.6625L15.8896 26.6135L15.9632 26.6625L22.8098 30.773V34.8343L26.9325 32.503V30.1718L43.2025 20.6871V19.7546V17.9632V17.3987H0V19.7546H40.135L26.0859 27.9386L16.0123 21.8773L15.9877 21.8159L4.87116 28.1227H4.78528V40.3558L0.0368083 43.1165V45.8405L6.79754 41.9018L8.8589 43.0552L0.0368083 48.184V50.6625L0.147239 50.8466L11.2515 44.3803L13.5337 45.6564L15.8528 46.9448L15.8773 46.8957L15.9264 46.9816L15.9509 47.0184L16.8466 46.503V41.73L15.9264 42.2699Z" fill="#FBF8ED"/>
</svg>
