<svg width="170" height="35" viewBox="0 0 170 35" fill="none" xmlns="http://www.w3.org/2000/svg">
<path d="M147.406 0L144.038 3.38507L147.406 6.77064L150.776 3.38507L147.406 0Z" fill="#38474B"/>
<path d="M149.703 10.2124H145.122V27.8437H149.703V10.2124Z" fill="#38474B"/>
<path d="M0 10.8592H2.06385V13.789H2.12986C2.882 11.7496 5.14674 10.3637 7.535 10.3637C12.2869 10.3637 13.7286 12.8679 13.7286 16.917V27.8502H11.6649V17.247C11.6649 14.318 10.7136 12.1117 7.37381 12.1117C4.09513 12.1117 2.12985 14.6126 2.06402 17.9383V27.8502H0V10.8592Z" fill="#38474B"/>
<path d="M0 10.8575H2.06385V13.7888H2.12986C2.88352 11.7481 5.14674 10.362 7.535 10.362C12.2886 10.362 13.7286 12.8665 13.7286 16.9155V27.8503H11.6649V17.2455C11.6649 14.3165 10.7136 12.1086 7.37381 12.1086C4.09513 12.1086 2.12985 14.6129 2.06402 17.9384V27.8503H0V10.8575Z" fill="#38474B"/>
<path d="M28.44 18.5645H28.3761C28.1126 19.0601 27.1957 19.2221 26.6427 19.3217C23.1336 19.9488 18.7752 19.9168 18.7752 23.2409C18.7752 25.3172 20.6135 26.5995 22.5429 26.5995C25.688 26.5995 28.4748 24.5905 28.4399 21.2667V18.5645H28.44ZM17.4339 16.0619C17.6262 12.0796 20.413 10.3652 24.2808 10.3652C27.2617 10.3652 30.5056 11.2871 30.5056 15.8323V24.8529C30.5056 25.6453 30.8958 26.1054 31.7189 26.1054C31.9476 26.1054 32.2094 26.0411 32.3738 25.9722V27.7185C31.9147 27.8181 31.5869 27.8501 31.029 27.8501C28.9339 27.8501 28.6078 26.6682 28.6078 24.8882H28.5422C27.0968 27.0931 25.6239 28.3471 22.3812 28.3471C19.2672 28.3471 16.7078 26.7984 16.7078 23.3731C16.7078 18.5969 21.3311 18.4337 25.7851 17.9081C27.4919 17.7106 28.4399 17.4776 28.4399 15.6019C28.4399 12.8022 26.44 12.1076 24.0157 12.1076C21.4631 12.1076 19.5635 13.2958 19.4942 16.0621H17.4339V16.0619Z" fill="#38474B"/>
<path d="M38.6302 10.8592H42.0719V12.6054H38.6302V24.0669C38.6302 25.4166 38.8292 26.2034 40.3021 26.3045C40.8915 26.3045 41.4842 26.2709 42.0718 26.2032V27.9832C41.4494 27.9832 40.8603 28.0492 40.2364 28.0492C37.4878 28.0492 36.5365 27.1274 36.5692 24.2298V12.6054H33.6182V10.8592H36.5692V5.75417H38.63V10.8592H38.6302Z" fill="#38474B"/>
<path d="M38.6303 10.8575H42.072V12.602H38.6303V24.0652C38.6303 25.4132 38.8293 26.2015 40.304 26.3029C40.8916 26.3029 41.4843 26.2692 42.0718 26.2013V27.9815C41.4495 27.9815 40.8604 28.0475 40.2365 28.0475C37.4879 28.0475 36.5365 27.1257 36.5678 24.2264V12.602H33.6184V10.8575H36.5678V5.75417H38.6303V10.8575Z" fill="#38474B"/>
<path d="M45.8096 10.86H47.8753V27.851H45.8096V10.86ZM45.8096 4.33878H47.8753V7.66598H45.8096V4.33878Z" fill="#38474B"/>
<path d="M47.8753 10.8583H45.8082V27.8508H47.8753V10.8583Z" fill="#38474B"/>
<path d="M47.8753 4.33708H45.8082V7.66429H47.8753V4.33708Z" fill="#38474B"/>
<path d="M53.0501 19.3553C53.0501 22.9774 55.0156 26.6002 58.9821 26.6002C62.9457 26.6002 64.9108 22.9773 64.9108 19.3553C64.9108 15.7321 62.9456 12.1084 58.9821 12.1084C55.0156 12.1084 53.0501 15.7321 53.0501 19.3553ZM66.9749 19.3553C66.9749 24.2299 64.1585 28.3471 58.9821 28.3471C53.8024 28.3471 50.9865 24.2299 50.9865 19.3553C50.9865 14.4809 53.8023 10.3637 58.9821 10.3637C64.1587 10.3637 66.9749 14.4809 66.9749 19.3553Z" fill="#38474B"/>
<path d="M70.0214 10.8592H72.0871V13.789H72.1531C72.9101 11.7496 75.1667 10.3639 77.5596 10.3639C82.3134 10.3639 83.7537 12.868 83.7537 16.9172V27.8503H81.6912V17.2472C81.6912 14.3182 80.7399 12.1118 77.3952 12.1118C74.1165 12.1118 72.1531 14.6127 72.0871 17.9384V27.8503H70.0214V10.8592Z" fill="#38474B"/>
<path d="M70.0232 10.8575H72.0873V13.7888H72.1533C72.9103 11.7479 75.1669 10.3618 77.5598 10.3618C82.3136 10.3618 83.7539 12.8663 83.7539 16.9153V27.8501H81.6895V17.2453C81.6895 14.3163 80.7382 12.1084 77.3952 12.1084C74.1165 12.1084 72.1531 14.6127 72.0871 17.9382V27.8501H70.0231V10.8575H70.0232Z" fill="#38474B"/>
<path d="M98.4631 18.5645H98.3992C98.1358 19.0601 97.2173 19.2221 96.6607 19.3217C93.1535 19.9488 88.7983 19.9168 88.7983 23.2409C88.7983 25.3172 90.6334 26.5995 92.5678 26.5995C95.713 26.5995 98.4962 24.5905 98.4631 21.2667V18.5645ZM87.4535 16.0619C87.6547 12.0796 90.4361 10.3652 94.3025 10.3652C97.2848 10.3652 100.527 11.2871 100.527 15.8323V24.8529C100.527 25.6453 100.921 26.1054 101.739 26.1054C101.971 26.1054 102.231 26.0411 102.399 25.9722V27.7185C101.936 27.8181 101.604 27.8501 101.052 27.8501C98.9536 27.8501 98.6264 26.6682 98.6264 24.8882H98.5604C97.12 27.0931 95.647 28.3471 92.4012 28.3471C89.2903 28.3471 86.7343 26.7984 86.7343 23.3731C86.7343 18.5969 91.3528 18.4337 95.81 17.9081C97.5133 17.7106 98.4631 17.4776 98.4631 15.6019C98.4631 12.8022 96.4617 12.1076 94.0375 12.1076C91.4843 12.1076 89.5833 13.2958 89.5177 16.0621H87.4535V16.0619Z" fill="#38474B"/>
<path d="M107.867 4.33708H105.806V27.8508H107.867V4.33708Z" fill="#38474B"/>
<path d="M107.87 4.33539H105.806V27.8478H107.87V4.33539Z" fill="#38474B"/>
<path d="M119.467 24.0653C122.583 24.0653 123.368 21.3958 123.368 18.99C123.368 16.1623 121.99 13.8565 119.434 13.8565C117.729 13.8565 115.828 15.1092 115.828 19.1911C115.828 21.4294 116.746 24.0653 119.467 24.0653ZM127.922 10.3323V26.9283C127.922 29.961 127.69 35 119.107 35C115.502 35 111.703 33.4513 111.505 29.7297H116.484C116.686 30.6176 117.043 31.505 119.698 31.505C122.153 31.505 123.332 30.3214 123.332 27.4881V25.3827L123.268 25.3155C122.519 26.6677 121.367 27.9498 118.618 27.9498C114.424 27.9498 111.111 25.0192 111.111 18.8937C111.111 12.8334 114.521 9.87067 118.351 9.87067C121.599 9.87067 122.907 11.7815 123.465 12.933H123.531V10.3323H127.922Z" fill="#38474B"/>
<path d="M131.855 10.3323H136.241V13.3643H136.31C137.261 11.5825 138.308 9.87083 141.093 9.87083C141.386 9.87083 141.686 9.90222 141.979 9.93565V14.6134C141.587 14.5478 141.093 14.5478 140.667 14.5478C137.097 14.5478 136.44 16.7854 136.44 18.7294V27.851H131.855V10.3323H131.855Z" fill="#38474B"/>
<path d="M161.153 24.527C164.071 24.527 165.216 22.0884 165.216 19.4896C165.216 16.6883 164.429 13.8564 161.284 13.8564C158.367 13.8564 157.386 16.4586 157.386 19.2227C157.386 21.3011 158.201 24.527 161.153 24.527ZM169.605 27.8508H165.119V25.6463H165.052C163.937 27.623 161.906 28.3127 160.005 28.3127C154.832 28.3127 152.668 23.705 152.668 18.8945C152.668 12.8334 156.072 9.87068 159.908 9.87068C162.858 9.87068 164.232 11.4854 164.953 12.6046H165.016V4.20543H169.606V27.8508H169.605Z" fill="#38474B"/>
</svg>
