<svg width="61" height="16" viewBox="0 0 61 16" fill="none" xmlns="http://www.w3.org/2000/svg">
<path d="M40.5169 0H35.8462C35.5275 0 35.2555 0.231999 35.2049 0.547999L33.3169 12.524C33.2795 12.76 33.4622 12.9733 33.7009 12.9733H36.0969C36.3209 12.9733 36.5102 12.8107 36.5462 12.5893L37.0822 9.19467C37.1315 8.87867 37.4035 8.64667 37.7235 8.64667H39.2009C42.2769 8.64667 44.0529 7.15734 44.5169 4.20667C44.7262 2.916 44.5249 1.90267 43.9209 1.192C43.2569 0.411999 42.0795 0 40.5169 0ZM41.0555 4.37334C40.8009 6.04934 39.5195 6.04934 38.2809 6.04934H37.5769L38.0715 2.91867C38.1009 2.72933 38.2649 2.59067 38.4555 2.59067C39.4809 2.59067 40.3822 2.548 40.8289 3.07067C41.0742 3.36 41.1489 3.78534 41.0555 4.37334Z" fill="#38474B"/>
<path d="M7.20486 0H2.53419C2.21552 0 1.94352 0.231999 1.89286 0.547999L0.00485589 12.524C-0.0324775 12.76 0.150189 12.9733 0.390189 12.9733H2.61952C2.93952 12.9733 3.21019 12.7413 3.26086 12.4253L3.77019 9.19467C3.81952 8.87867 4.09152 8.64667 4.41152 8.64667H5.88886C8.96486 8.64667 10.7409 7.15734 11.2049 4.20667C11.4142 2.916 11.2129 1.90267 10.6089 1.192C9.94486 0.411999 8.76752 0 7.20486 0ZM7.74486 4.37334C7.49019 6.04934 6.20886 6.04934 4.97019 6.04934H4.26619L4.76086 2.91867C4.79019 2.72933 4.95419 2.59067 5.14486 2.59067H5.46752C6.31019 2.59067 7.10619 2.59067 7.51686 3.07067C7.76352 3.36 7.83686 3.78534 7.74486 4.37334Z" fill="#38474B"/>
<path d="M21.1647 4.32H18.9287C18.7367 4.32 18.574 4.46 18.5447 4.64934L18.446 5.27467C18.2287 4.96 17.798 4.11067 15.6487 4.11067C13.178 4.11067 11.0673 5.98267 10.6567 8.60934C10.4433 9.92001 10.746 11.172 11.4887 12.0453C12.1713 12.848 13.1447 13.1827 14.306 13.1827C16.298 13.1827 17.402 11.9027 17.402 11.9027L17.302 12.524C17.2647 12.76 17.4473 12.9747 17.686 12.9747H19.7007C20.0194 12.9747 20.2913 12.7427 20.342 12.4267L21.5513 4.77067C21.5873 4.53334 21.4047 4.32 21.1647 4.32ZM18.0473 8.67334C17.8313 9.95067 16.8167 10.8093 15.5233 10.8093C14.874 10.8093 14.3553 10.6 14.022 10.2053C13.6913 9.81334 13.566 9.25601 13.6713 8.63468C13.8727 7.36801 14.9033 6.48267 16.178 6.48267C16.8127 6.48267 17.3287 6.69334 17.6687 7.09201C18.0113 7.49334 18.146 8.05467 18.0473 8.67334Z" fill="#38474B"/>
<path d="M54.4767 4.32H52.2407C52.0487 4.32 51.886 4.46 51.8567 4.64934L51.758 5.27467C51.5407 4.96 51.1087 4.11067 48.9607 4.11067C46.49 4.11067 44.3794 5.98267 43.9687 8.60934C43.7554 9.92001 44.058 11.172 44.8007 12.0453C45.4834 12.848 46.4567 13.1827 47.618 13.1827C49.61 13.1827 50.714 11.9027 50.714 11.9027L50.614 12.524C50.5767 12.76 50.7594 12.9747 50.998 12.9747H53.0127C53.3314 12.9747 53.6034 12.7427 53.654 12.4267L54.8634 4.77067C54.898 4.53334 54.7154 4.32 54.4767 4.32ZM51.3594 8.67334C51.1434 9.95067 50.1287 10.8093 48.8354 10.8093C48.186 10.8093 47.6674 10.6 47.334 10.2053C47.0034 9.81334 46.878 9.25601 46.9834 8.63468C47.1847 7.36801 48.2154 6.48267 49.49 6.48267C50.1247 6.48267 50.6407 6.69334 50.9807 7.09201C51.3234 7.49334 51.458 8.05467 51.3594 8.67334Z" fill="#38474B"/>
<path d="M33.0771 4.31999H30.8291C30.6144 4.31999 30.4131 4.42666 30.2918 4.60399L27.1904 9.17066L25.8758 4.78266C25.7931 4.50799 25.5411 4.31999 25.2544 4.31999H23.0451C22.7784 4.31999 22.5904 4.58266 22.6771 4.83466L25.1518 12.1L22.8238 15.3853C22.6411 15.644 22.8251 16 23.1411 16H25.3865C25.5998 16 25.7984 15.896 25.9198 15.7213L33.3958 4.93199C33.5758 4.67332 33.3905 4.31999 33.0771 4.31999Z" fill="#38474B"/>
<path d="M57.1131 0.329333L55.1958 12.524C55.1584 12.76 55.3411 12.9733 55.5798 12.9733H57.5078C57.8278 12.9733 58.0984 12.7413 58.1491 12.4253L60.0398 0.449333C60.0771 0.213333 59.8944 0 59.6544 0H57.4971C57.3051 0 57.1424 0.14 57.1131 0.329333Z" fill="#38474B"/>
</svg>
