<svg width="46" height="34" viewBox="0 0 46 34" fill="none" xmlns="http://www.w3.org/2000/svg">
<path d="M42 33H4C2.343 33 1 31.657 1 30V4C1 2.343 2.343 1 4 1H31H42C43.657 1 45 2.343 45 4V30C45 31.657 43.657 33 42 33Z" stroke="#38474B" stroke-width="2" stroke-miterlimit="10" stroke-linecap="square"/>
<path d="M18.2378 21.8H20.8468L22.4798 12.224H19.8698L18.2378 21.8Z" fill="#38474B"/>
<path d="M27.7429 16.069C26.8309 15.626 26.2719 15.33 26.2779 14.882C26.2779 14.484 26.7509 14.058 27.7729 14.058C28.6089 14.045 29.2829 14.215 29.9609 14.535L30.3149 12.459C29.7979 12.265 28.9879 12.057 27.9759 12.057C25.3969 12.057 23.5799 13.356 23.5649 15.217C23.5499 16.593 24.8619 17.361 25.8519 17.819C26.8679 18.288 27.2099 18.588 27.2049 19.007C27.1989 19.649 26.3939 19.942 25.6429 19.942C24.4849 19.942 23.9009 19.763 22.8499 19.287L22.4839 21.431C23.0939 21.698 24.2209 21.93 25.3919 21.942C28.1359 21.942 29.9169 20.658 29.9369 18.67C29.9439 17.581 29.2489 16.752 27.7429 16.069Z" fill="#38474B"/>
<path d="M37.0071 12.233H34.9901C34.3651 12.233 33.8981 12.404 33.6231 13.027L29.7471 21.803H32.4881C32.4881 21.803 32.9361 20.623 33.0381 20.364C33.3381 20.364 36.0001 20.368 36.3811 20.368C36.4591 20.703 36.6991 21.803 36.6991 21.803H39.1211L37.0071 12.233ZM33.7891 18.406C33.8971 18.13 34.9621 15.395 35.1751 14.815C35.5281 16.466 35.1841 14.864 35.9561 18.406H33.7891Z" fill="#38474B"/>
<path d="M16.0489 12.231L13.4929 18.761L13.2209 17.434L12.3059 13.033C12.1479 12.427 11.6899 12.246 11.1229 12.225H6.91288L6.87988 12.424C7.90388 12.672 8.81888 13.03 9.62188 13.474L11.9429 21.791L14.7049 21.788L18.8139 12.23H16.0489V12.231Z" fill="#38474B"/>
</svg>
