<svg width="529" height="423" viewBox="0 0 529 423" fill="none" xmlns="http://www.w3.org/2000/svg">
<path d="M33.1531 421.089L0.914917 83.8482L510.086 18.4689L527.406 358.653L33.1531 421.089Z" fill="#38474B"/>
<path d="M110.556 231.934C114.614 211.962 117.829 190.966 119.813 169.472H196.754C194.779 190.812 191.518 212.053 187.496 231.934H110.556Z" fill="#80A0AD"/>
<path d="M78.725 400.075L134.134 409.25L392.447 376.624C429.124 288.129 463.138 132.634 425.12 0.905823H135.973C160.068 70.7506 158.727 170.423 145.312 252.822C135.484 313.21 116.19 361.588 78.725 400.075Z" fill="#F9F6EB"/>
<path d="M137.277 408.843L80.5729 399.459C114.904 363.626 135.774 317.024 146.2 252.967C161.698 157.787 158.338 64.0478 137.232 1.8116H424.432C455.076 108.712 435.909 223.302 421.723 282.169C413.055 318.165 402.33 350.474 391.406 376.751L393.435 376.497C404.286 350.275 414.912 318.219 423.49 282.595C437.738 223.438 457.005 108.141 425.99 0.661257C425.881 0.271771 425.519 0.00909424 425.12 0.00909424H135.973C135.683 0.00909424 135.402 0.154019 135.239 0.389523C135.076 0.625026 135.022 0.932992 135.121 1.21378C156.499 63.1692 159.977 157.18 144.424 252.686C133.935 317.096 112.856 363.735 78.0819 399.45C77.8463 399.694 77.7648 400.048 77.8735 400.365C77.9822 400.682 78.254 400.917 78.5891 400.971L131 409.649L137.295 408.852L137.277 408.843Z" fill="#38474B"/>
<path d="M399.984 134.11H194.788C194.29 134.11 193.882 133.702 193.882 133.204C193.882 132.706 194.29 132.298 194.788 132.298H399.984C400.482 132.298 400.89 132.706 400.89 133.204C400.89 133.702 400.482 134.11 399.984 134.11Z" fill="#4B6167"/>
<path d="M399.984 149.119H194.788C194.29 149.119 193.882 148.711 193.882 148.213C193.882 147.715 194.29 147.307 194.788 147.307H399.984C400.482 147.307 400.89 147.715 400.89 148.213C400.89 148.711 400.482 149.119 399.984 149.119Z" fill="#4B6167"/>
<path d="M399.984 119.11H194.788C194.29 119.11 193.882 118.703 193.882 118.205C193.882 117.706 194.29 117.299 194.788 117.299H399.984C400.482 117.299 400.89 117.706 400.89 118.205C400.89 118.703 400.482 119.11 399.984 119.11Z" fill="#4B6167"/>
<path d="M275.334 205.15H184.978C184.48 205.15 184.072 204.743 184.072 204.245C184.072 203.747 184.48 203.339 184.978 203.339H275.334C275.832 203.339 276.239 203.747 276.239 204.245C276.239 204.743 275.832 205.15 275.334 205.15Z" fill="#4B6167"/>
<path d="M273.676 220.15H183.664C183.166 220.15 182.759 219.743 182.759 219.244C182.759 218.746 183.166 218.339 183.664 218.339H273.676C274.174 218.339 274.582 218.746 274.582 219.244C274.582 219.743 274.174 220.15 273.676 220.15Z" fill="#4B6167"/>
<path d="M271.946 235.159H182.025C181.527 235.159 181.119 234.751 181.119 234.253C181.119 233.755 181.527 233.347 182.025 233.347H271.946C272.444 233.347 272.852 233.755 272.852 234.253C272.852 234.751 272.444 235.159 271.946 235.159Z" fill="#4B6167"/>
<path d="M269.736 250.159H180.041C179.543 250.159 179.135 249.751 179.135 249.253C179.135 248.755 179.543 248.347 180.041 248.347H269.736C270.234 248.347 270.642 248.755 270.642 249.253C270.642 249.751 270.234 250.159 269.736 250.159Z" fill="#4B6167"/>
<path d="M250.279 54.6004V49.0208L245.269 41.3942H247.815L251.347 46.8651L254.898 41.3942H257.462L252.434 49.0389V54.6004H250.26H250.279Z" fill="#38474B"/>
<path d="M264.482 53.3867C263.549 54.3197 262.389 54.7907 261.013 54.7907C259.636 54.7907 258.476 54.3197 257.543 53.3867C256.61 52.4538 256.139 51.3034 256.139 49.9538C256.139 48.6042 256.61 47.4539 257.543 46.5209C258.476 45.588 259.636 45.1169 261.013 45.1169C262.389 45.1169 263.549 45.588 264.482 46.5209C265.415 47.4539 265.886 48.6042 265.886 49.9538C265.886 51.3034 265.415 52.4538 264.482 53.3867ZM261.013 52.8976C261.819 52.8976 262.489 52.6168 263.014 52.0462C263.54 51.4846 263.803 50.7871 263.803 49.9538C263.803 49.1205 263.54 48.423 263.014 47.8615C262.489 47.2999 261.819 47.0191 261.013 47.0191C260.206 47.0191 259.518 47.2999 258.993 47.8615C258.467 48.423 258.205 49.1205 258.205 49.9538C258.205 50.7871 258.467 51.4846 258.993 52.0462C259.518 52.6078 260.197 52.8976 261.013 52.8976Z" fill="#38474B"/>
<path d="M276.049 45.2982V54.6005H274.002V53.6313C273.404 54.4013 272.553 54.7817 271.439 54.7817C270.324 54.7817 269.473 54.4284 268.812 53.7129C268.15 52.9973 267.824 52.0462 267.824 50.8597V45.2982H269.871V50.5245C269.871 51.2673 270.053 51.856 270.406 52.2817C270.759 52.7075 271.248 52.9248 271.882 52.9248C272.353 52.9248 272.779 52.789 273.151 52.5263C273.522 52.2636 273.812 51.9013 274.011 51.4575V45.2982H276.058H276.049Z" fill="#38474B"/>
<path d="M278.803 54.6005V45.2981H280.85V46.5481C281.04 46.1767 281.348 45.8597 281.783 45.597C282.218 45.3343 282.689 45.2075 283.196 45.2075C283.531 45.2075 283.848 45.2437 284.147 45.3162L283.848 47.3089C283.658 47.2365 283.395 47.2002 283.051 47.2002C282.616 47.2002 282.191 47.327 281.774 47.5716C281.357 47.8162 281.049 48.1694 280.85 48.6314V54.6005H278.803Z" fill="#38474B"/>
<path d="M295.869 54.8269C293.975 54.8269 292.354 54.1658 291.032 52.8433C289.709 51.5209 289.039 49.9086 289.039 47.9974C289.039 46.0862 289.7 44.4738 291.032 43.1514C292.363 41.8289 293.975 41.1678 295.869 41.1678C297.146 41.1678 298.305 41.4667 299.347 42.0736C300.389 42.6714 301.213 43.4866 301.82 44.5192L299.945 45.5971C298.994 44.0482 297.635 43.2692 295.869 43.2692C294.564 43.2692 293.468 43.7311 292.571 44.646C291.675 45.5608 291.231 46.684 291.231 47.9974C291.231 49.3108 291.675 50.4248 292.571 51.3487C293.468 52.2635 294.564 52.7255 295.869 52.7255C297.626 52.7255 298.985 51.9465 299.945 50.3976L301.82 51.4756C301.213 52.5082 300.389 53.3233 299.347 53.9211C298.305 54.5189 297.146 54.8269 295.869 54.8269Z" fill="#38474B"/>
<path d="M311.34 53.3867C310.407 54.3197 309.248 54.7907 307.871 54.7907C306.494 54.7907 305.334 54.3197 304.401 53.3867C303.468 52.4538 302.997 51.3034 302.997 49.9538C302.997 48.6042 303.468 47.4539 304.401 46.5209C305.334 45.588 306.494 45.1169 307.871 45.1169C309.248 45.1169 310.407 45.588 311.34 46.5209C312.273 47.4539 312.744 48.6042 312.744 49.9538C312.744 51.3034 312.273 52.4538 311.34 53.3867ZM307.871 52.8976C308.677 52.8976 309.347 52.6168 309.873 52.0462C310.398 51.4846 310.661 50.7871 310.661 49.9538C310.661 49.1205 310.398 48.423 309.873 47.8615C309.347 47.2999 308.677 47.0191 307.871 47.0191C307.065 47.0191 306.376 47.2999 305.851 47.8615C305.325 48.423 305.063 49.1205 305.063 49.9538C305.063 50.7871 305.325 51.4846 305.851 52.0462C306.376 52.6078 307.056 52.8976 307.871 52.8976Z" fill="#38474B"/>
<path d="M326.657 54.6005V49.4103C326.657 48.6495 326.503 48.0607 326.195 47.635C325.888 47.2093 325.416 46.9919 324.801 46.9919C324.33 46.9919 323.913 47.1278 323.55 47.3905C323.188 47.6531 322.916 48.0154 322.735 48.4593C322.771 48.6586 322.79 48.8578 322.79 49.0571V54.6005H320.742V49.4103C320.742 48.6495 320.588 48.0607 320.271 47.635C319.954 47.2093 319.483 46.9919 318.867 46.9919C318.424 46.9919 318.016 47.1097 317.663 47.3452C317.3 47.5807 317.038 47.9068 316.866 48.3144V54.6005H314.818V45.2981H316.866V46.1767C317.427 45.4702 318.251 45.1169 319.338 45.1169C320.425 45.1169 321.377 45.5789 322.02 46.4937C322.69 45.5789 323.714 45.1169 325.09 45.1169C326.241 45.1169 327.138 45.4793 327.772 46.2039C328.406 46.9285 328.723 47.8796 328.723 49.0571V54.6005H326.676H326.657Z" fill="#38474B"/>
<path d="M331.332 58.2145V45.2981H333.379V46.1495C334.049 45.452 334.955 45.1078 336.096 45.1078C337.446 45.1078 338.56 45.5789 339.439 46.5209C340.317 47.4629 340.752 48.6042 340.752 49.9447C340.752 51.2853 340.317 52.4266 339.439 53.3686C338.569 54.3106 337.455 54.7816 336.096 54.7816C334.955 54.7816 334.049 54.4283 333.379 53.7218V58.2055H331.332V58.2145ZM335.87 52.9338C336.676 52.9338 337.337 52.644 337.863 52.0643C338.388 51.4846 338.642 50.7871 338.642 49.9538C338.642 49.1205 338.379 48.423 337.863 47.8433C337.346 47.2636 336.676 46.9738 335.87 46.9738C334.801 46.9738 333.977 47.3995 333.379 48.26V51.6295C333.958 52.499 334.792 52.9338 335.87 52.9338Z" fill="#38474B"/>
<path d="M346.83 54.7907C345.481 54.7907 344.366 54.3197 343.497 53.3777C342.627 52.4357 342.192 51.2944 342.192 49.9538C342.192 48.6133 342.627 47.472 343.497 46.53C344.366 45.588 345.471 45.1169 346.83 45.1169C347.972 45.1169 348.877 45.4611 349.548 46.1586V45.3072H351.595V54.6095H349.548V53.7309C348.877 54.4374 347.972 54.7907 346.83 54.7907ZM347.075 52.9338C348.144 52.9338 348.968 52.4991 349.548 51.6295V48.26C348.95 47.4086 348.126 46.9738 347.075 46.9738C346.269 46.9738 345.607 47.2636 345.082 47.8433C344.557 48.423 344.303 49.1205 344.303 49.9538C344.303 50.7871 344.566 51.4846 345.082 52.0643C345.607 52.644 346.269 52.9338 347.075 52.9338Z" fill="#38474B"/>
<path d="M354.367 54.6005V45.2981H356.414V46.2854C357.048 45.5064 357.963 45.1169 359.149 45.1169C360.254 45.1169 361.133 45.4702 361.803 46.1858C362.474 46.9013 362.8 47.8524 362.8 49.039V54.6005H360.753V49.3741C360.753 48.6223 360.571 48.0245 360.218 47.6078C359.865 47.1821 359.358 46.9738 358.705 46.9738C357.609 46.9738 356.849 47.4629 356.414 48.4412V54.6005H354.367Z" fill="#38474B"/>
<path d="M368.28 58.2146H366.024L367.881 54.1024L363.878 45.2982H366.133L368.977 51.8832L371.84 45.2982H374.113L368.271 58.2146H368.28Z" fill="#38474B"/>
<path d="M246.646 72.2905V59.0842H248.82V70.2072H254.871V72.2905H246.646Z" fill="#38474B"/>
<path d="M264.038 71.0676C263.105 72.0006 261.946 72.4716 260.569 72.4716C259.192 72.4716 258.032 72.0006 257.099 71.0676C256.166 70.1347 255.695 68.9843 255.695 67.6347C255.695 66.2851 256.166 65.1348 257.099 64.2018C258.032 63.2689 259.192 62.7979 260.569 62.7979C261.946 62.7979 263.105 63.2689 264.038 64.2018C264.971 65.1348 265.442 66.2851 265.442 67.6347C265.442 68.9843 264.971 70.1347 264.038 71.0676ZM260.569 70.5785C261.375 70.5785 262.045 70.2977 262.571 69.7271C263.096 69.1655 263.359 68.468 263.359 67.6347C263.359 66.8014 263.096 66.104 262.571 65.5424C262.045 64.9808 261.375 64.7 260.569 64.7C259.763 64.7 259.074 64.9808 258.549 65.5424C258.023 66.104 257.761 66.8014 257.761 67.6347C257.761 68.468 258.023 69.1655 258.549 69.7271C259.074 70.2887 259.754 70.5785 260.569 70.5785Z" fill="#38474B"/>
<path d="M271.547 76.0857C270.696 76.0857 269.899 75.9498 269.165 75.6781C268.431 75.4063 267.842 75.035 267.399 74.564L268.649 73.0966C269.4 73.8756 270.37 74.265 271.529 74.265C272.263 74.265 272.897 74.0477 273.449 73.6129C273.993 73.1781 274.265 72.5531 274.265 71.7379V71.0858C273.585 71.8013 272.67 72.1636 271.529 72.1636C270.189 72.1636 269.074 71.7107 268.187 70.805C267.299 69.8992 266.855 68.7851 266.855 67.4717C266.855 66.1583 267.299 65.0532 268.196 64.1475C269.092 63.2507 270.198 62.7979 271.529 62.7979C272.68 62.7979 273.594 63.142 274.265 63.8395V62.9881H276.312V71.756C276.312 73.2053 275.85 74.2922 274.935 75.0078C274.02 75.7234 272.888 76.0857 271.547 76.0857ZM271.774 70.2796C272.852 70.2796 273.685 69.8448 274.265 68.9753V65.9409C273.667 65.0895 272.834 64.6547 271.774 64.6547C270.968 64.6547 270.297 64.9264 269.763 65.4608C269.228 66.0043 268.966 66.6655 268.966 67.4626C268.966 68.2597 269.228 68.939 269.763 69.4735C270.297 70.0079 270.968 70.2705 271.774 70.2705V70.2796Z" fill="#38474B"/>
<path d="M286.738 71.0676C285.805 72.0006 284.645 72.4716 283.269 72.4716C281.892 72.4716 280.732 72.0006 279.799 71.0676C278.866 70.1347 278.395 68.9843 278.395 67.6347C278.395 66.2851 278.866 65.1348 279.799 64.2018C280.732 63.2689 281.892 62.7979 283.269 62.7979C284.645 62.7979 285.805 63.2689 286.738 64.2018C287.671 65.1348 288.142 66.2851 288.142 67.6347C288.142 68.9843 287.671 70.1347 286.738 71.0676ZM283.269 70.5785C284.075 70.5785 284.745 70.2977 285.27 69.7271C285.796 69.1655 286.059 68.468 286.059 67.6347C286.059 66.8014 285.796 66.104 285.27 65.5424C284.745 64.9808 284.075 64.7 283.269 64.7C282.462 64.7 281.774 64.9808 281.249 65.5424C280.723 66.104 280.461 66.8014 280.461 67.6347C280.461 68.468 280.723 69.1655 281.249 69.7271C281.774 70.2887 282.453 70.5785 283.269 70.5785Z" fill="#38474B"/>
<path d="M118.228 225.676C122.286 205.703 125.502 184.707 127.485 163.213H204.426C202.451 184.553 199.19 205.794 195.168 225.676H118.228Z" fill="#F9F6EB"/>
<path d="M195.168 226.445H118.228C118.001 226.445 117.775 226.346 117.63 226.165C117.485 225.983 117.422 225.748 117.476 225.522C121.724 204.643 124.831 183.656 126.725 163.14C126.761 162.742 127.096 162.443 127.494 162.443H204.435C204.652 162.443 204.861 162.533 205.006 162.696C205.151 162.86 205.223 163.068 205.205 163.285C203.312 183.774 200.187 204.815 195.929 225.829C195.857 226.192 195.54 226.445 195.177 226.445H195.168ZM119.17 224.906H194.543C198.674 204.435 201.708 183.946 203.593 163.983H128.201C126.326 184.019 123.291 204.507 119.179 224.906H119.17Z" fill="#38474B"/>
<path fill-rule="evenodd" clip-rule="evenodd" d="M220.713 73.9572L230.278 56.6386L220.069 39.6915L200.286 40.0719L190.721 57.3814L200.929 74.3286L220.713 73.9572Z" fill="#80A0AD"/>
<path d="M285.941 297.287L286.24 296.145C296.303 258.139 303.17 219.643 306.666 181.727L306.738 180.903H399.649L399.558 181.89C396.043 219.878 389.159 258.447 379.086 296.535L378.905 297.205L285.932 297.278L285.941 297.287ZM308.396 182.714C304.9 220.087 298.142 258.012 288.287 295.475L377.51 295.403C387.375 257.967 394.15 220.06 397.665 182.723H308.396V182.714Z" fill="#4B6167"/>
<path d="M200.495 299.216C173.42 299.216 148.808 319.46 145.511 344.423C142.214 369.387 161.499 389.631 188.565 389.631C215.631 389.631 240.242 369.396 243.539 344.423C246.836 319.451 227.551 299.216 200.486 299.216" fill="#80A0AD"/>
<path d="M249.056 345.003C249.635 343.001 250.487 340.13 249.346 338.155C248.503 336.688 246.791 336.598 245.333 337.078C243.168 337.793 241.275 339.324 239.617 340.828C237.398 342.847 235.432 345.175 233.756 347.657C231.863 350.447 230.115 353.69 229.49 357.023C228.783 360.791 230.332 364.197 234.001 365.592C237.978 367.104 242.135 365.429 245.768 363.744C249.4 362.059 252.951 360.121 256.357 357.965C263.123 353.69 269.355 348.572 274.863 342.775C277.562 339.931 280.08 336.924 282.417 333.771C283.631 332.132 284.799 330.456 285.905 328.735C286.838 327.286 288.133 325.674 288.269 323.898C288.396 322.304 287.236 321.027 285.578 321.254C283.776 321.507 281.919 322.938 280.397 323.889C276.991 326.018 273.785 328.482 270.832 331.208C267.879 333.935 265.207 336.96 262.824 340.203C261.601 341.86 260.46 343.581 259.409 345.356C258.413 347.041 257.262 348.871 257.163 350.873C256.982 354.577 260.677 355.927 263.757 355.728C266.837 355.528 270.116 354.55 273.169 353.726C280.071 351.869 287.191 349.523 293.16 345.492C294.465 344.614 295.706 343.635 296.838 342.548L295.325 341.67C294.809 345.257 292.273 347.902 289.437 349.958C288.577 350.583 289.111 351.76 290.135 351.615C297.336 350.565 304.492 349.161 311.449 347.023C317.69 345.103 323.732 342.567 329.52 339.559C333.089 337.703 336.567 335.683 340 333.563C340.988 332.956 340.082 331.38 339.085 331.996C333.315 335.556 327.382 338.853 321.159 341.534C315.054 344.161 308.677 346.135 302.2 347.585C298.052 348.518 293.867 349.242 289.664 349.858L290.361 351.516C293.541 349.215 296.494 346.199 297.073 342.15C297.2 341.299 296.267 340.583 295.561 341.271C291.14 345.538 285.107 348.019 279.374 349.967C276.448 350.963 273.477 351.815 270.478 352.557C267.861 353.21 265.016 354.133 262.299 353.925C260.904 353.816 259.427 353.237 259.047 351.751C258.567 349.876 260.071 347.811 260.976 346.28C262.788 343.21 264.871 340.302 267.19 337.603C271.81 332.232 277.336 327.648 283.495 324.152C284.03 323.853 285.488 322.757 286.14 323.047C286.91 323.391 286.185 324.786 285.923 325.257C285.098 326.77 284.102 328.21 283.133 329.632C281.149 332.549 279.011 335.348 276.711 338.02C272.145 343.327 266.991 348.146 261.366 352.331C255.741 356.516 249.654 360.166 243.222 362.91C239.988 364.287 235.713 365.392 232.751 362.802C229.789 360.211 231.392 355.99 232.751 353.056C234.916 348.4 238.295 344.043 242.344 340.873C243.548 339.931 245.124 338.735 246.71 338.608C247.933 338.518 248.077 339.677 248.032 340.846C247.978 342.096 247.652 343.327 247.298 344.523C246.972 345.646 248.721 346.126 249.047 345.003H249.056Z" fill="#38474B"/>
<path d="M32.3378 422.103L32.2473 421.17L0 83.9478L1.86599 83.7214L33.9593 420.074L526.455 357.865L508.954 18.6138L510.838 18.3693L528.357 359.45L527.514 359.559L32.3378 422.103Z" fill="#38474B"/>
<path d="M421.189 356.217C413.798 359.568 405.645 361.461 397.275 361.461C388.906 361.461 381.251 359.568 374.748 356.217L368.425 404.169L393.842 387.557L414.875 404.169L421.198 356.208" fill="#F9F6EB"/>
<path d="M423.055 355.329C422.439 355.637 421.814 355.927 421.189 356.217L414.866 404.178L393.833 387.566L368.416 404.178L374.739 356.226C374.186 355.945 373.643 355.646 373.108 355.338L366.233 407.466L393.562 389.604L416.18 407.466L423.055 355.338" fill="#38474B"/>
<path d="M407.131 286.734C390.192 286.734 374.739 299.442 372.673 315.058C370.617 330.683 382.719 343.382 399.658 343.382C416.587 343.382 432.041 330.674 434.106 315.058C436.162 299.433 424.061 286.734 407.131 286.734ZM399.449 345.003C381.55 345.003 368.751 331.57 370.934 315.067C373.108 298.555 389.449 285.122 407.348 285.122C425.247 285.122 438.037 298.564 435.854 315.067C433.68 331.579 417.348 345.003 399.449 345.003ZM409.305 270.276C382.529 270.276 358.099 290.366 354.847 315.067C351.595 339.768 370.726 359.858 397.493 359.858C424.26 359.858 448.69 339.768 451.951 315.067C455.212 290.366 436.072 270.276 409.314 270.276" fill="#F9F6EB"/>
<path d="M397.484 359.849C370.708 359.849 351.577 339.759 354.838 315.058C358.099 290.357 382.529 270.267 409.296 270.267C436.063 270.267 455.194 290.357 451.933 315.058C448.672 339.759 424.242 359.849 397.475 359.849H397.484ZM409.504 268.664C381.759 268.664 356.459 289.479 353.08 315.067C350.807 332.277 359.032 347.322 373.099 355.338C373.633 355.646 374.177 355.936 374.729 356.226C381.242 359.577 388.887 361.47 397.257 361.47C405.627 361.47 413.779 359.577 421.171 356.226C421.796 355.945 422.421 355.646 423.037 355.338C439.215 347.331 451.407 332.277 453.681 315.067C457.06 289.479 437.231 268.664 409.495 268.664" fill="#38474B"/>
<path d="M399.658 343.391C382.719 343.391 370.617 330.683 372.673 315.067C374.729 299.442 390.192 286.743 407.131 286.743C424.061 286.743 436.162 299.451 434.106 315.067C432.05 330.683 416.587 343.391 399.658 343.391ZM407.339 285.113C389.44 285.113 373.099 298.555 370.925 315.058C368.751 331.57 381.541 344.994 399.44 344.994C417.339 344.994 433.671 331.561 435.845 315.058C438.019 298.546 425.238 285.113 407.339 285.113Z" fill="#4B6167"/>
<path d="M168.32 194.725L168.256 194.245L168.791 194.136L168.854 194.607L168.32 194.725ZM152.359 194.616L151.861 194.489L152.187 194.018L152.685 194.145L152.359 194.616ZM165.575 194.118C165.312 194.118 164.561 193.991 164.434 193.991C164.062 193.874 163.809 193.864 163.854 193.52C163.881 193.285 164.162 193.167 164.552 193.167C165.448 193.167 166.064 193.412 166.01 193.774C165.983 194.009 165.702 194.127 165.575 194.127V194.118ZM155.421 194.055H155.403C155.14 194.055 155.031 193.937 155.068 193.701C155.122 193.348 155.774 193.122 156.653 193.122H156.698C157.079 193.122 157.323 193.249 157.296 193.484C157.251 193.828 156.988 193.828 156.589 193.946C156.336 193.946 155.593 194.055 155.421 194.055ZM160.439 193.973L159.751 193.375L160.62 192.669L161.291 193.384L160.43 193.973H160.439ZM161.535 187.116H161.526C161.263 187.116 161.155 186.999 161.191 186.763C161.209 186.645 161.345 186.528 161.608 186.528C161.735 186.528 161.852 186.654 161.834 186.763C161.798 186.99 161.662 187.116 161.535 187.116ZM161.635 186.292C161.381 186.292 161.263 186.165 161.309 185.93C161.327 185.812 161.481 185.586 161.744 185.586C161.87 185.586 161.97 185.821 161.952 185.939C161.925 186.174 161.78 186.292 161.644 186.292H161.635ZM161.789 185.341H161.78C161.526 185.341 161.408 185.223 161.427 185.106C161.463 184.87 161.608 184.752 161.87 184.752C161.997 184.752 162.106 184.879 162.079 185.106C162.061 185.214 161.925 185.341 161.798 185.341H161.789ZM161.907 184.517C161.644 184.517 161.553 184.281 161.571 184.154C161.608 183.919 161.753 183.81 162.015 183.81C162.142 183.81 162.251 183.937 162.224 184.164C162.206 184.281 162.042 184.517 161.916 184.517H161.907ZM151.943 190.477C151.698 190.35 151.716 190.241 151.798 189.653C151.843 189.299 152.06 188.711 152.377 188.24C152.051 187.769 151.816 186.7 151.888 186.229C152.051 185.051 153.319 183.294 155.493 183.294H155.521C157.323 183.312 157.704 184.254 160.376 184.508L160.013 187.107C159.869 187.225 159.597 187.343 159.47 187.343L159.434 187.578C160.131 188.176 160.638 188.176 160.62 189.245C159.715 189.245 159.361 189 158.999 187.932H158.609L158.084 191.709H158.347C158.827 191.011 159.425 190.422 160.312 190.422H160.33C160.086 191.247 159.588 192.062 158.311 192.062H158.292C156.49 192.062 156.327 190.513 156.336 190.395C156.363 190.16 156.644 190.051 156.771 190.051C157.033 190.051 157.26 190.287 157.079 190.649C157.468 190.649 158.012 190.413 158.111 189.707C158.166 189.363 157.704 188.991 157.178 188.991C156.916 188.991 156.517 189.109 156.372 189.227C156.245 188.276 155.91 187.923 155.81 187.687C155.593 187.515 155.475 187.424 155.394 187.424C155.303 187.424 155.249 187.542 155.149 187.796C154.796 188.511 154.886 188.738 154.914 189.453C154.66 189.453 153.618 189.562 153.501 190.386C153.419 190.975 153.772 191.211 154.026 191.211H154.053C154.307 191.211 154.569 191.102 154.705 190.975C154.542 190.896 154.47 190.818 154.488 190.739C154.506 190.613 154.796 190.386 154.923 190.386C155.303 190.386 155.385 190.749 155.339 191.102C155.204 192.035 154.379 192.515 153.609 192.515H153.591C152.559 192.515 152.142 191.799 152.196 191.437C152.966 191.437 153.265 192.044 153.365 192.27L153.636 192.153L152.568 188.72L152.296 188.837C152.504 189.191 152.577 189.553 152.568 189.662C152.513 190.015 152.187 190.486 151.943 190.486V190.477ZM161.78 189.254C162.052 188.185 162.577 188.194 163.555 187.605L163.582 187.37C163.32 187.37 163.084 187.243 162.966 187.134L163.347 184.417C165.566 184.191 166.599 183.267 168.383 183.258H168.401C170.467 183.276 171.49 185.178 171.318 186.356C171.255 186.827 170.72 187.886 170.267 188.357C170.467 188.837 170.503 189.426 170.458 189.779C170.376 190.368 170.358 190.486 170.077 190.604C169.823 190.604 169.76 190.133 169.805 189.779C169.824 189.662 170.005 189.308 170.186 188.955L169.941 188.828L167.912 192.243L168.157 192.37C168.32 192.134 168.782 191.546 169.543 191.546H169.561C169.516 191.899 168.909 192.596 167.885 192.596H167.867C167.097 192.596 166.39 192.116 166.517 191.165C166.563 190.821 166.744 190.459 167.133 190.459C167.269 190.459 167.486 190.694 167.468 190.812C167.457 190.896 167.402 190.975 167.305 191.047C167.287 191.165 167.532 191.283 167.794 191.283C168.057 191.283 168.601 191.047 168.682 190.459C168.791 189.634 167.65 189.508 167.396 189.499C167.622 188.792 167.776 188.557 167.622 187.85C167.586 187.596 167.577 187.47 167.477 187.47C167.396 187.47 167.251 187.56 166.988 187.723C166.834 187.959 166.39 188.312 166.01 189.245C165.901 189.127 165.53 189.009 165.267 189.009C164.751 189.009 164.189 189.354 164.135 189.716C164.044 190.422 164.524 190.658 164.905 190.667C164.823 190.314 165.113 190.078 165.376 190.078C165.503 190.078 165.747 190.196 165.711 190.432C165.693 190.549 165.104 192.08 163.302 192.071C162.015 192.071 161.744 191.229 161.725 190.404C162.631 190.404 163.193 191.011 163.347 191.718H163.61L164.135 187.941H163.754C163.093 188.991 162.667 189.227 161.771 189.227L161.78 189.254ZM162.061 183.548H162.052C161.789 183.548 161.68 183.43 161.716 183.194C161.753 182.959 161.898 182.85 162.16 182.85C162.287 182.85 162.396 182.968 162.369 183.203C162.341 183.43 162.196 183.557 162.07 183.557L162.061 183.548ZM161.472 181.31C161.816 181.31 162.006 181.193 162.042 180.957L162.088 180.613C162.133 180.26 162.269 180.26 162.523 180.26C162.658 180.26 162.785 180.26 162.74 180.613L162.686 180.966C162.656 181.202 162.81 181.319 163.148 181.319C163.664 181.319 163.899 181.446 163.89 181.555C163.872 181.682 163.736 181.79 163.474 181.79C163.474 181.79 162.459 181.664 162.332 181.664C162.07 181.664 161.028 181.772 161.028 181.772C160.765 181.772 160.792 181.655 160.811 181.537C160.829 181.419 160.955 181.301 161.445 181.301H161.49L161.472 181.31ZM162.224 176.926C162.323 177.162 162.532 177.524 162.514 177.642L162.459 177.995C162.206 177.995 161.825 177.995 161.336 177.751L161.173 178.937C161.499 178.847 161.816 178.828 162.124 178.828C162.206 178.828 162.278 178.828 162.36 178.828L162.323 179.064C162.296 179.299 161.816 179.888 161.39 180.241C160.992 180.359 160.648 180.948 160.566 181.537C160.466 182.252 160.711 182.361 161.028 182.841L160.602 183.077L160.521 183.665C160.521 183.665 160.457 183.72 160.222 183.72C160.104 183.72 159.95 183.702 159.742 183.665C160.013 183.548 160.312 183.312 160.34 183.077C160.503 182.841 160.303 182.479 160.059 182.361C159.986 182.334 159.914 182.325 159.841 182.325C159.533 182.325 159.234 182.515 159.108 182.705C159.08 182.914 159.035 183.222 159.099 183.457C159.053 183.421 158.972 183.412 158.881 183.412C158.646 183.294 158.51 183.294 158.274 183.176C158.546 183.058 158.709 182.832 158.845 182.714C158.899 182.361 158.818 181.999 158.455 181.881C158.392 181.863 158.329 181.854 158.265 181.854C157.984 181.854 157.758 182.062 157.613 182.352C157.468 182.47 157.441 182.696 157.531 182.941C157.287 182.823 156.916 182.705 156.544 182.578C156.816 182.461 156.988 182.234 157.015 181.99C157.06 181.645 156.843 181.401 156.454 181.392C156.064 181.392 155.765 181.627 155.72 181.981C155.702 182.098 155.801 182.334 155.892 182.578C155.81 182.533 155.711 182.524 155.602 182.524C155.394 182.524 155.167 182.569 154.995 182.569C155.149 182.334 155.194 182.098 155.222 181.863C155.158 181.591 154.859 181.455 154.606 181.455C154.524 181.455 154.443 181.473 154.379 181.501C153.981 181.618 153.8 181.962 153.881 182.325C153.99 182.452 154.089 182.678 154.216 182.687C154.071 182.805 153.79 182.923 153.519 183.031C153.682 182.796 153.591 182.56 153.492 182.316C153.374 182.198 153.22 182.135 153.039 182.135C152.857 182.135 152.667 182.189 152.459 182.307C152.169 182.542 152.115 182.895 152.341 183.131C152.45 183.249 152.694 183.366 152.803 183.484C152.658 183.602 152.513 183.72 152.232 183.837C152.26 183.602 152.024 183.484 151.915 183.357C151.816 183.321 151.725 183.312 151.626 183.312C151.354 183.312 151.091 183.448 150.964 183.711C150.783 184.064 150.865 184.426 151.236 184.535H151.743C151.598 184.662 151.435 184.888 151.417 185.015C151.308 184.888 151.064 184.779 150.81 184.779C150.738 184.752 150.674 184.743 150.611 184.743C150.339 184.743 150.14 184.952 150.095 185.241C149.923 185.595 150.131 185.957 150.511 185.957C150.774 185.957 150.901 185.957 151.173 185.839L151.082 186.437C150.964 186.374 150.801 186.346 150.638 186.346C150.475 186.346 150.321 186.374 150.185 186.437C149.914 186.555 149.732 186.908 149.832 187.144C149.895 187.415 150.113 187.551 150.339 187.551C150.412 187.551 150.484 187.533 150.548 187.506C150.81 187.506 150.973 187.27 151.118 187.153C151.2 187.506 151.29 187.75 151.29 187.75L151.272 187.868H150.502C150.231 187.977 149.923 188.33 149.995 188.692C150.086 188.928 150.457 189.046 150.72 189.055L150.539 189.399L151.979 193.901L151.616 194.607L152.232 194.843L152.513 195.558C154.877 194.879 157.812 194.544 160.349 194.544C160.403 194.544 160.457 194.544 160.512 194.544C162.957 194.562 165.874 194.933 168.093 195.658L168.583 194.942L169.262 194.707L169.099 194L171.78 189.517L171.699 189.163H171.726C171.988 189.163 172.369 189.046 172.523 188.819C172.704 188.475 172.496 188.113 172.251 187.995C172.133 187.932 172.007 187.904 171.871 187.904C171.744 187.904 171.608 187.932 171.481 187.986L171.499 187.868C171.499 187.868 171.662 187.633 171.834 187.279L172.17 187.633C172.269 187.669 172.36 187.678 172.459 187.678C172.731 187.678 172.985 187.542 173.121 187.279C173.284 187.044 173.202 186.691 172.849 186.455C172.713 186.455 172.333 186.455 172.052 186.573L172.142 185.975C172.405 185.975 172.514 186.102 172.767 186.102C173.166 185.984 173.456 185.758 173.383 185.395C173.429 185.042 173.075 184.798 172.822 184.798C172.55 184.915 172.269 185.033 172.124 185.142C172.151 185.024 172.043 184.789 171.934 184.671C172.197 184.671 172.324 184.671 172.468 184.553C172.867 184.435 173.048 184.091 172.958 183.847C172.894 183.575 172.668 183.448 172.387 183.448C172.296 183.448 172.197 183.457 172.106 183.484C171.961 183.611 171.689 183.72 171.526 183.955C171.418 183.837 171.318 183.602 171.209 183.484C171.336 183.484 171.608 183.366 171.753 183.249C172.043 183.013 171.961 182.651 171.753 182.424C171.644 182.307 171.49 182.243 171.318 182.243C171.164 182.243 171.01 182.298 170.874 182.397L170.847 182.415C170.693 182.651 170.521 182.886 170.494 183.122C170.385 183.004 170.141 182.886 169.896 182.769C170.168 182.651 170.322 182.533 170.476 182.298C170.639 182.062 170.557 181.709 170.195 181.582C170.104 181.555 170.005 181.537 169.914 181.537C169.642 181.537 169.38 181.664 169.244 181.926C169.099 182.044 169.18 182.397 169.28 182.642C168.909 182.515 168.655 182.515 168.392 182.515C168.537 182.397 168.7 182.162 168.718 182.044C168.764 181.691 168.41 181.446 168.148 181.446C167.758 181.446 167.342 181.682 167.296 182.035C167.26 182.27 167.486 182.506 167.595 182.624C167.323 182.741 166.916 182.859 166.662 182.859C166.68 182.741 166.843 182.506 166.735 182.388C166.671 182.098 166.418 181.881 166.173 181.881C166.119 181.881 166.073 181.89 166.028 181.908C165.63 182.026 165.322 182.379 165.412 182.615C165.503 182.85 165.602 183.095 165.847 183.212C165.584 183.212 165.312 183.33 165.168 183.448C165.032 183.448 164.905 183.448 164.769 183.566C165.05 183.33 165.104 182.977 165.014 182.741C165.041 182.551 164.805 182.352 164.497 182.352C164.434 182.352 164.361 182.361 164.289 182.379C163.89 182.497 163.727 182.723 163.8 183.086C163.773 183.321 163.99 183.557 164.235 183.683C164.026 183.72 163.854 183.729 163.727 183.729C163.447 183.729 163.329 183.674 163.329 183.674L163.41 183.086L163.193 182.85C163.637 182.379 163.918 182.261 164.017 181.555C164.099 180.957 163.918 180.368 163.564 180.133C163.084 179.897 162.912 179.299 162.939 179.064L162.966 178.828C163.229 178.828 163.745 178.828 163.981 178.955L164.162 177.651C163.673 177.959 163.41 178.004 163.184 178.004C163.148 178.004 163.12 178.004 163.084 178.004L163.129 177.66C163.157 177.533 163.456 177.189 163.619 176.944H162.206" fill="#4B6167"/>
<path d="M152.74 200.187C152.74 200.187 152.622 201.962 152.359 203.846C152.106 205.622 151.671 207.859 151.671 207.859L153.727 207.877C153.727 207.877 153.908 205.857 154.098 204.335L156.173 207.886L158.356 207.904L155.53 203.42C155.656 203.33 155.792 203.248 155.928 203.158C156.508 202.687 159.171 200.223 159.171 200.223H157.885L156.091 201.971C155.602 202.451 154.551 203.384 154.171 203.719C154.388 202.198 154.796 200.187 154.796 200.187L152.731 200.169" fill="#4B6167"/>
<path d="M140.892 200.105L140.239 204.716C140.158 205.304 139.533 207.895 143.401 207.922H143.473C147.269 207.922 147.468 205.576 147.839 203.81L148.356 200.151H147.196L146.607 204.272C146.399 205.803 145.928 207.333 143.89 207.333H143.863C141.29 207.315 142.087 204.362 142.25 203.185L142.676 200.114L140.873 200.096" fill="#4B6167"/>
<path d="M166.101 205.006L163.881 204.987C164.697 203.475 165.294 202.515 165.294 202.515C165.294 202.515 165.756 203.864 166.101 204.997V205.006ZM165.602 200.268C165.602 200.268 163.102 204.39 162.55 205.567C161.879 206.627 161.055 207.922 161.055 207.922H162.215C162.215 207.922 162.658 206.989 163.456 205.694L166.3 205.712C166.517 206.862 166.843 207.967 166.843 207.967L168.909 207.986C168.909 207.986 168.284 205.975 167.65 204.073C167.278 203.013 166.626 200.286 166.626 200.286H165.593" fill="#4B6167"/>
<path d="M176.028 200.223C173.99 200.223 173.021 201.627 172.894 202.569C172.758 203.511 173.438 204.227 174.271 204.707C175.123 205.069 176.219 205.549 176.119 206.256C176.01 207.08 175.557 207.551 174.289 207.551H174.262C172.994 207.424 172.885 206.355 172.885 206.355H172.758L172.188 207.65C172.188 207.65 172.514 208.121 174.19 208.14H174.235C176.019 208.14 177.414 207.207 177.614 205.803C177.813 204.381 176.726 203.783 175.757 203.42C174.797 202.94 174.489 202.352 174.534 201.998C174.606 201.527 174.941 200.948 175.956 200.948H175.974C177.007 200.948 177.269 201.781 177.269 201.781L177.514 201.899L177.94 200.721C177.94 200.721 177.36 200.241 176.074 200.232H176.047" fill="#4B6167"/>
</svg>
