<svg width="46" height="34" viewBox="0 0 46 34" fill="none" xmlns="http://www.w3.org/2000/svg">
<path d="M42 33H4C2.343 33 1 31.657 1 30V4C1 2.343 2.343 1 4 1H31H42C43.657 1 45 2.343 45 4V30C45 31.657 43.657 33 42 33Z" stroke="#38474B" stroke-width="2" stroke-miterlimit="10" stroke-linecap="square"/>
<path d="M9.533 17.429H11.863L10.698 14.572L9.533 17.429ZM42 12H36.031L34.575 13.571L33.264 12H20.598L19.433 14.571L18.268 12H13.172V13.143L12.59 12H8.222L4 22H9.096L9.678 20.429H11.134L11.716 22H17.394V20.857L17.831 22H20.743L21.18 20.714V22H32.828L34.284 20.429L35.594 22H41.563L37.778 17L42 12ZM24.383 20.571H22.781V15L20.306 20.571H18.85L16.375 15V20.571H13.026L12.444 19H8.95L8.368 20.571H6.475L9.532 13.428H12.007L14.773 20.142V13.428H17.539L19.723 18.285L21.761 13.428H24.527V20.571H24.383ZM38.797 20.571H36.613L34.72 18.142L32.536 20.571H25.984V13.428H32.681L34.719 15.714L36.903 13.428H38.941L35.739 17L38.797 20.571ZM27.586 14.857V16.143H31.226V17.572H27.586V19H31.663L33.556 16.857L31.809 14.857H27.586Z" fill="#38474B"/>
</svg>
