<svg width="46" height="34" viewBox="0 0 46 34" fill="none" xmlns="http://www.w3.org/2000/svg">
<path d="M42 33H4C2.343 33 1 31.657 1 30V4C1 2.343 2.343 1 4 1H31H42C43.657 1 45 2.343 45 4V30C45 31.657 43.657 33 42 33Z" stroke="#38474B" stroke-width="2" stroke-miterlimit="10" stroke-linecap="square"/>
<path fill-rule="evenodd" clip-rule="evenodd" d="M30.7359 21.206C30.3129 22.143 30.1109 22.561 29.5659 23.389C28.8069 24.545 27.7359 25.985 26.4089 25.997C25.2299 26.008 24.9269 25.23 23.3269 25.239C21.7269 25.248 21.3929 26.011 20.2139 26C18.8869 25.988 17.8729 24.688 17.1129 23.531C14.9889 20.298 14.7669 16.504 16.0769 14.487C17.0079 13.053 18.4769 12.215 19.8579 12.215C21.2639 12.215 22.1479 12.986 23.3109 12.986C24.4389 12.986 25.1259 12.214 26.7519 12.214C27.9809 12.214 29.2829 12.883 30.2109 14.039C27.1709 15.705 27.6649 20.045 30.7359 21.206Z" fill="#38474B"/>
<path fill-rule="evenodd" clip-rule="evenodd" d="M25.5192 10.922C26.1102 10.164 26.5582 9.094 26.3952 8C25.4302 8.066 24.3022 8.68 23.6432 9.48C23.0452 10.206 22.5512 11.283 22.7432 12.33C23.7962 12.363 24.8862 11.734 25.5192 10.922Z" fill="#38474B"/>
</svg>
