<svg width="165" height="40" viewBox="0 0 165 40" fill="none" xmlns="http://www.w3.org/2000/svg">
<path d="M15.5256 0.826874C16.0424 0.516796 16.5592 0.206718 17.076 0C17.2827 0.516796 17.5928 1.03359 17.7995 1.55039C16.6626 2.17054 15.5256 2.68734 14.492 3.41085C11.598 5.16796 8.91062 7.23514 6.63672 9.81912C4.87961 11.8863 3.43258 14.3669 3.1225 17.1576C3.01914 18.8114 3.32922 20.5685 4.36281 21.9121C5.29305 23.0491 6.74008 23.876 8.1871 24.0827C9.84085 24.3928 11.598 24.1861 13.1483 23.7726C16.3525 22.9457 19.2465 21.3954 22.0372 19.7416C23.691 18.708 25.3447 17.6744 26.6884 16.2274C27.2052 15.6072 27.6186 14.8837 27.6186 14.0568C27.6186 13.4367 27.2052 12.8165 26.6884 12.6098C26.1716 12.2997 25.4481 12.1964 24.8279 12.2997C24.0011 12.5065 23.1742 12.9199 22.3473 13.3333C19.97 14.5736 17.9029 16.2274 15.5256 17.4677C14.0786 18.1912 12.5282 18.9147 10.8744 18.9147C9.84085 18.9147 8.80726 18.5013 8.1871 17.6744C7.67031 17.0543 7.46359 16.3308 7.56695 15.5039C7.67031 14.2636 8.1871 13.0233 8.91062 12.093C10.2543 10.2326 12.1148 8.88889 14.0786 7.75194C17.3861 5.5814 21.0036 3.82429 24.8279 2.7907C26.8951 2.2739 28.9623 1.96382 31.0295 2.06718C34.0269 2.17054 37.0243 3.10078 39.5049 4.85788C42.399 6.92507 44.5695 10.2326 44.7762 13.8501C45.0863 16.8475 44.1561 19.845 42.8124 22.5323C41.7788 24.5995 40.3318 26.46 38.7814 28.1137C37.5411 29.4574 36.1974 30.6977 34.8538 31.8346C33.0967 33.385 31.1328 34.7287 29.169 35.969C27.2052 37.2093 25.0346 38.2429 22.8641 39.1731C22.244 39.4832 21.5204 39.7933 20.9003 40C20.4868 38.1395 19.8667 36.2791 19.4533 34.4186C21.2104 33.5917 22.9675 32.8682 24.7246 31.938C26.6884 30.9044 28.5489 29.5607 30.306 28.2171C31.8564 26.9767 33.3034 25.7364 34.6471 24.2894C36.921 21.9121 38.7814 18.8114 39.1949 15.5039C39.2982 14.2636 39.2982 13.1266 38.9881 11.8863C38.2646 9.40569 36.5075 7.23514 34.1303 5.99483C32.1664 4.96124 29.8925 4.5478 27.722 4.75452C24.5179 4.96124 21.5204 6.20155 18.7297 7.64858C17.3861 8.37209 16.1458 9.09561 14.9054 9.92248C13.6651 10.646 12.5282 11.4729 11.598 12.6098C11.1845 13.1266 10.8744 13.7468 10.8744 14.3669C10.8744 14.7804 11.1845 15.2972 11.598 15.4005C12.3215 15.7106 13.1483 15.4005 13.8719 15.0904C17.2827 13.4367 20.1768 10.8527 23.7943 9.6124C25.5514 8.99225 27.6186 8.88889 29.3757 9.6124C30.8228 10.2326 31.9597 11.5762 32.2698 13.1266C32.3731 14.0569 32.3731 14.9871 32.0631 15.814C31.5463 17.1576 30.7194 18.2946 29.6858 19.3282C28.4455 20.5685 26.9985 21.6021 25.5514 22.5323C23.4843 23.6693 21.5204 25.0129 19.3499 25.9432C17.4894 26.77 15.4222 27.4935 13.4584 28.0103C11.1845 28.6305 8.80726 28.7339 6.53336 28.2171C4.25945 27.7003 2.39899 26.46 1.3654 24.7028C0.435165 23.2558 0.0217285 21.4987 0.0217285 19.845C0.125088 17.8811 0.538524 15.9173 1.3654 14.1602C2.81243 11.1628 4.98297 8.47545 7.56695 6.30491C10.0476 4.13437 12.7349 2.2739 15.629 0.723514L15.5256 0.826874Z" fill="#38474B"/>
<path d="M39.2981 15.0904C39.2981 14.4703 39.2981 13.8501 39.2981 13.23C39.4015 13.8501 39.4015 14.4703 39.2981 15.0904ZM55.2154 14.7804C56.4557 14.0569 57.9027 14.0569 59.2464 14.3669C59.9699 14.4703 60.5901 14.9871 61.1069 15.5039C60.6934 15.9173 60.28 16.3308 59.7632 16.7442C58.9363 15.6072 57.1792 15.4005 56.0423 16.124C55.3188 16.6408 55.1121 17.7778 55.6288 18.5013C56.1456 19.1215 56.9725 19.3282 57.7994 19.6382C58.7296 19.845 59.7632 20.155 60.4867 20.9819C61.2102 21.7054 61.3136 22.739 61.2102 23.6693C61.1069 24.7028 60.4867 25.6331 59.5565 26.1499C58.6263 26.6667 57.5927 26.8734 56.5591 26.77C55.3188 26.6667 54.0785 26.1499 53.3549 25.1163C53.7684 24.7029 54.2852 24.2894 54.6986 23.9793C55.6288 25.323 57.696 25.7364 58.9363 24.7028C59.6599 24.1861 59.8666 23.0491 59.2464 22.3256C58.6263 21.7054 57.696 21.4987 56.8692 21.292C55.9389 20.9819 55.0087 20.5685 54.3885 19.7416C53.8717 19.1215 53.7684 18.1912 53.7684 17.3643C53.8717 16.3308 54.4919 15.5039 55.3188 14.9871L55.2154 14.7804ZM107.205 14.7804C108.549 14.0569 110.202 13.9535 111.65 14.2636C112.786 14.4703 113.82 14.8837 114.544 15.7106C114.13 16.124 113.82 16.5375 113.407 16.9509C111.753 15.4005 108.859 15.1938 107.205 16.8476C105.448 18.3979 105.241 21.292 106.482 23.1525C107.205 24.1861 108.239 24.9096 109.479 25.1163C110.719 25.2196 111.96 25.1163 113.097 24.5995C113.097 23.4625 113.097 22.4289 113.097 21.292C112.27 21.292 111.339 21.292 110.513 21.292C110.513 20.7752 110.513 20.2584 110.513 19.7416C111.96 19.7416 113.303 19.7416 114.75 19.7416C114.75 21.6021 114.75 23.5659 114.75 25.4264C114.75 25.6331 114.544 25.7364 114.337 25.8398C112.786 26.5633 111.133 26.77 109.479 26.6667C107.722 26.5633 106.068 25.6331 105.138 24.1861C104.104 22.739 103.794 20.8786 104.104 19.2248C104.414 17.3643 105.551 15.7106 107.308 14.8837L107.205 14.7804ZM69.8924 14.3669C72.4764 14.3669 74.957 14.3669 77.541 14.3669C77.541 14.8837 77.541 15.4005 77.541 15.9173C75.4738 15.9173 73.51 15.9173 71.4428 15.9173C71.4428 17.0543 71.4428 18.2946 71.4428 19.4315C73.3033 19.4315 75.1637 19.4315 77.0242 19.4315C77.0242 19.9483 77.0242 20.4651 77.0242 20.9819C75.1637 20.9819 73.3033 20.9819 71.4428 20.9819C71.4428 22.2222 71.3394 23.4625 71.4428 24.7028C71.8562 24.8062 72.373 24.7028 72.7865 24.7028C74.4402 24.7028 76.094 24.7028 77.7477 24.7028C77.7477 25.2196 77.7477 25.7364 77.7477 26.2532C75.0604 26.2532 72.4764 26.2532 69.7891 26.2532C69.7891 22.3256 69.7891 18.2946 69.7891 14.3669H69.8924ZM90.2542 14.3669C90.771 14.3669 91.2878 14.3669 91.7012 14.3669C93.3549 18.2946 95.1121 22.2222 96.7658 26.2532C96.1456 26.2532 95.5255 26.3566 94.9053 26.2532C94.4919 25.323 94.0785 24.2894 93.665 23.3592C91.8046 23.3592 89.9441 23.3592 88.0836 23.3592C87.6702 24.2894 87.3601 25.323 86.9467 26.2532C86.3265 26.2532 85.7064 26.2532 85.0862 26.2532C86.74 22.3256 88.6004 18.2946 90.2542 14.3669ZM127.774 14.3669C128.29 14.3669 128.807 14.3669 129.221 14.3669C130.874 18.2946 132.631 22.2222 134.285 26.2532C133.665 26.2532 133.045 26.3566 132.425 26.2532C131.908 25.323 131.598 24.2894 131.184 23.3592C129.324 23.3592 127.463 23.3592 125.603 23.3592C125.19 24.2894 124.88 25.323 124.466 26.2532C123.846 26.3566 123.226 26.2532 122.606 26.2532C124.363 22.3256 126.12 18.2946 127.877 14.3669H127.774ZM139.246 14.3669C142.347 14.3669 145.448 14.3669 148.549 14.3669C148.549 14.8837 148.549 15.4005 148.549 15.9173C147.308 15.9173 145.965 15.9173 144.724 15.9173C144.724 19.3282 144.724 22.8424 144.724 26.2532C144.208 26.2532 143.691 26.2532 143.071 26.2532C143.071 22.8424 143.071 19.3282 143.071 15.9173C141.83 15.9173 140.487 15.9173 139.246 15.9173C139.246 15.4005 139.246 14.8837 139.246 14.3669ZM156.611 14.3669C159.195 14.3669 161.675 14.3669 164.259 14.3669C164.259 14.8837 164.259 15.4005 164.259 15.9173C162.296 15.9173 160.228 15.9173 158.265 15.9173C158.265 17.0543 158.265 18.2946 158.265 19.4315C160.125 19.4315 161.985 19.4315 163.949 19.4315C163.949 19.9483 163.949 20.4651 163.949 20.9819C162.089 20.9819 160.228 20.9819 158.265 20.9819C158.265 22.2222 158.265 23.4625 158.265 24.7028C160.332 24.7028 162.502 24.7028 164.569 24.7028C164.569 25.2196 164.569 25.7364 164.569 26.2532C161.882 26.2532 159.298 26.2532 156.611 26.2532C156.611 22.3256 156.611 18.2946 156.611 14.3669Z" fill="#38474B"/>
<path d="M88.7039 21.9121C89.4274 20.155 90.1509 18.2946 90.9778 16.5374C91.7013 18.2946 92.4248 20.155 93.1483 21.9121C91.7013 21.9121 90.1509 21.9121 88.7039 21.9121ZM126.223 21.9121C126.947 20.155 127.67 18.2946 128.497 16.5374C129.221 18.2946 129.944 20.155 130.668 21.9121C129.221 21.9121 127.67 21.9121 126.223 21.9121Z" fill="#FBF8ED"/>
</svg>
