<svg width="89" height="50" viewBox="0 0 89 50" fill="none" xmlns="http://www.w3.org/2000/svg">
<path fill-rule="evenodd" clip-rule="evenodd" d="M58.8274 3.53839C56.6118 1.32273 52.981 0 49.1153 0C42.583 0 37.2683 3.72223 37.2683 8.29749C37.2683 10.0137 38.0067 11.6591 39.4042 13.0566C41.6198 15.2723 45.2507 16.595 49.1153 16.595C52.981 16.595 56.6123 15.2723 58.8274 13.0566C60.2244 11.6591 60.9633 10.0137 60.9633 8.29749C60.9633 6.58133 60.2244 4.93587 58.8274 3.53839Z" fill="#FBF8ED"/>
<path fill-rule="evenodd" clip-rule="evenodd" d="M48.99 11.8081C47.4698 11.8359 46.087 12.0192 44.8844 12.2576C44.2415 10.6586 44.2112 9.07682 44.2178 8.63237H48.99V11.8081ZM44.5723 4.24852C44.1153 5.27731 43.7935 6.55509 43.7319 8.13035H40.4531C40.5026 6.50004 41.2753 4.98337 42.5784 3.73842C43.143 3.90862 43.8142 4.08842 44.5723 4.24852ZM43.0183 3.346C44.0552 2.47781 45.3648 1.76518 46.8698 1.26973C46.1653 1.82074 45.3981 2.62731 44.7966 3.78438C44.1984 3.66111 43.6052 3.51488 43.0183 3.346ZM43.7168 8.63237C43.7163 9.08995 43.7658 10.698 44.4142 12.3561C43.7936 12.4915 43.1785 12.6511 42.5703 12.8344C41.3183 11.6334 40.5551 10.1844 40.4587 8.63237H43.7168ZM44.6132 12.8248C44.9956 13.6516 45.541 14.4642 46.3168 15.1263C45.0385 14.6415 43.9173 13.994 43.0067 13.2278C43.4789 13.0915 44.0183 12.9521 44.6132 12.8248ZM48.99 8.13035H44.2339C44.2971 6.5758 44.6168 5.33489 45.0642 4.34701C46.2163 4.5662 47.5587 4.73287 48.99 4.76115V8.13035ZM48.99 0.749526V4.26115C47.7492 4.2334 46.5125 4.10622 45.292 3.88085C46.3218 1.95862 47.8223 1.13084 48.5501 0.826294C48.6824 0.799526 48.8557 0.773768 48.99 0.749526ZM47.3405 0.602051C45.3875 1.15104 43.7122 2.0465 42.4531 3.17529C42.0265 3.04136 41.6047 2.89244 41.1885 2.72882C42.8693 1.59953 45.0188 0.855587 47.3405 0.602051Z" fill="#38474B"/>
<path fill-rule="evenodd" clip-rule="evenodd" d="M39.7593 3.8935C40.0563 3.59899 40.3728 3.3248 40.7067 3.07279C40.8683 3.14249 41.335 3.33643 42.0416 3.56875C40.7562 4.87229 39.9986 6.44351 39.9512 8.13038H37.7749C37.8219 6.61017 38.5042 5.14855 39.7593 3.8935ZM39.7593 12.7021C38.5502 11.493 37.8719 10.0925 37.782 8.6329H39.9567C40.0481 10.241 40.7961 11.7455 42.0325 13.0046C41.5761 13.1522 41.1265 13.3199 40.685 13.5072C40.359 13.2595 40.0497 12.9906 39.7593 12.7021ZM41.1643 13.8511C41.5852 13.6845 42.0121 13.5334 42.4441 13.3981C43.7098 14.5375 45.3961 15.443 47.3613 15.9961C45.0209 15.743 42.8537 14.9925 41.1643 13.8511ZM48.3244 15.7203C46.6739 15.1178 45.6855 13.9506 45.0941 12.7268C46.3784 12.4752 47.6821 12.3351 48.9906 12.3082V15.8582C48.7512 15.8173 48.5562 15.7718 48.3244 15.7203ZM58.4724 3.8935C59.727 5.14855 60.4098 6.61017 60.4563 8.13038H58.4052C58.3568 6.44856 57.5719 4.86118 56.2507 3.54299C56.6411 3.3935 57.0153 3.19249 57.4047 3.00916C57.7957 3.29552 58.1441 3.56522 58.4724 3.8935ZM53.9073 12.3097C54.5366 10.6753 54.5871 9.09705 54.5871 8.6324H57.8987C57.8012 10.1849 57.0254 11.641 55.7593 12.8481C55.1521 12.6354 54.5338 12.4557 53.9073 12.3097ZM55.332 13.2314C54.4047 14.0107 53.2588 14.6668 51.9537 15.1541C52.7618 14.4753 53.3229 13.6339 53.7113 12.7794C54.2477 12.9026 54.7891 13.0511 55.332 13.2314Z" fill="#38474B"/>
<path fill-rule="evenodd" clip-rule="evenodd" d="M54.5723 8.13034C54.5122 6.57932 54.2005 5.31569 53.7546 4.29498C54.4244 4.14497 55.0851 3.95678 55.7334 3.73134C57.0601 4.9874 57.8521 6.51316 57.9036 8.13034H54.5723ZM53.5334 3.83084C52.9217 2.6374 52.1339 1.81215 51.4137 1.25356C52.9288 1.75053 54.2515 2.47225 55.301 3.34801C54.7207 3.54001 54.1307 3.70118 53.5334 3.83084ZM56.9849 2.69144C56.6051 2.86366 56.2243 3.01871 55.8435 3.15861C54.5985 2.05457 52.9622 1.16921 51.0652 0.620728C53.2945 0.88891 55.3551 1.61164 56.9849 2.69144ZM49.4919 0.758608C49.5798 0.77477 49.6263 0.79194 49.7137 0.809617C50.4308 1.10305 51.9894 1.93891 53.0379 3.93184C51.8687 4.15207 50.6817 4.26383 49.4919 4.26569V0.758608ZM49.4919 4.76569C50.7582 4.76438 52.0214 4.64143 53.2642 4.39851C53.699 5.37781 54.0091 6.60306 54.0702 8.13034H49.4924V4.76569H49.4919ZM49.4919 8.63236H54.0859C54.092 9.08337 54.0591 10.6314 53.4379 12.2071C52.1393 11.943 50.8177 11.8082 49.4924 11.8046V8.63236H49.4919ZM49.4919 15.8213V12.3051C50.6778 12.3117 51.952 12.4202 53.2344 12.6773C52.6374 13.9349 51.6283 15.141 49.9182 15.745C49.7909 15.7723 49.6222 15.797 49.4919 15.8213ZM51.0576 15.9763C52.9723 15.4258 54.6218 14.5349 55.8702 13.4213C56.25 13.5612 56.6298 13.7167 57.0086 13.8889C55.4066 14.9576 53.349 15.7036 51.0576 15.9763ZM57.396 13.5819C57.0142 13.4031 56.6591 13.1849 56.2773 13.0374C57.5399 11.7687 58.3066 10.25 58.4 8.63236H60.448C60.3288 10.5657 59.2061 12.2612 57.396 13.5819Z" fill="#38474B"/>
<path fill-rule="evenodd" clip-rule="evenodd" d="M82.3511 23.7818C80.9516 18.6344 76.6486 16.5177 73.2365 16.7601C67.9481 17.099 65.4021 21.3662 64.7405 23.8031L58.5753 49.4526H62.5642L68.5511 24.7733C68.9132 23.4404 70.4142 20.8712 73.4971 20.6834C74.8319 20.5818 77.6036 21.3061 78.5486 24.7849L84.8233 49.4526H88.7622L82.3511 23.7818Z" fill="#FBF8ED"/>
<path fill-rule="evenodd" clip-rule="evenodd" d="M73.5885 22.0188C70.7269 22.193 69.8956 24.9405 69.8441 25.1193L66.5476 38.7122H80.684L77.2532 25.1238C76.3714 21.8809 73.7077 22.0112 73.5885 22.0188Z" fill="#FBF8ED"/>
<path fill-rule="evenodd" clip-rule="evenodd" d="M71.5476 34.7803L73.5501 26.5237L75.6355 34.7803H71.5476Z" fill="#38474B"/>
<path fill-rule="evenodd" clip-rule="evenodd" d="M66.2218 40.0516L63.9905 49.4521H68.0208L69.3147 43.9834H77.9577L79.5865 49.4521H83.3991C83.3991 49.4521 82.391 45.4749 81.0218 40.0516H66.2218ZM53.2995 17.9945V49.4527H57.4829V17.9945H53.2995ZM37.0434 45.2254C39.4243 45.2678 40.0748 42.5612 40.099 42.4496L45.9036 17.9945H42.0162L36.8429 39.8602L30.9086 17.9945H26.9965L33.6389 42.4289C34.2894 45.2895 36.7727 45.2425 37.0434 45.2254Z" fill="#FBF8ED"/>
<path fill-rule="evenodd" clip-rule="evenodd" d="M41.7299 42.8248L41.7349 42.8021C41.437 44.2354 40.0839 46.9233 37.0976 46.8975C35.6622 46.9915 32.7986 46.2768 32.0157 42.8334L25.2708 17.9944H21.3031L27.5682 40.845H20.8177C19.9399 40.8263 18.3071 40.2425 19.4889 38.3829C20.2329 37.0995 21.2354 35.5142 21.5485 34.8556C23.1415 32.1914 24.548 26.5717 20.3788 21.3975C20.0182 20.9879 16.6824 17.3682 11.7329 17.3369C11.1263 17.3172 8.70961 17.3333 6.16617 18.6646C4.06213 19.7646 0.466668 22.5621 0.0116165 28.9298L0 49.4526H3.76516L3.76617 29.2278C4.349 21.0692 11.2581 21.0914 11.6116 21.1C15.0339 21.0717 17.4005 23.7111 17.4995 23.8237C20.995 28.1611 18.6566 32.3763 18.2 33.1041C18.0642 33.4394 17.6298 34.2849 16.1339 36.6425C15.099 38.8612 15.9829 41.343 16.0778 41.5945C17.4622 44.5026 20.4384 44.6011 20.6733 44.6112H28.6011C28.7844 45.1912 29.0243 45.7518 29.3172 46.2849H20.648C20.4763 46.2041 16.3228 46.1783 14.547 42.2723C14.4914 42.1369 13.2243 38.8581 14.6637 35.8399C15.501 34.5212 16.548 32.7349 16.6854 32.3874C16.7874 32.2414 19.2172 28.6399 16.2192 24.9025C16.0445 24.7147 14.1212 22.7384 11.5763 22.7727C11.3465 22.7642 5.92728 22.6384 5.4384 29.2919V49.4526H9.20406V29.4283C9.27578 28.5167 9.59901 26.5854 11.5475 26.5389C12.1783 26.5298 13.0268 26.9445 13.3748 27.3803C14.6122 29.0849 13.0475 31.2581 13.0475 31.2581C12.4864 32.0818 11.2424 34.2637 11.2424 34.2637C9.13032 38.692 10.9005 43.2975 11.1041 43.7945C13.3864 48.5874 18.1435 49.3253 20.5632 49.3799H33.6587C34.9026 49.8642 36.1622 50.04 37.2117 49.9925C41.843 49.9581 44.6971 47.0521 45.4082 43.6309L47.443 35.0349V49.4526H51.6264V17.9944H47.5319L41.7299 42.8248Z" fill="#FBF8ED"/>
</svg>
