<svg width="46" height="34" viewBox="0 0 46 34" fill="none" xmlns="http://www.w3.org/2000/svg">
<path d="M42 33H4C3.20435 33 2.44129 32.6839 1.87868 32.1213C1.31607 31.5587 1 30.7956 1 30V4C1 3.20435 1.31607 2.44129 1.87868 1.87868C2.44129 1.31607 3.20435 1 4 1H42C42.7956 1 43.5587 1.31607 44.1213 1.87868C44.6839 2.44129 45 3.20435 45 4V30C45 30.7956 44.6839 31.5587 44.1213 32.1213C43.5587 32.6839 42.7956 33 42 33Z" stroke="#38474B" stroke-width="2" stroke-miterlimit="10" stroke-linecap="square"/>
<path opacity="0.85" d="M18 25C22.4183 25 26 21.4183 26 17C26 12.5817 22.4183 9 18 9C13.5817 9 10 12.5817 10 17C10 21.4183 13.5817 25 18 25Z" fill="#38474B"/>
<path opacity="0.5" d="M28 25C32.4183 25 36 21.4183 36 17C36 12.5817 32.4183 9 28 9C23.5817 9 20 12.5817 20 17C20 21.4183 23.5817 25 28 25Z" fill="#38474B"/>
</svg>
