<svg width="46" height="34" viewBox="0 0 46 34" fill="none" xmlns="http://www.w3.org/2000/svg">
<path d="M42 33H4C2.343 33 1 31.657 1 30V4C1 2.343 2.343 1 4 1H31H42C43.657 1 45 2.343 45 4V30C45 31.657 43.657 33 42 33Z" stroke="#38474B" stroke-width="2" stroke-miterlimit="10" stroke-linecap="square"/>
<path d="M29.292 12.203H26.492C26.301 12.203 26.138 12.342 26.108 12.531L24.976 19.711C24.954 19.853 25.063 19.981 25.207 19.981H26.644C26.778 19.981 26.892 19.883 26.913 19.751L27.234 17.715C27.264 17.526 27.427 17.387 27.618 17.387H28.504C30.348 17.387 31.413 16.494 31.691 14.725C31.816 13.951 31.696 13.343 31.334 12.918C30.935 12.451 30.229 12.203 29.292 12.203ZM29.615 14.826C29.462 15.831 28.694 15.831 27.952 15.831H27.53L27.826 13.954C27.844 13.841 27.942 13.757 28.057 13.757C28.672 13.757 29.212 13.732 29.48 14.045C29.627 14.218 29.671 14.473 29.615 14.826Z" fill="#38474B"/>
<path d="M9.31981 12.203H6.51981C6.32881 12.203 6.16581 12.342 6.13581 12.531L5.00381 19.711C4.98181 19.853 5.09081 19.981 5.23481 19.981H6.57181C6.76281 19.981 6.92581 19.842 6.95581 19.653L7.26181 17.716C7.29181 17.527 7.45481 17.388 7.64581 17.388H8.53181C10.3758 17.388 11.4408 16.495 11.7188 14.726C11.8438 13.952 11.7238 13.344 11.3618 12.919C10.9618 12.451 10.2568 12.203 9.31981 12.203ZM9.64281 14.826C9.48981 15.831 8.72181 15.831 7.97981 15.831H7.55681L7.85281 13.954C7.87081 13.841 7.96881 13.757 8.08381 13.757H8.27781C8.78281 13.757 9.26081 13.757 9.50681 14.045C9.65381 14.218 9.69881 14.473 9.64281 14.826Z" fill="#38474B"/>
<path d="M17.6902 14.794H16.3492C16.2342 14.794 16.1362 14.878 16.1182 14.991L16.0592 15.366C15.9292 15.177 15.6702 14.668 14.3812 14.668C12.9002 14.668 11.6342 15.791 11.3882 17.365C11.2602 18.15 11.4422 18.901 11.8872 19.425C12.2962 19.906 12.8802 20.107 13.5762 20.107C14.7702 20.107 15.4322 19.34 15.4322 19.34L15.3722 19.713C15.3502 19.855 15.4592 19.983 15.6032 19.983H16.8112C17.0022 19.983 17.1652 19.844 17.1952 19.655L17.9202 15.065C17.9422 14.922 17.8332 14.794 17.6902 14.794ZM15.8212 17.404C15.6922 18.17 15.0832 18.684 14.3082 18.684C13.9192 18.684 13.6082 18.559 13.4082 18.322C13.2102 18.087 13.1352 17.753 13.1982 17.38C13.3192 16.621 13.9372 16.09 14.7012 16.09C15.0822 16.09 15.3912 16.216 15.5952 16.455C15.7992 16.696 15.8802 17.033 15.8212 17.404Z" fill="#38474B"/>
<path d="M37.6619 14.794H36.3209C36.2059 14.794 36.1079 14.878 36.0899 14.991L36.0309 15.366C35.9009 15.177 35.6419 14.668 34.3529 14.668C32.8719 14.668 31.6059 15.791 31.3599 17.365C31.2319 18.15 31.4139 18.901 31.8589 19.425C32.2679 19.906 32.8519 20.107 33.5479 20.107C34.7419 20.107 35.4039 19.34 35.4039 19.34L35.3439 19.713C35.3219 19.855 35.4309 19.983 35.5749 19.983H36.7829C36.9739 19.983 37.1369 19.844 37.1669 19.655L37.8919 15.065C37.9149 14.922 37.8049 14.794 37.6619 14.794ZM35.7929 17.404C35.6629 18.17 35.0549 18.684 34.2799 18.684C33.8909 18.684 33.5799 18.559 33.3799 18.322C33.1819 18.087 33.1069 17.753 33.1699 17.38C33.2909 16.621 33.9089 16.09 34.6729 16.09C35.0539 16.09 35.3629 16.216 35.5669 16.455C35.7709 16.696 35.8519 17.033 35.7929 17.404Z" fill="#38474B"/>
<path d="M24.8308 14.794H23.4828C23.3538 14.794 23.2338 14.858 23.1608 14.965L21.3018 17.703L20.5138 15.072C20.4648 14.907 20.3128 14.794 20.1408 14.794H18.8158C18.6558 14.794 18.5428 14.951 18.5948 15.103L20.0788 19.459L18.6828 21.429C18.5728 21.584 18.6838 21.797 18.8728 21.797H20.2188C20.3468 21.797 20.4658 21.734 20.5388 21.63L25.0208 15.161C25.1298 15.005 25.0188 14.794 24.8308 14.794Z" fill="#38474B"/>
<path d="M39.2422 12.401L38.0932 19.713C38.0712 19.855 38.1802 19.983 38.3242 19.983H39.4802C39.6712 19.983 39.8342 19.844 39.8642 19.655L40.9972 12.475C41.0192 12.333 40.9102 12.205 40.7662 12.205H39.4722C39.3582 12.203 39.2602 12.287 39.2422 12.401Z" fill="#38474B"/>
</svg>
