<svg width="46" height="34" viewBox="0 0 46 34" fill="none" xmlns="http://www.w3.org/2000/svg">
<path d="M42 33H4C2.343 33 1 31.657 1 30V4C1 2.343 2.343 1 4 1H31H42C43.657 1 45 2.343 45 4V30C45 31.657 43.657 33 42 33Z" stroke="#FBF8ED" stroke-width="2" stroke-miterlimit="10" stroke-linecap="square"/>
<path d="M29.292 12.2029H26.492C26.301 12.2029 26.138 12.3419 26.108 12.5309L24.976 19.7109C24.954 19.8529 25.063 19.9809 25.207 19.9809H26.644C26.778 19.9809 26.892 19.8829 26.913 19.7509L27.234 17.7149C27.264 17.5259 27.427 17.3869 27.618 17.3869H28.504C30.348 17.3869 31.413 16.4939 31.691 14.7249C31.816 13.9509 31.696 13.3429 31.334 12.9179C30.935 12.4509 30.229 12.2029 29.292 12.2029ZM29.615 14.8259C29.462 15.8309 28.694 15.8309 27.952 15.8309H27.53L27.826 13.9539C27.844 13.8409 27.942 13.7569 28.057 13.7569C28.672 13.7569 29.212 13.7319 29.48 14.0449C29.627 14.2179 29.671 14.4729 29.615 14.8259Z" fill="#FBF8ED"/>
<path d="M9.32005 12.2029H6.52005C6.32905 12.2029 6.16605 12.3419 6.13605 12.5309L5.00405 19.7109C4.98205 19.8529 5.09105 19.9809 5.23505 19.9809H6.57205C6.76305 19.9809 6.92605 19.8419 6.95605 19.6529L7.26205 17.7159C7.29205 17.5269 7.45505 17.3879 7.64605 17.3879H8.53205C10.3761 17.3879 11.4411 16.4949 11.7191 14.7259C11.8441 13.9519 11.7241 13.3439 11.3621 12.9189C10.9621 12.4509 10.2571 12.2029 9.32005 12.2029ZM9.64305 14.8259C9.49005 15.8309 8.72205 15.8309 7.98005 15.8309H7.55705L7.85305 13.9539C7.87105 13.8409 7.96905 13.7569 8.08405 13.7569H8.27805C8.78305 13.7569 9.26105 13.7569 9.50705 14.0449C9.65405 14.2179 9.69905 14.4729 9.64305 14.8259Z" fill="#FBF8ED"/>
<path d="M17.69 14.794H16.349C16.234 14.794 16.136 14.878 16.118 14.991L16.059 15.366C15.929 15.177 15.67 14.668 14.381 14.668C12.9 14.668 11.634 15.791 11.388 17.365C11.26 18.15 11.442 18.901 11.887 19.425C12.296 19.906 12.88 20.107 13.576 20.107C14.77 20.107 15.432 19.34 15.432 19.34L15.372 19.713C15.35 19.855 15.459 19.983 15.603 19.983H16.811C17.002 19.983 17.165 19.844 17.195 19.655L17.92 15.065C17.942 14.922 17.833 14.794 17.69 14.794ZM15.821 17.404C15.692 18.17 15.083 18.684 14.308 18.684C13.919 18.684 13.608 18.559 13.408 18.322C13.21 18.087 13.135 17.753 13.198 17.38C13.319 16.621 13.937 16.09 14.701 16.09C15.082 16.09 15.391 16.216 15.595 16.455C15.799 16.696 15.88 17.033 15.821 17.404Z" fill="#FBF8ED"/>
<path d="M37.662 14.794H36.321C36.206 14.794 36.108 14.878 36.09 14.991L36.031 15.366C35.901 15.177 35.642 14.668 34.353 14.668C32.872 14.668 31.606 15.791 31.36 17.365C31.232 18.15 31.414 18.901 31.859 19.425C32.268 19.906 32.852 20.107 33.548 20.107C34.742 20.107 35.404 19.34 35.404 19.34L35.344 19.713C35.322 19.855 35.431 19.983 35.575 19.983H36.783C36.974 19.983 37.137 19.844 37.167 19.655L37.892 15.065C37.915 14.922 37.805 14.794 37.662 14.794ZM35.793 17.404C35.663 18.17 35.055 18.684 34.28 18.684C33.891 18.684 33.58 18.559 33.38 18.322C33.182 18.087 33.107 17.753 33.17 17.38C33.291 16.621 33.909 16.09 34.673 16.09C35.054 16.09 35.363 16.216 35.567 16.455C35.771 16.696 35.852 17.033 35.793 17.404Z" fill="#FBF8ED"/>
<path d="M24.831 14.7939H23.483C23.354 14.7939 23.234 14.8579 23.161 14.9649L21.302 17.7029L20.514 15.0719C20.465 14.9069 20.313 14.7939 20.141 14.7939H18.816C18.656 14.7939 18.5429 14.9509 18.5949 15.1029L20.079 19.4589L18.683 21.4289C18.573 21.5839 18.6839 21.7969 18.8729 21.7969H20.219C20.347 21.7969 20.466 21.7339 20.539 21.6299L25.021 15.1609C25.13 15.0049 25.019 14.7939 24.831 14.7939Z" fill="#FBF8ED"/>
<path d="M39.242 12.4011L38.093 19.7131C38.071 19.8551 38.18 19.9831 38.324 19.9831H39.48C39.671 19.9831 39.834 19.8441 39.864 19.6551L40.997 12.4751C41.019 12.3331 40.91 12.2051 40.766 12.2051H39.472C39.358 12.2031 39.26 12.2871 39.242 12.4011Z" fill="#FBF8ED"/>
</svg>
