<svg width="46" height="34" viewBox="0 0 46 34" fill="none" xmlns="http://www.w3.org/2000/svg">
<path d="M42 33H4C3.20435 33 2.44129 32.6839 1.87868 32.1213C1.31607 31.5587 1 30.7956 1 30V4C1 3.20435 1.31607 2.44129 1.87868 1.87868C2.44129 1.31607 3.20435 1 4 1H42C42.7956 1 43.5587 1.31607 44.1213 1.87868C44.6839 2.44129 45 3.20435 45 4V30C45 30.7956 44.6839 31.5587 44.1213 32.1213C43.5587 32.6839 42.7956 33 42 33Z" stroke="#38474B" stroke-width="2" stroke-miterlimit="10" stroke-linecap="square"/>
<path fill-rule="evenodd" clip-rule="evenodd" d="M39.8749 17.234C39.8749 14.834 38.7129 12.941 36.4909 12.941C34.2689 12.941 32.9089 14.834 32.9089 17.216C32.9089 20.038 34.5029 21.462 36.7909 21.462C37.6957 21.4875 38.5916 21.2777 39.3909 20.853V18.978C38.6767 19.3319 37.8879 19.5089 37.0909 19.494C36.1809 19.494 35.3749 19.175 35.2719 18.069H39.8559C39.8559 17.947 39.8749 17.459 39.8749 17.234ZM35.2439 16.344C35.2439 15.284 35.8909 14.844 36.4809 14.844C37.0529 14.844 37.6629 15.284 37.6629 16.344H35.2439ZM29.2909 12.941C28.6069 12.9382 27.9482 13.2001 27.4529 13.672L27.3309 13.091H25.2689V24.022L27.6129 23.522L27.6219 20.869C28.091 21.25 28.6767 21.4583 29.2809 21.459C30.9589 21.459 32.4879 20.11 32.4879 17.138C32.4779 14.422 30.9309 12.941 29.2909 12.941ZM28.7279 19.4C28.5225 19.4123 28.3169 19.3792 28.1257 19.3029C27.9346 19.2267 27.7626 19.1093 27.6219 18.959L27.6129 15.481C27.7525 15.3258 27.9252 15.2041 28.1182 15.1246C28.3112 15.0452 28.5196 15.0101 28.7279 15.022C29.5809 15.022 30.1719 15.978 30.1719 17.206C30.1719 18.462 29.5909 19.4 28.7279 19.4ZM22.0439 12.387L24.3969 11.881V9.978L22.0439 10.475V12.387Z" fill="#38474B"/>
<path d="M22.0439 13.1H24.3969V21.303H22.0439V13.1Z" fill="#38474B"/>
<path fill-rule="evenodd" clip-rule="evenodd" d="M19.5219 13.794L19.3719 13.1H17.3469V21.3H19.6909V15.744C19.9055 15.4947 20.1896 15.315 20.5069 15.2281C20.8241 15.1412 21.1601 15.1509 21.4719 15.256V13.1C21.1175 12.9638 20.7261 12.959 20.3685 13.0863C20.0108 13.2135 19.7105 13.4646 19.5219 13.794ZM14.8339 11.066L12.5469 11.553L12.5369 19.062C12.5294 19.3822 12.5872 19.7005 12.7069 19.9975C12.8265 20.2945 13.0055 20.5641 13.2328 20.7896C13.4602 21.0152 13.7311 21.192 14.029 21.3093C14.327 21.4267 14.6458 21.482 14.9659 21.472C15.5292 21.498 16.0909 21.3919 16.6059 21.162V19.262C16.3059 19.384 14.8249 19.815 14.8249 18.428V15.1H16.6059V13.1H14.8249L14.8339 11.066ZM8.49986 15.481C8.49986 15.116 8.79986 14.975 9.29986 14.975C10.1109 14.9922 10.9068 15.1976 11.6249 15.575V13.375C10.8849 13.0828 10.0954 12.9364 9.29986 12.944C7.39986 12.944 6.13086 13.937 6.13086 15.597C6.13086 18.184 9.69286 17.772 9.69286 18.887C9.69286 19.319 9.31786 19.459 8.79286 19.459C7.89301 19.4103 7.01672 19.1536 6.23286 18.709V20.941C7.0412 21.2906 7.91216 21.4723 8.79286 21.475C10.7419 21.475 12.0829 20.509 12.0829 18.831C12.0689 16.034 8.49986 16.531 8.49986 15.481Z" fill="#38474B"/>
</svg>
