<svg width="80" height="80" viewBox="0 0 80 80" fill="none" xmlns="http://www.w3.org/2000/svg">
<path fill-rule="evenodd" clip-rule="evenodd" d="M0 0H80V80H0V0Z" fill="#38474B"/>
<path fill-rule="evenodd" clip-rule="evenodd" d="M53.8634 19.8282L38.8823 40.7226L31.2798 30.8311V41.5008L38.8823 49.6134L53.8634 27.7192V19.8282Z" fill="#FBF8ED"/>
<path fill-rule="evenodd" clip-rule="evenodd" d="M40.3354 24.8293C42.46 24.8293 45.0311 25.1626 47.0432 25.8296L47.3789 25.1626L47.9384 24.9402L47.7147 24.2736L49.5039 20.0502L49.3918 19.717C49.6155 19.717 49.9513 19.6057 50.0621 19.3833C50.1742 19.0496 49.9509 18.7163 49.7272 18.6051C49.6238 18.5503 49.5086 18.5217 49.3916 18.5217C49.2746 18.5217 49.1594 18.5503 49.0561 18.6051V18.4939C49.0561 18.4939 49.1681 18.2718 49.2798 17.9381L49.6155 18.2718C49.9513 18.3831 50.2858 18.2718 50.3979 17.9381C50.5099 17.7161 50.3979 17.3824 50.0621 17.1604C49.9509 17.1604 49.6155 17.1604 49.3918 17.2716V16.7159C49.6155 16.7159 49.7276 16.8271 49.9513 16.8271C50.2862 16.7159 50.5099 16.4934 50.3979 16.1606C50.3979 15.8269 50.0621 15.6048 49.8384 15.6048C49.6155 15.7161 49.3918 15.8269 49.2798 15.9381C49.2798 15.8269 49.1677 15.6048 49.0561 15.4936C49.2798 15.4936 49.3918 15.4936 49.5035 15.3824C49.8384 15.2711 49.9509 14.9379 49.8384 14.7158C49.7272 14.3821 49.3918 14.2713 49.0561 14.3821C48.944 14.4934 48.7203 14.6046 48.6087 14.8271C48.4966 14.7158 48.3858 14.4934 48.2737 14.3821C48.3858 14.3821 48.6087 14.2709 48.7203 14.1601C48.944 13.9376 48.8324 13.6044 48.6083 13.3819C48.5577 13.3292 48.4969 13.2872 48.4297 13.2585C48.3625 13.2299 48.2902 13.2151 48.2171 13.2151C48.144 13.2151 48.0717 13.2299 48.0045 13.2585C47.9372 13.2872 47.8765 13.3292 47.8259 13.3819C47.7139 13.6044 47.6022 13.8264 47.6022 14.0485C47.4902 13.9372 47.2665 13.8264 47.0427 13.7152C47.2665 13.604 47.3785 13.4927 47.4902 13.2707C47.6022 13.0486 47.4902 12.715 47.1544 12.6041C46.8195 12.4929 46.4841 12.6041 46.3721 12.9378C46.26 13.0491 46.3721 13.3823 46.4841 13.6044C46.1484 13.4931 45.9247 13.4931 45.7018 13.4931C45.813 13.3819 45.9247 13.1599 45.9247 13.0486C45.9247 12.715 45.5889 12.4929 45.366 12.4929C45.0303 12.4929 44.6949 12.715 44.6949 13.0486C44.6949 13.2707 44.9186 13.4931 45.0307 13.6044C44.807 13.7156 44.472 13.8268 44.2483 13.8268C44.2483 13.7156 44.3596 13.4931 44.2483 13.3823C44.1363 13.0491 43.8009 12.8266 43.5772 12.9378C43.2415 13.0491 43.0186 13.3823 43.1298 13.6044C43.2419 13.8268 43.3535 14.0489 43.5772 14.1601C43.3535 14.1601 43.1298 14.2713 43.0186 14.3821C42.9061 14.3821 42.7949 14.3821 42.6828 14.4934C42.9057 14.2709 42.9057 13.9376 42.7949 13.7152C42.7949 13.4927 42.4591 13.2707 42.1238 13.3819C41.788 13.4931 41.6764 13.7152 41.788 14.0485C41.788 14.2709 42.0117 14.493 42.2354 14.6042C41.676 14.7154 41.4531 14.6042 41.4531 14.6042V14.0489L41.2294 13.8268C41.5643 13.3823 41.788 13.2711 41.788 12.6041C41.788 12.0484 41.5643 11.4927 41.2294 11.2706C40.782 11.0482 40.5583 10.4925 40.5583 10.27V10.048C40.782 10.048 41.2294 10.048 41.4531 10.1592V8.93692C41.0057 9.27019 40.782 9.27019 40.5583 9.27019V8.93692C40.5583 8.82569 40.782 8.49242 40.894 8.26996H39.6647C39.7768 8.49242 40.0005 8.82569 40.0005 8.93692V9.27019C39.7768 9.27019 39.4414 9.27019 38.994 9.04773V10.1592C39.3298 10.048 39.6647 10.048 40.0005 10.048V10.27C40.0005 10.4925 39.6647 11.0482 39.3298 11.3815C38.994 11.4927 38.7707 12.0484 38.7707 12.6041C38.7707 13.2707 38.994 13.3823 39.3298 13.8268L38.994 14.0489V14.6046C38.994 14.6046 38.8824 14.7158 38.3233 14.6046C38.547 14.4934 38.7707 14.2713 38.7707 14.0489C38.8824 13.8268 38.6587 13.4931 38.435 13.3823C38.0996 13.2711 37.7643 13.4936 37.6522 13.7156C37.6522 13.9381 37.6522 14.2713 37.7643 14.4938C37.7643 14.3826 37.6522 14.3826 37.5406 14.3826C37.3173 14.2713 37.2052 14.2713 36.9815 14.1605C37.2052 14.0493 37.3173 13.8272 37.4289 13.716C37.4289 13.3827 37.3173 13.0495 36.9815 12.9382C36.6462 12.827 36.4225 13.0495 36.3108 13.3827C36.1992 13.494 36.1992 13.716 36.3108 13.9385C36.0871 13.8272 35.7518 13.716 35.4164 13.6052C35.6401 13.494 35.7522 13.2715 35.7522 13.0495C35.7522 12.7158 35.5285 12.4937 35.1932 12.4937C34.8574 12.4937 34.6341 12.7158 34.6341 13.0495C34.6341 13.1607 34.7462 13.3827 34.8578 13.6052C34.6341 13.494 34.2988 13.6052 34.0751 13.6052C34.1871 13.3827 34.1871 13.1607 34.1871 12.9387C34.0751 12.605 33.6281 12.4942 33.4048 12.605C33.0694 12.7162 32.9574 13.0495 33.0694 13.3832C33.1811 13.4944 33.2931 13.7164 33.4048 13.7164C33.2927 13.8277 33.0694 13.9389 32.8457 14.0497C32.9574 13.8277 32.8457 13.6052 32.7337 13.3832C32.51 13.1607 32.1746 13.1607 31.8393 13.3832C31.6156 13.6056 31.6156 13.9389 31.8393 14.1613C31.9513 14.2726 32.1746 14.3834 32.2867 14.4946C32.1746 14.6058 32.063 14.7171 31.8393 14.8283C31.8393 14.6058 31.6156 14.4946 31.5039 14.3834C31.1686 14.2722 30.8332 14.3834 30.7212 14.7171C30.6091 15.0503 30.7212 15.3836 31.0565 15.4953H31.5039C31.3923 15.6065 31.2802 15.8285 31.2802 15.9398C31.1682 15.8285 30.9449 15.7173 30.7212 15.7173C30.3858 15.6061 30.1621 15.8285 30.1621 16.1618C30.0501 16.4951 30.2742 16.8283 30.6091 16.8283C30.8328 16.8283 30.9449 16.8283 31.1682 16.7171V17.2728C30.9445 17.1616 30.6091 17.1616 30.3858 17.2728C30.1621 17.3841 30.0501 17.7173 30.1621 17.9394C30.2742 18.2731 30.6091 18.3839 30.8328 18.2731C31.0565 18.2731 31.1682 18.0506 31.2802 17.9394C31.3923 18.2731 31.5039 18.4951 31.5039 18.4951V18.6063H30.8332C30.6095 18.7172 30.3863 19.0508 30.4979 19.3845C30.6095 19.607 30.9453 19.7182 31.1686 19.7182L31.0565 20.0515L32.8457 24.2749L32.6216 24.9406L33.1807 25.163L33.516 25.83C35.5281 25.1626 38.0996 24.8293 40.3354 24.8293V24.8293ZM38.0996 22.1619C38.435 21.495 38.8824 20.9392 39.6647 20.9392C39.5527 21.7174 39.2177 22.4952 38.0996 22.4952C36.5345 22.4952 36.1992 21.0505 36.1992 20.9392C36.1992 20.7168 36.4229 20.6056 36.5345 20.6056C36.7582 20.6056 36.9819 20.828 36.8699 21.1613C37.2056 21.1613 37.6526 20.9392 37.6526 20.2723C37.6526 19.9386 37.2056 19.6053 36.7582 19.6053C36.5345 19.6053 36.1992 19.7166 36.0875 19.8278C35.8638 18.9384 35.5285 18.6051 35.4164 18.3831C34.9695 18.0498 34.9695 18.0498 34.8574 18.4943C34.6337 19.1612 34.7458 19.3837 34.8574 20.0502C34.6337 20.0502 33.7397 20.1619 33.7397 20.9397C33.7397 21.4954 34.0751 21.7178 34.2988 21.7178C34.5225 21.7178 34.7462 21.6066 34.8578 21.4954C34.6341 21.3842 34.6341 21.3842 34.6341 21.2729C34.6341 21.1617 34.8578 20.9397 34.9695 20.9397C35.3048 20.9397 35.4164 21.2729 35.4164 21.6062C35.4164 22.4956 34.7458 22.9401 34.0751 22.9401C33.1807 22.9401 32.7337 22.2732 32.7337 21.9399C33.4044 21.9399 33.7397 22.4956 33.8514 22.7181L34.0751 22.6068L32.7337 19.3837L32.51 19.4949C32.7337 19.8286 32.8457 20.1619 32.8457 20.2731C32.8457 20.6064 32.622 21.0509 32.3983 21.0509C32.1746 20.9397 32.1746 20.8288 32.1746 20.2731C32.1746 19.9394 32.2867 19.3837 32.51 18.9392C32.1746 18.4947 31.8393 17.4945 31.8393 17.0496C31.8393 15.9385 32.7337 14.2713 34.6341 14.2713C36.1992 14.2713 36.6466 15.1607 38.994 15.3828V17.8282C38.8824 17.9394 38.6587 18.0506 38.547 18.0506V18.2731C39.2177 18.8288 39.6647 18.8288 39.7768 19.829C38.994 19.829 38.6587 19.6066 38.2117 18.6063H37.8759V22.1628H38.0996V22.1619V22.1619ZM48.3854 20.2727C48.3854 20.8284 48.3854 20.9392 48.1617 21.0505C47.938 21.0505 47.8259 20.606 47.8259 20.2727C47.8259 20.1615 47.938 19.8282 48.0496 19.4945L47.8259 19.3833L46.4845 22.6064L46.7082 22.7177C46.8203 22.4952 47.1548 21.9395 47.8259 21.9395C47.8259 22.2727 47.3785 22.9397 46.4845 22.9397C45.8134 22.9397 45.1431 22.4952 45.1431 21.6058C45.1431 21.2725 45.2552 20.9392 45.5897 20.9392C45.7022 20.9392 45.9255 21.1613 45.9255 21.2725C45.9255 21.3837 45.9255 21.3837 45.8134 21.495C45.8134 21.6062 46.0371 21.7174 46.2608 21.7174C46.4845 21.7174 46.9319 21.495 46.9319 20.9392C46.9319 20.1615 45.9251 20.0498 45.7022 20.0498C45.8134 19.3833 45.9251 19.1608 45.7022 18.4939C45.5897 18.0494 45.5897 18.0494 45.1427 18.3826C45.0307 18.6051 44.6953 18.9384 44.4725 19.8274C44.36 19.7161 44.025 19.6049 43.8013 19.6049C43.3539 19.6049 42.9065 19.9382 42.9065 20.2719C42.9065 20.9384 43.3539 21.1609 43.6897 21.1609C43.5776 20.8276 43.8018 20.6051 44.0255 20.6051C44.1375 20.6051 44.3604 20.7164 44.3604 20.9388C44.3604 21.0501 44.0255 22.4948 42.4604 22.4948C41.3427 22.4948 41.0069 21.7166 40.8953 20.9388C41.6776 20.9388 42.2367 21.4946 42.4604 22.1615H42.6841V18.6051H42.3483C41.9009 19.6053 41.5651 19.8278 40.7832 19.8278C40.8953 18.8276 41.3427 18.8276 42.1246 18.2718V18.0498C41.9009 18.0498 41.6772 17.9386 41.5652 17.8273V15.2711C43.466 15.0487 44.2492 14.1597 45.8134 14.1597C47.6026 14.1597 48.7203 15.9381 48.7203 17.0491C48.7203 17.4936 48.3854 18.4939 48.05 18.9388C48.2733 19.3837 48.3854 19.939 48.3854 20.2727V20.2727Z" fill="#FBF8ED"/>
<path fill-rule="evenodd" clip-rule="evenodd" d="M39.5526 14.1601V17.9385V14.1601ZM40.3353 11.3814C40.4474 11.3814 40.559 11.3814 40.559 11.7151V12.0484C40.559 12.3816 40.559 12.3816 41.0064 12.3816C41.4538 12.3816 41.6767 12.4929 41.6767 12.6041C41.6767 12.7153 41.5646 12.8266 41.3418 12.8266C41.3418 12.8266 40.4469 12.7153 40.3349 12.7153C40.1116 12.7153 39.2172 12.8266 39.2172 12.8266C38.9935 12.8266 38.9935 12.7153 38.9935 12.6041C38.9935 12.4929 39.1056 12.3816 39.5526 12.3816C40 12.3816 40 12.3816 40 12.0484V11.7151C40 11.3814 40.1116 11.3814 40.3353 11.3814ZM41.0064 17.9385V14.1601V17.9385ZM40.3353 14.4933C40.4474 14.4933 40.559 14.3821 40.559 14.1601C40.559 13.9376 40.4469 13.8268 40.3353 13.8268C40.112 13.8268 40.0004 13.938 40.0004 14.1601C40 14.3821 40.1116 14.4933 40.3353 14.4933ZM40.3353 15.3823C40.4474 15.3823 40.559 15.1603 40.559 15.049C40.559 14.827 40.4469 14.7158 40.3353 14.7158C40.112 14.7158 40.0004 14.827 40.0004 15.049C40 15.1603 40.1116 15.3823 40.3353 15.3823ZM40.3353 16.1605C40.4474 16.1605 40.559 16.0493 40.559 15.9381C40.559 15.7156 40.4469 15.6048 40.3353 15.6048C40.112 15.6048 40.0004 15.716 40.0004 15.9381C40 16.0493 40.1116 16.1605 40.3353 16.1605ZM40.3353 17.0495C40.4474 17.0495 40.559 16.9383 40.559 16.7162C40.559 16.605 40.4469 16.3825 40.3353 16.3825C40.112 16.3825 40.0004 16.605 40.0004 16.7162C40 16.9383 40.1116 17.0495 40.3353 17.0495ZM40.3353 17.8277C40.4474 17.8277 40.559 17.7165 40.559 17.494C40.559 17.3828 40.4469 17.272 40.3353 17.272C40.112 17.272 40.0004 17.3832 40.0004 17.494C40 17.7165 40.1116 17.8277 40.3353 17.8277ZM37.4288 23.8291C37.4288 24.1623 37.2051 24.1623 36.8698 24.2736C36.6461 24.2736 35.9754 24.3848 35.8637 24.3848C35.64 24.3848 35.528 24.2736 35.528 24.0511C35.528 23.7174 36.087 23.4954 36.8694 23.4954C37.2051 23.4958 37.4288 23.6066 37.4288 23.8291ZM33.2922 24.9405L32.8452 24.8293L33.0685 24.3848L33.5155 24.496L33.2922 24.9405ZM40.2237 23.0513L40.8944 23.7178L40.2237 24.2736L39.5526 23.7178L40.2237 23.0513ZM43.1301 23.8291C43.1301 24.1623 43.3538 24.1623 43.6896 24.2736C43.8017 24.2736 44.4728 24.3848 44.6956 24.3848C44.8077 24.3848 45.0314 24.2736 45.0314 24.0511C45.0314 23.7174 44.4728 23.4954 43.69 23.4954C43.3538 23.4958 43.1301 23.6066 43.1301 23.8291ZM47.1547 24.9405L47.6021 24.8293L47.4905 24.3848L47.0431 24.496L47.1547 24.9405Z" fill="#38474B"/>
<path fill-rule="evenodd" clip-rule="evenodd" d="M34.2983 52.17C34.2983 52.17 34.4104 53.8368 34.4104 55.6152C34.4104 57.2828 34.2983 59.394 34.2983 59.394H36.0871C36.0871 59.394 35.9751 57.0603 35.9751 55.6152C35.9751 54.1709 36.0871 52.17 36.0871 52.17H34.2983V52.17Z" fill="#FBF8ED"/>
<path fill-rule="evenodd" clip-rule="evenodd" d="M35.8638 55.6152C35.8638 55.6152 36.9815 54.3929 37.4289 53.8368L38.7707 52.17H39.8883C39.8883 52.17 37.8758 54.5037 37.4289 54.9478C37.0562 55.2443 36.6835 55.5408 36.3108 55.8372L35.8638 55.6152Z" fill="#FBF8ED"/>
<path fill-rule="evenodd" clip-rule="evenodd" d="M37.0936 55.1711L40.1117 59.394H38.2112L35.9755 56.0601L35.8638 55.6152L37.0936 55.1711V55.1711ZM24.013 52.17H25.5781V55.0599C25.5781 56.1713 25.2427 58.9491 27.4785 58.9491C29.2673 58.9491 29.491 57.5048 29.491 56.0601V52.17H30.497V55.6152C30.3854 57.2828 30.497 59.5053 27.1432 59.5053C23.7893 59.5053 24.013 57.0603 24.013 56.5046V52.17V52.17ZM33.0686 61.839H33.963C33.963 61.839 33.8509 62.7284 33.8509 63.2833C33.8509 63.8395 33.7393 65.3958 34.969 65.3958C35.8634 65.3958 36.0871 64.6176 36.0871 63.8394C36.0871 63.1725 35.9751 61.839 35.9751 61.839H36.5341V63.6174C36.5341 64.5064 36.5341 65.7291 34.7453 65.7291C33.0682 65.7291 33.0682 64.3956 33.0682 64.0615L33.0686 61.839V61.839ZM37.4289 65.6183C37.4289 65.6183 37.6526 65.0621 37.8763 64.2848C38.2117 63.3954 38.547 62.9505 38.547 62.9505C38.547 62.9505 38.8824 63.8399 39.1061 64.5068L39.553 65.6183H40.5591C40.5591 65.6183 40.1121 64.6181 39.6647 63.7286C39.441 63.1725 38.994 61.839 38.994 61.839H38.547C38.547 61.839 37.6526 63.8395 37.4289 64.3956C37.2052 64.9509 36.8699 65.6179 36.8699 65.6179H37.4289V65.6183Z" fill="#FBF8ED"/>
<path fill-rule="evenodd" clip-rule="evenodd" d="M43.4659 59.394C43.4659 59.394 43.8017 58.2826 44.4728 56.8374C45.0314 55.2819 45.4788 54.2817 45.4788 54.2817C45.4788 54.2817 46.2611 56.0601 46.7086 57.1715C47.0435 58.283 47.4909 59.394 47.4909 59.394H49.2801C49.2801 59.394 48.4969 57.5044 47.715 55.726C47.2676 54.7258 46.3736 52.17 46.3736 52.17H45.4796C45.4796 52.17 43.8025 56.0601 43.4667 57.1715C43.0202 58.1718 42.4607 59.394 42.4607 59.394H43.4659Z" fill="#FBF8ED"/>
<path fill-rule="evenodd" clip-rule="evenodd" d="M44.025 57.2828H47.1548V56.6154H44.025V57.2828ZM25.6897 70.9527C25.6897 70.9527 25.9134 70.2858 26.2488 69.5084C26.4725 68.7302 26.8078 68.1741 26.8078 68.1741C26.8078 68.1741 27.1432 69.1743 27.3669 69.7304C27.5262 70.1341 27.6754 70.5416 27.8143 70.9527H28.8203L27.9259 68.9523C27.7022 68.3961 27.2552 67.0626 27.2552 67.0626H26.8083C26.8083 67.0626 25.9139 69.1743 25.6902 69.7304C25.4664 70.2858 25.1311 70.9527 25.1311 70.9527H25.6897V70.9527Z" fill="#FBF8ED"/>
<path fill-rule="evenodd" clip-rule="evenodd" d="M26.0254 69.8413H27.7021V69.5084H26.0254V69.8413ZM33.9629 70.9527C33.9629 70.9527 34.1866 70.2858 34.5219 69.5084C34.8573 68.7302 35.081 68.1741 35.081 68.1741C35.081 68.1741 35.528 69.1743 35.7517 69.7304C35.9754 70.2858 36.087 70.9527 36.087 70.9527H37.0931C37.0931 70.9527 36.6457 69.9525 36.3103 68.9523C36.0866 68.3961 35.5276 67.0626 35.5276 67.0626H35.0806C35.0806 67.0626 34.1862 69.1743 33.9625 69.7304C33.7388 70.2858 33.4034 70.9527 33.4034 70.9527H33.9629V70.9527Z" fill="#FBF8ED"/>
<path fill-rule="evenodd" clip-rule="evenodd" d="M34.2982 69.8412H35.9754V69.5084H34.2982V69.8412ZM56.2111 52.5032L55.9874 53.6147L55.7637 53.5035C55.7637 53.5035 55.428 52.7253 54.534 52.7253C53.64 52.7253 53.4163 53.2814 53.4163 53.7255C53.4163 54.0596 53.7521 54.6149 54.646 55.0598C55.54 55.3931 56.5469 55.9493 56.5469 57.2823C56.5469 58.6154 55.4284 59.5048 53.8637 59.5048C52.4103 59.5048 52.0745 59.0599 52.0745 59.0599L52.4103 57.8377H52.5215C52.5215 57.8377 52.7452 58.8379 53.8637 58.9491C54.9814 58.9491 55.3171 58.505 55.3171 57.7268C55.3171 57.0607 54.3103 56.6154 53.5279 56.2825C52.7448 55.8376 52.0745 55.1711 52.0745 54.2821C52.0745 53.3931 52.7448 52.0596 54.534 52.0596C55.6517 52.0592 56.2111 52.5032 56.2111 52.5032V52.5032ZM30.9444 65.6183C31.8388 65.3962 32.3978 64.618 32.3978 63.7286C32.3978 62.5064 31.5034 61.7282 30.2737 61.7282C29.0439 61.7282 28.0375 62.6176 28.0375 63.7286C28.0375 64.9509 29.0435 65.7291 30.1616 65.7291L31.6151 66.8405L32.3978 66.5073L30.9444 65.6183V65.6183ZM28.9319 63.7286C28.9319 62.6172 29.4909 62.061 30.2733 62.061C30.9439 62.061 31.503 62.6172 31.503 63.7286C31.503 64.8401 30.9439 65.3962 30.2733 65.3962C29.4909 65.3958 28.9319 64.9509 28.9319 63.7286ZM41.118 61.839V65.6183H43.3538V65.2842H42.0124C42.0124 65.2842 41.9004 64.1735 41.9004 63.6174C41.9004 63.1725 42.0124 61.839 42.0124 61.839H41.118ZM44.0249 61.839V65.6183H44.9189V63.7286V61.839H44.0249ZM45.5896 61.839V62.2839C45.5896 62.2839 45.9254 62.1718 46.1491 62.1718H46.5965C46.5965 62.1718 46.7085 63.2833 46.7085 63.8394C46.7085 64.2844 46.5965 65.6179 46.5965 65.6179H47.4905V63.7282V62.1718H47.9379C48.1616 62.1718 48.4965 62.2839 48.4965 62.2839V61.839H45.5896ZM57.1051 67.0626V67.5075H58.1111V70.9527H59.0059V69.063V67.5075H60.012V67.0626H57.1051ZM48.9439 61.839V61.9502L50.0616 63.9507V65.6183H50.9564V63.8394L52.1861 61.839H51.6271L50.7327 63.5066L49.8379 61.839H48.9439ZM20.1 70.9527C20.1 70.9527 20.3233 69.3963 20.4353 68.9522C20.4353 68.3961 20.659 67.0626 20.659 67.0626H21.106C21.106 67.0626 21.6651 68.0628 21.8888 68.5077C22.1125 69.063 22.4478 69.73 22.4478 69.73C22.4478 69.73 23.0064 68.8406 23.2302 68.3957L23.9013 67.0622H24.3482C24.3482 67.0622 24.4603 68.5073 24.572 69.0626C24.684 69.7296 24.7957 70.9523 24.7957 70.9523H23.9013C23.9013 70.9523 23.7892 69.952 23.7892 69.6188C23.7892 69.1738 23.6771 68.2844 23.6771 68.2844L23.0064 69.6188C22.7832 70.1741 22.3358 70.9523 22.3358 70.9523H22.2237C22.2237 70.9523 21.6646 69.952 21.4414 69.508C21.2177 69.1738 20.8823 68.3957 20.8823 68.3957C20.8823 68.3957 20.7707 69.0626 20.7707 69.6188C20.6586 70.1741 20.547 70.9523 20.547 70.9523H20.1V70.9527ZM44.5836 70.9527C44.5836 70.9527 44.8073 69.3963 44.9193 68.9522C44.9193 68.3961 45.143 67.0626 45.143 67.0626H45.5896C45.5896 67.0626 46.037 68.0628 46.2607 68.5077C46.5965 69.063 46.9318 69.73 46.9318 69.73L47.6021 68.3957L48.2732 67.0622H48.7198C48.7198 67.0622 48.9435 68.5073 49.0555 69.0626C49.0555 69.7296 49.2792 70.9523 49.2792 70.9523H48.3853C48.3853 70.9523 48.2732 69.952 48.1616 69.6188V68.2844C48.1616 68.2844 47.7142 69.1738 47.3784 69.6188C47.1547 70.1741 46.8198 70.9523 46.8198 70.9523H46.5961C46.5961 70.9523 46.1487 69.952 45.925 69.508C45.7021 69.1738 45.3663 68.3957 45.3663 68.3957C45.3663 68.3957 45.2543 69.0626 45.1426 69.6188C45.1426 70.1741 45.0306 70.9523 45.0306 70.9523H44.5836V70.9527V70.9527ZM29.3793 70.9527C29.3793 70.9527 29.4913 69.6192 29.4913 68.9522V67.0626H30.0504C30.0504 67.0626 31.1685 68.2849 31.5038 68.619C31.7275 68.9522 32.5099 69.7304 32.5099 69.7304V68.2853V67.063H32.9573V70.9531H32.5094C32.5094 70.9531 31.7271 70.1749 31.1681 69.5088C30.7207 68.9526 29.9383 68.2857 29.9383 68.2857C29.9383 68.2857 29.8267 68.9526 29.8267 69.3971C29.8267 69.8421 29.9383 70.9535 29.9383 70.9535H29.3793V70.9527V70.9527ZM52.9685 70.9527C52.8564 70.9527 52.9685 69.6192 52.9685 68.9522V67.0626H53.5279C53.5279 67.0626 54.6456 68.2849 54.9814 68.619C55.2051 68.9522 55.9874 69.7304 55.9874 69.7304V68.2853V67.063H56.4348V70.9531H55.9874C55.9874 70.9531 55.2051 70.1749 54.7577 69.5088C54.1982 68.9526 53.4163 68.2857 53.4163 68.2857V70.9535H52.9685V70.9527V70.9527ZM41.0064 67.2846L40.7827 67.8408C40.7827 67.8408 40.4469 67.2846 39.553 67.2846C38.6586 67.3967 38.0999 68.0628 38.0999 68.9522C38.0999 69.9524 38.659 70.6198 39.4413 70.6198C40.2237 70.6198 40.2237 70.5078 40.2237 70.5078V69.9525V69.2855H41.1185C41.1185 69.2855 41.0064 69.5084 41.0064 69.8416V70.7311C41.0064 70.7311 40.559 70.9531 39.553 70.9531C38.4353 70.9531 37.2055 70.5082 37.2055 69.0635C37.2055 67.3967 38.8827 66.9518 39.4413 66.9518C40.4469 66.9514 41.0064 67.2846 41.0064 67.2846V67.2846ZM41.9004 67.0626V70.9527H44.137V70.5078H42.7956V69.1743C42.7956 69.1743 43.0193 69.063 43.3542 69.063C43.5779 69.063 44.0254 69.1743 44.0254 69.1743V68.7302H42.7956V67.3967H43.3542C43.5779 67.3967 44.0254 67.5079 44.0254 67.5079V67.063H43.0193L41.9004 67.0626V67.0626ZM49.9508 67.0626V70.9527H52.1866V70.5078H50.8452V69.1743C50.8452 69.1743 51.0689 69.063 51.4038 69.063C51.6275 69.063 52.187 69.1743 52.187 69.1743V68.7302H50.8456V67.3967H51.4042C51.74 67.3967 52.1874 67.5079 52.1874 67.5079V67.063H51.0697L49.9508 67.0626V67.0626Z" fill="#FBF8ED"/>
<path d="M12.6095 74.6199H67.3909V5.37964H12.6095V74.6199Z" stroke="#FBF8ED" stroke-miterlimit="2.613"/>
</svg>
